M48
;DRILL file {KiCad 4.0.6-e0-6349~53~ubuntu16.04.1} date Mon Jun 12 17:22:32 2017
;FORMAT={-:-/ absolute / metric / decimal}
FMAT,2
METRIC,TZ
T1C0.254
T2C0.800
T3C1.000
T4C1.500
%
G90
G05
M71
T1
X113.002Y-116.831
X113.002Y-124.432
X113.03Y-132.08
X113.03Y-137.16
X113.03Y-142.24
X113.092Y-44.195
X113.092Y-45.973
X113.092Y-50.799
X113.092Y-56.133
X113.092Y-61.213
X113.092Y-66.293
X113.092Y-71.373
X113.092Y-76.453
X113.092Y-81.533
X113.092Y-86.613
X113.092Y-91.693
X113.092Y-96.773
X113.092Y-101.853
X113.092Y-106.933
X113.092Y-112.013
X114.573Y-56.902
X115.602Y-57.224
X116.14Y-113.029
X116.267Y-51.18
X116.394Y-53.72
X116.394Y-56.133
X116.394Y-60.451
X116.394Y-62.991
X116.394Y-66.039
X116.902Y-49.783
X117.664Y-44.195
X117.918Y-73.405
X117.918Y-81.533
X117.918Y-91.693
X117.918Y-101.853
X118.426Y-69.341
X119.38Y-116.84
X119.38Y-124.46
X119.38Y-132.08
X119.38Y-137.414
X119.38Y-142.24
X120.966Y-69.341
X121.22Y-70.357
X121.474Y-82.422
X121.982Y-82.422
X122.236Y-46.481
X122.744Y-44.195
X122.998Y-97.315
X123.76Y-46.481
X123.76Y-50.799
X123.76Y-53.339
X123.76Y-55.879
X123.76Y-58.419
X123.76Y-60.959
X123.76Y-63.499
X123.76Y-66.039
X123.76Y-111.198
X125.889Y-97.315
X126.173Y-72.643
X126.681Y-68.579
X126.689Y-48.395
X126.746Y-116.84
X127.Y-124.46
X127.Y-132.08
X127.Y-137.414
X127.Y-142.24
X127.316Y-71.5
X127.316Y-73.913
X127.316Y-111.198
X127.522Y-105.076
X127.824Y-44.195
X128.078Y-74.421
X128.586Y-106.425
X128.954Y-87.139
X129.348Y-50.799
X129.602Y-53.339
X129.602Y-55.879
X129.602Y-58.419
X129.602Y-60.959
X129.602Y-63.499
X129.602Y-66.039
X129.856Y-80.009
X130.11Y-82.041
X130.11Y-84.835
X130.11Y-85.597
X130.364Y-74.929
X130.491Y-57.149
X130.745Y-70.23
X130.872Y-109.473
X131.38Y-91.439
X131.507Y-102.488
X131.634Y-44.195
X131.634Y-46.481
X131.634Y-60.959
X132.396Y-107.949
X132.65Y-109.473
X132.904Y-44.195
X132.904Y-90.423
X133.158Y-47.497
X134.174Y-107.949
X134.366Y-116.84
X134.366Y-124.46
X134.366Y-132.08
X134.428Y-70.865
X134.428Y-109.473
X134.62Y-137.414
X134.62Y-142.24
X134.798Y-94.666
X134.798Y-99.847
X134.809Y-102.488
X135.952Y-107.949
X135.952Y-109.473
X136.206Y-91.312
X136.587Y-98.551
X136.896Y-71.954
X137.349Y-94.995
X137.476Y-109.473
X137.73Y-54.609
X137.795Y-89.484
X137.975Y-64.642
X137.984Y-44.195
X137.984Y-110.997
X138.111Y-51.942
X138.111Y-102.361
X138.354Y-99.974
X138.492Y-66.039
X138.746Y-107.949
X138.8Y-49.968
X138.824Y-70.75
X139.Y-63.753
X139.073Y-54.615
X139.254Y-48.005
X139.263Y-109.473
X139.635Y-46.354
X139.762Y-56.895
X139.762Y-73.659
X139.762Y-78.231
X139.929Y-91.516
X140.016Y-51.053
X140.27Y-90.931
X140.525Y-66.707
X140.564Y-92.989
X140.741Y-99.924
X140.778Y-109.473
X140.818Y-95.25
X141.286Y-102.234
X141.732Y-66.142
X141.794Y-64.769
X142.048Y-107.949
X142.048Y-110.235
X142.048Y-113.029
X142.138Y-95.174
X142.215Y-91.897
X142.215Y-100.305
X142.24Y-116.84
X142.24Y-132.08
X142.24Y-137.414
X142.24Y-142.24
X142.494Y-124.46
X142.565Y-109.473
X142.598Y-62.937
X142.621Y-114.554
X142.683Y-60.886
X142.697Y-94.209
X142.81Y-86.613
X143.064Y-44.195
X143.064Y-63.499
X143.161Y-91.155
X143.192Y-114.554
X143.318Y-52.831
X143.323Y-112.444
X143.383Y-116.84
X143.572Y-48.005
X143.662Y-93.142
X143.748Y-110.166
X143.764Y-114.554
X144.207Y-102.234
X144.334Y-112.772
X144.442Y-46.989
X144.463Y-47.643
X144.588Y-55.117
X144.588Y-56.641
X144.588Y-58.673
X144.588Y-60.705
X144.588Y-63.499
X145.35Y-107.949
X145.355Y-98.157
X145.371Y-95.454
X145.618Y-69.291
X145.847Y-66.7
X145.858Y-87.375
X145.867Y-109.473
X146.112Y-64.769
X146.152Y-90.703
X146.366Y-110.235
X146.704Y-91.631
X146.874Y-45.719
X147.128Y-61.975
X147.382Y-67.217
X147.382Y-100.456
X147.382Y-109.473
X147.509Y-102.361
X147.574Y-95.174
X147.625Y-97.993
X147.636Y-112.775
X147.65Y-92.71
X147.89Y-110.743
X147.98Y-88.417
X148.144Y-44.195
X148.144Y-73.405
X148.652Y-50.545
X148.652Y-60.705
X148.906Y-108.203
X148.946Y-66.802
X148.971Y-48.006
X149.16Y-63.245
X149.16Y-64.769
X149.2Y-69.596
X149.414Y-50.291
X149.423Y-109.361
X149.86Y-116.84
X149.86Y-124.46
X149.86Y-132.08
X149.86Y-137.414
X149.86Y-142.24
X149.922Y-49.021
X149.922Y-73.659
X149.995Y-57.127
X150.021Y-46.971
X150.049Y-64.515
X150.049Y-67.032
X150.112Y-86.803
X150.115Y-48.139
X150.147Y-52.132
X150.176Y-50.97
X150.445Y-55.259
X150.52Y-69.596
X150.546Y-46.427
X150.684Y-67.309
X150.684Y-109.473
X150.684Y-112.775
X151.192Y-102.234
X151.446Y-66.039
X151.446Y-70.103
X151.474Y-49.094
X151.573Y-60.07
X151.573Y-64.134
X151.954Y-48.513
X151.954Y-108.203
X151.958Y-55.975
X152.462Y-109.473
X152.716Y-65.458
X152.716Y-69.595
X152.97Y-46.481
X152.97Y-62.737
X153.034Y-61.403
X153.035Y-57.912
X153.161Y-72.986
X153.224Y-44.195
X153.224Y-56.133
X154.24Y-47.751
X154.24Y-76.199
X154.305Y-64.644
X154.367Y-102.234
X154.482Y-67.053
X154.748Y-53.305
X154.748Y-69.595
X155.002Y-55.879
X155.013Y-63.411
X155.15Y-50.958
X155.256Y-70.611
X155.51Y-47.37
X155.51Y-54.609
X155.51Y-57.149
X155.51Y-60.451
X155.51Y-61.213
X155.642Y-61.932
X155.764Y-46.481
X155.764Y-59.435
X155.764Y-64.007
X155.764Y-101.853
X155.764Y-112.775
X155.799Y-50.28
X155.839Y-53.963
X156.018Y-62.973
X156.272Y-76.961
X156.272Y-111.505
X156.526Y-101.853
X156.78Y-82.867
X156.907Y-56.133
X156.907Y-80.471
X156.96Y-50.589
X157.034Y-107.949
X157.052Y-62.8
X157.18Y-54.449
X157.48Y-124.46
X157.48Y-132.08
X157.48Y-137.414
X157.48Y-142.24
X157.541Y-51.976
X157.542Y-46.735
X157.63Y-64.856
X157.734Y-116.84
X157.796Y-47.878
X158.05Y-59.689
X158.224Y-62.483
X158.24Y-56.704
X158.24Y-67.309
X158.24Y-70.611
X158.24Y-77.215
X158.24Y-80.471
X158.304Y-44.195
X158.304Y-49.021
X158.304Y-53.593
X158.431Y-108.965
X158.748Y-83.629
X158.803Y-81.56
X158.812Y-46.989
X158.843Y-64.561
X158.916Y-61.068
X159.017Y-59.271
X159.258Y-56.642
X159.333Y-51.473
X159.639Y-53.593
X159.828Y-107.949
X160.272Y-46.481
X160.294Y-58.107
X160.717Y-65.531
X160.844Y-53.085
X160.844Y-112.775
X160.963Y-57.538
X161.352Y-52.069
X161.592Y-56.513
X161.606Y-49.021
X161.878Y-57.857
X162.052Y-53.848
X162.241Y-57.276
X162.368Y-69.849
X162.368Y-71.373
X162.495Y-55.244
X162.622Y-50.672
X162.89Y-53.016
X163.13Y-51.561
X163.33Y-56.695
X163.384Y-44.195
X163.489Y-53.488
X163.638Y-47.243
X163.638Y-60.451
X164.146Y-57.911
X164.908Y-53.085
X165.1Y-116.84
X165.1Y-124.46
X165.1Y-132.08
X165.1Y-137.414
X165.1Y-142.24
X165.162Y-73.913
X165.416Y-77.469
X165.67Y-72.135
X165.707Y-59.762
X165.924Y-45.846
X165.924Y-60.451
X165.924Y-112.775
X166.051Y-53.112
X166.178Y-57.403
X166.94Y-73.151
X166.94Y-78.993
X166.94Y-89.153
X166.94Y-99.313
X166.94Y-109.219
X167.067Y-53.112
X167.194Y-60.451
X167.194Y-65.277
X167.194Y-67.563
X167.394Y-58.021
X167.702Y-61.975
X167.829Y-53.466
X168.21Y-66.293
X168.283Y-60.31
X168.464Y-44.195
X168.634Y-53.426
X169.221Y-53.713
X169.988Y-48.259
X170.305Y-53.143
X170.352Y-49.983
X171.182Y-124.485
X171.182Y-132.219
X171.182Y-137.249
X171.196Y-116.84
X171.196Y-142.24
X171.258Y-44.195
X171.258Y-48.259
X171.258Y-59.689
X171.258Y-63.753
X171.258Y-68.833
X171.258Y-73.913
X171.258Y-78.993
X171.258Y-84.073
X171.258Y-89.153
X171.258Y-94.233
X171.258Y-99.313
X171.258Y-104.393
X171.258Y-109.473
X171.512Y-53.085
T2
X149.16Y-77.469
X151.66Y-77.469
T3
X132.142Y-73.532
X134.682Y-73.532
T4
X122.236Y-74.854
X122.236Y-79.854
X122.236Y-84.854
X122.236Y-89.854
X122.236Y-94.854
X122.236Y-99.854
X122.236Y-104.854
X122.236Y-109.854
X162.216Y-62.487
X162.216Y-67.487
X162.241Y-74.727
X162.241Y-79.727
X162.241Y-84.727
X162.241Y-89.727
X162.241Y-94.727
X162.241Y-99.727
X162.241Y-104.727
X162.241Y-109.727
T0
M30
