G04 #@! TF.FileFunction,Copper,L2,Bot,Signal*
%FSLAX46Y46*%
G04 Gerber Fmt 4.6, Leading zero omitted, Abs format (unit mm)*
G04 Created by KiCad (PCBNEW 4.0.7-e2-6376~58~ubuntu16.04.1) date Fri Nov 24 15:55:31 2017*
%MOMM*%
%LPD*%
G01*
G04 APERTURE LIST*
%ADD10C,0.100000*%
%ADD11R,0.750000X2.400000*%
%ADD12C,2.540000*%
%ADD13R,1.600000X1.000000*%
%ADD14R,1.700000X1.700000*%
%ADD15O,1.700000X1.700000*%
%ADD16R,2.000000X2.000000*%
%ADD17C,2.000000*%
%ADD18C,0.685800*%
%ADD19C,0.254000*%
%ADD20C,0.152400*%
%ADD21C,1.016000*%
G04 APERTURE END LIST*
D10*
D11*
X169687000Y-55357600D03*
X169687000Y-51457600D03*
X168417000Y-55357600D03*
X168417000Y-51457600D03*
X167147000Y-55357600D03*
X167147000Y-51457600D03*
X165877000Y-55357600D03*
X165877000Y-51457600D03*
X164607000Y-55357600D03*
X164607000Y-51457600D03*
D12*
X122236000Y-74854000D03*
X122236000Y-79854000D03*
X122236000Y-84854000D03*
X122236000Y-89854000D03*
X122236000Y-94854000D03*
X122236000Y-99854000D03*
X122236000Y-104854000D03*
X122236000Y-109854000D03*
X162241000Y-109727000D03*
X162241000Y-104727000D03*
X162241000Y-99727000D03*
X162241000Y-94727000D03*
X162241000Y-89727000D03*
X162241000Y-84727000D03*
X162241000Y-79727000D03*
X162241000Y-74727000D03*
D13*
X166940000Y-63372000D03*
X166940000Y-66372000D03*
D14*
X134682000Y-73532000D03*
D15*
X132142000Y-73532000D03*
D12*
X162215600Y-67486800D03*
X162215600Y-62486800D03*
D16*
X146775160Y-77520800D03*
D17*
X151775160Y-77520800D03*
D18*
X168653096Y-114551484D03*
X169546639Y-114551484D03*
X170432478Y-114551484D03*
X171326021Y-114551484D03*
X115696889Y-114550152D03*
X114803606Y-114550152D03*
X113919345Y-114550152D03*
X113026061Y-114550152D03*
X154715104Y-64277625D03*
X163650633Y-56446491D03*
X161506347Y-56618609D03*
X163651710Y-54348266D03*
X155463542Y-57391982D03*
X161387115Y-52229072D03*
X151446764Y-66010892D03*
X155423478Y-61159870D03*
X155734073Y-59361025D03*
X155006546Y-56014191D03*
X155121518Y-51725594D03*
X153453409Y-53129662D03*
X155647881Y-47393529D03*
X159258195Y-46979281D03*
X157796000Y-47878198D03*
X151446000Y-70103000D03*
X152758140Y-52461160D03*
X140728700Y-60944760D03*
X136133840Y-55796180D03*
X147769723Y-94789690D03*
X147766025Y-97350771D03*
X142230991Y-91798706D03*
X145646140Y-102920800D03*
X143532860Y-100573840D03*
X143845280Y-98257360D03*
X132638800Y-53418111D03*
X132562600Y-50567489D03*
X138366500Y-52641500D03*
X138963400Y-50165000D03*
X139153900Y-57848500D03*
X157064754Y-51890463D03*
X156305595Y-52898937D03*
X165767394Y-46224933D03*
X159645310Y-53593249D03*
X158325499Y-53492222D03*
X171131880Y-51506964D03*
X155576861Y-64121351D03*
X163144200Y-57886600D03*
X164897537Y-53212794D03*
X167791659Y-62050753D03*
X158366464Y-67385287D03*
X158266910Y-77277679D03*
X148162138Y-88512874D03*
X161391110Y-60669201D03*
X161092452Y-57857256D03*
X163665346Y-60601455D03*
X162278843Y-57031279D03*
X162433490Y-55264060D03*
X170920276Y-48431305D03*
X129743200Y-66014600D03*
X123545600Y-65963800D03*
X123545600Y-63373000D03*
X129616200Y-63373000D03*
X129616200Y-60883800D03*
X123571000Y-60883800D03*
X123571000Y-58318400D03*
X129565400Y-58369200D03*
X129616200Y-55803800D03*
X123621800Y-55829200D03*
X123621800Y-53263800D03*
X129641600Y-53238400D03*
X129641600Y-50698400D03*
X123596400Y-50698400D03*
X165987339Y-60858716D03*
X141782800Y-65938400D03*
X138531600Y-61061600D03*
X158924225Y-44545615D03*
X149116255Y-44471316D03*
X155931177Y-50237665D03*
X155726796Y-54739594D03*
X161884390Y-53901775D03*
X146253200Y-50190400D03*
X140665200Y-63220600D03*
X144500600Y-63931800D03*
X148539200Y-63931800D03*
X136632130Y-60878270D03*
X154368510Y-65141461D03*
X148539200Y-60807600D03*
X144780000Y-60579000D03*
X145084800Y-67665600D03*
X148691600Y-67691000D03*
X150571200Y-67767200D03*
X142875000Y-50165000D03*
X139827000Y-67741800D03*
X138023600Y-67005200D03*
X133096000Y-65963800D03*
X133121400Y-63373000D03*
X132664200Y-60833000D03*
X132638800Y-55727600D03*
X137566400Y-47523400D03*
X133096000Y-47625000D03*
X152577800Y-48234600D03*
X147357574Y-46718072D03*
X159512000Y-94792800D03*
X159181800Y-99898200D03*
X161086800Y-72313800D03*
X160985200Y-69900800D03*
X158133114Y-59675962D03*
X162864800Y-52197000D03*
X160821727Y-53101551D03*
X136899395Y-89350143D03*
X153006053Y-61519811D03*
X113686983Y-116830696D03*
X113686983Y-120648033D03*
X113686981Y-125719637D03*
X113686981Y-130791241D03*
X113686983Y-137171648D03*
X113686983Y-142243250D03*
X170837963Y-142243250D03*
X170837963Y-137171646D03*
X170837963Y-130791239D03*
X170837963Y-125719637D03*
X170837963Y-120648031D03*
X170837963Y-116830696D03*
X161276680Y-125725008D03*
X149875173Y-125725008D03*
X135877935Y-125725008D03*
X124476428Y-125725008D03*
X149860000Y-137160000D03*
X161290000Y-137160000D03*
X161290000Y-120650000D03*
X149860000Y-120650000D03*
X135890000Y-120650000D03*
X124460000Y-120650000D03*
X124460000Y-137160000D03*
X135890000Y-137160000D03*
X135890000Y-130810000D03*
X124460000Y-130810000D03*
X161290000Y-130810000D03*
X149860000Y-130810000D03*
X149860000Y-142240000D03*
X156210000Y-142240000D03*
X161290000Y-142240000D03*
X166370000Y-142240000D03*
X166370000Y-116840000D03*
X161290000Y-116840000D03*
X156210000Y-116840000D03*
X151130000Y-116840000D03*
X146050000Y-116840000D03*
X140970000Y-116840000D03*
X135890000Y-116840000D03*
X130810000Y-116840000D03*
X124460000Y-116840000D03*
X119380000Y-116840000D03*
X119380000Y-142240000D03*
X124460000Y-142240000D03*
X130810000Y-142240000D03*
X137160000Y-142240000D03*
X143510000Y-142240000D03*
X143510000Y-137160000D03*
X143510000Y-130810000D03*
X143510000Y-125730000D03*
X143510000Y-120650000D03*
X143638943Y-114556585D03*
X142748000Y-114554000D03*
X135733245Y-110813262D03*
X133420680Y-110801217D03*
X154196067Y-75905060D03*
X148666124Y-47953276D03*
X143859536Y-89446532D03*
X152781000Y-87249000D03*
X149860000Y-90043000D03*
X150368000Y-92075000D03*
X152654000Y-89789000D03*
X152908000Y-91694000D03*
X150495000Y-100457000D03*
X152400000Y-101727000D03*
X147559217Y-104880879D03*
X118042761Y-105843498D03*
X140300861Y-99855806D03*
X134135045Y-94587949D03*
X140815142Y-95378091D03*
X142333689Y-95329422D03*
X142691032Y-94442647D03*
X140237617Y-91187912D03*
X147572971Y-92022527D03*
X145950408Y-90753664D03*
X145849237Y-87468720D03*
X127284595Y-71559922D03*
X158775561Y-81569348D03*
X158232345Y-80423499D03*
X156230102Y-77089341D03*
X158279351Y-70537855D03*
X152815098Y-69409252D03*
X154619247Y-67217405D03*
X156293321Y-62854703D03*
X158785836Y-62243495D03*
X155607746Y-60303663D03*
X153017080Y-57919770D03*
X153231223Y-55886055D03*
X126681000Y-68550892D03*
X159361586Y-56588690D03*
X117940927Y-73368072D03*
X155767567Y-46482609D03*
X171147900Y-69006947D03*
X171205863Y-63751666D03*
X124968000Y-44704000D03*
X113284000Y-44704000D03*
X113284000Y-50800000D03*
X113284000Y-59944000D03*
X113284000Y-73406000D03*
X113284000Y-81534000D03*
X113284000Y-91694000D03*
X113284000Y-99568000D03*
X113284000Y-106426000D03*
X113284000Y-113030000D03*
X117856000Y-113030000D03*
X143510000Y-112776000D03*
X148844000Y-112776000D03*
X155702000Y-112776000D03*
X160858200Y-112750600D03*
X165963600Y-112763300D03*
X171069000Y-109537500D03*
X171043600Y-104457500D03*
X171030900Y-99352100D03*
X171043600Y-94284800D03*
X171043600Y-89230200D03*
X171043600Y-84137500D03*
X171056300Y-79108300D03*
X171069000Y-74002900D03*
X171221400Y-59651900D03*
X170751500Y-44538900D03*
X168833800Y-44500800D03*
X163410900Y-44526200D03*
X133270538Y-44630494D03*
X126688940Y-48395079D03*
X131634000Y-46730305D03*
X157850868Y-46737961D03*
X154109223Y-47987981D03*
X123571000Y-48006000D03*
X143445900Y-44615110D03*
X138329578Y-44646875D03*
X161667762Y-49127328D03*
X164151284Y-47587823D03*
X117983000Y-101854000D03*
X117983000Y-91694000D03*
X118110000Y-81534000D03*
X129286000Y-92329000D03*
X130556000Y-97155000D03*
X128778000Y-102870000D03*
X131318000Y-102743000D03*
X130556000Y-108585000D03*
X134493000Y-107315000D03*
X137922000Y-106680000D03*
X145415000Y-109982000D03*
X145034000Y-107315000D03*
X143256000Y-109220000D03*
X141732000Y-108585000D03*
X141859000Y-104775000D03*
X140081000Y-103505000D03*
X138303000Y-99949000D03*
X136652000Y-102616000D03*
X141732000Y-98044000D03*
X141732000Y-102362000D03*
X143662400Y-93141800D03*
X140563600Y-92989400D03*
X134797800Y-99847400D03*
X152970000Y-46481000D03*
X166940000Y-109219000D03*
X166940000Y-99313000D03*
X166940000Y-89153000D03*
X166940000Y-78993000D03*
X166940000Y-73151000D03*
X165670000Y-72135000D03*
X162368000Y-69849000D03*
X162368000Y-71373000D03*
X165162000Y-73913000D03*
X165416000Y-77469000D03*
X155256000Y-70611000D03*
X149922000Y-73659000D03*
X148144000Y-73405000D03*
X139762000Y-73659000D03*
X139762000Y-78231000D03*
X130364000Y-74929000D03*
X167194000Y-65277000D03*
X167194000Y-67563000D03*
X168210000Y-66293000D03*
X128953574Y-87138731D03*
X129856000Y-80009000D03*
X130110000Y-82041000D03*
X130110000Y-84835000D03*
X130110000Y-85597000D03*
X131380000Y-91439000D03*
X132904000Y-90423000D03*
X142810000Y-86613000D03*
X156907000Y-80471240D03*
X157034000Y-107949000D03*
X159828000Y-107949000D03*
X152970000Y-62737000D03*
X128078000Y-74421000D03*
X162622000Y-50672000D03*
X158748500Y-83628500D03*
X156780000Y-82866500D03*
X150112500Y-86803500D03*
X158431000Y-108965000D03*
X127522000Y-105076000D03*
X147382000Y-100456000D03*
X127316000Y-73913000D03*
X156526000Y-101853000D03*
X155764000Y-101853000D03*
X121982000Y-82422000D03*
X121474000Y-82422000D03*
X158243999Y-48996255D03*
X150736851Y-47964577D03*
X149692361Y-50468219D03*
X149627120Y-46998444D03*
X144336479Y-46636844D03*
X151446959Y-51842389D03*
X116383151Y-53566766D03*
X116971260Y-60482495D03*
X116574128Y-56073196D03*
X116585609Y-63098114D03*
X116471698Y-65976908D03*
X134460934Y-70774643D03*
X151610652Y-60081035D03*
X150298551Y-55247548D03*
X158288709Y-56668113D03*
X120933688Y-69314403D03*
X118081090Y-69314405D03*
X159630077Y-52026218D03*
X124543820Y-46443900D03*
X117944533Y-49590229D03*
X151573000Y-64134000D03*
X122236000Y-46481000D03*
X160272500Y-46481000D03*
X116267000Y-51180000D03*
X157196889Y-64823741D03*
X170181040Y-49500900D03*
X136578069Y-98744450D03*
X156337000Y-57327800D03*
X169189400Y-57338818D03*
X137349000Y-94995000D03*
X160038751Y-65348635D03*
X167967376Y-53229517D03*
X161965694Y-57924298D03*
X153161254Y-72985893D03*
X136206000Y-91312000D03*
X169430363Y-53561472D03*
X140308091Y-90216923D03*
X155788448Y-62021211D03*
X157777552Y-66548915D03*
X169011600Y-59893200D03*
X143713200Y-92227400D03*
X167081200Y-53263800D03*
X158516700Y-64701124D03*
X168213718Y-60261469D03*
X146665414Y-91668209D03*
X167576053Y-57997521D03*
X170610162Y-57683400D03*
X166108402Y-53215309D03*
X159234068Y-61068066D03*
X145371272Y-95453802D03*
X164423252Y-57634216D03*
X159410341Y-59795899D03*
X160324195Y-58346656D03*
X145355321Y-98156800D03*
X143839517Y-55485246D03*
X151409400Y-53162200D03*
X157194407Y-53921152D03*
X151319521Y-57281744D03*
X141757400Y-57805689D03*
X142595600Y-62509400D03*
X151803984Y-48832681D03*
X144336479Y-47516223D03*
X140529644Y-58148088D03*
X149707600Y-57962800D03*
X142494000Y-55333900D03*
X139052300Y-55397400D03*
X137450647Y-55993369D03*
X137110732Y-72162632D03*
X138095948Y-64616062D03*
X151832914Y-55991912D03*
X149991594Y-66861123D03*
X150049000Y-64515000D03*
X137311033Y-53336198D03*
X148855778Y-50089701D03*
X136835536Y-50757143D03*
X138606368Y-70261679D03*
X147384738Y-67081890D03*
X147122037Y-61968421D03*
X156771666Y-56075643D03*
X157627297Y-63120982D03*
X146482759Y-46759847D03*
X139614413Y-46729708D03*
X130849006Y-70159511D03*
X130491000Y-57149000D03*
X157136201Y-50736747D03*
X142519400Y-67056000D03*
X136390191Y-53202894D03*
D19*
X154715104Y-61868244D02*
X154715104Y-63792692D01*
X155423478Y-61159870D02*
X154715104Y-61868244D01*
X154715104Y-63792692D02*
X154715104Y-64277625D01*
D20*
X164607000Y-55357600D02*
X164079600Y-55357600D01*
D19*
X161506347Y-56618609D02*
X161849246Y-56275710D01*
D20*
X163650633Y-55961558D02*
X163650633Y-56446491D01*
D19*
X163479852Y-56275710D02*
X163650633Y-56446491D01*
D20*
X164079600Y-55357600D02*
X163650633Y-55786567D01*
X163650633Y-55786567D02*
X163650633Y-55961558D01*
D19*
X161849246Y-56275710D02*
X163479852Y-56275710D01*
X163506309Y-54348266D02*
X163651710Y-54348266D01*
X161387115Y-52229072D02*
X163506309Y-54348266D01*
X155734073Y-59361025D02*
X155734073Y-57662513D01*
X155734073Y-57662513D02*
X155463542Y-57391982D01*
X151788899Y-66353027D02*
X151446764Y-66010892D01*
X151788899Y-69760101D02*
X151788899Y-66353027D01*
X151446000Y-70103000D02*
X151788899Y-69760101D01*
X155006546Y-54682799D02*
X155006546Y-55529258D01*
X153453409Y-53129662D02*
X155006546Y-54682799D01*
X155006546Y-55529258D02*
X155006546Y-56014191D01*
X155121518Y-47919892D02*
X155121518Y-51240661D01*
X155647881Y-47393529D02*
X155121518Y-47919892D01*
X155121518Y-51240661D02*
X155121518Y-51725594D01*
X158915296Y-47322180D02*
X159258195Y-46979281D01*
X157796000Y-47878198D02*
X158359278Y-47878198D01*
X158359278Y-47878198D02*
X158915296Y-47322180D01*
D20*
X153231223Y-54506503D02*
X152758140Y-54033420D01*
X152758140Y-54033420D02*
X152758140Y-52461160D01*
X153231223Y-55886055D02*
X153231223Y-54506503D01*
X138531600Y-60909200D02*
X136133840Y-58511440D01*
X136133840Y-58511440D02*
X136133840Y-55796180D01*
X138531600Y-61061600D02*
X138531600Y-60909200D01*
D19*
X143845280Y-98257360D02*
X143532860Y-98569780D01*
X143532860Y-98569780D02*
X143532860Y-100573840D01*
D20*
X134522311Y-50567489D02*
X133047533Y-50567489D01*
X132638800Y-55727600D02*
X132638800Y-53418111D01*
X133047533Y-50567489D02*
X132562600Y-50567489D01*
X137566400Y-47523400D02*
X134522311Y-50567489D01*
X140258800Y-58953400D02*
X139153900Y-57848500D01*
X140258800Y-61226700D02*
X140258800Y-58953400D01*
X142240000Y-63207900D02*
X140258800Y-61226700D01*
X142506700Y-63207900D02*
X142240000Y-63207900D01*
X142887701Y-63588901D02*
X142506700Y-63207900D01*
X144500600Y-63931800D02*
X144157701Y-63588901D01*
X144157701Y-63588901D02*
X142887701Y-63588901D01*
X156305595Y-54160795D02*
X156305595Y-53383870D01*
X155726796Y-54739594D02*
X156305595Y-54160795D01*
X156305595Y-53383870D02*
X156305595Y-52898937D01*
D19*
X159361586Y-56588690D02*
X159704485Y-56245791D01*
X158325499Y-55205001D02*
X158325499Y-53977155D01*
X158325499Y-53977155D02*
X158325499Y-53492222D01*
X159704485Y-56245791D02*
X159704485Y-53652424D01*
X159704485Y-53652424D02*
X159645310Y-53593249D01*
X158435852Y-57514424D02*
X158080695Y-57514424D01*
X159361586Y-56588690D02*
X158435852Y-57514424D01*
X157613275Y-57047003D02*
X157613275Y-55917225D01*
X157613275Y-55917225D02*
X158325499Y-55205001D01*
X158080695Y-57514424D02*
X157613275Y-57047003D01*
X171474779Y-51849863D02*
X171131880Y-51506964D01*
X171564299Y-51939383D02*
X171474779Y-51849863D01*
X171564299Y-59309001D02*
X171564299Y-51939383D01*
D20*
X171263175Y-48774204D02*
X171263175Y-51375669D01*
X170920276Y-48431305D02*
X171263175Y-48774204D01*
X171263175Y-51375669D02*
X171131880Y-51506964D01*
D19*
X171221400Y-59651900D02*
X171564299Y-59309001D01*
X155576861Y-64606284D02*
X155576861Y-64121351D01*
X158785836Y-63455334D02*
X157856799Y-64384371D01*
X158506701Y-66760117D02*
X158366464Y-66900354D01*
X155041953Y-65141192D02*
X155576861Y-64606284D01*
X158366464Y-66900354D02*
X158366464Y-67385287D01*
X158506701Y-66251947D02*
X158506701Y-66760117D01*
X157856799Y-65602045D02*
X158506701Y-66251947D01*
X158785836Y-62243495D02*
X158785836Y-63455334D01*
X157856799Y-64384371D02*
X157856799Y-65602045D01*
X154413938Y-65141192D02*
X155041953Y-65141192D01*
D20*
X164607000Y-51457600D02*
X164607000Y-52922257D01*
X164607000Y-52922257D02*
X164897537Y-53212794D01*
X166588337Y-60858716D02*
X167363162Y-61633541D01*
D19*
X163665346Y-60601455D02*
X166331076Y-60601455D01*
D20*
X165987339Y-60858716D02*
X166588337Y-60858716D01*
D19*
X166331076Y-60601455D02*
X167363162Y-61633541D01*
X167363162Y-61633541D02*
X167374446Y-61633541D01*
X167374446Y-61633541D02*
X167448760Y-61707854D01*
X167448760Y-61707854D02*
X167791659Y-62050753D01*
X158279351Y-70537855D02*
X158279351Y-67472400D01*
X158279351Y-67472400D02*
X158366464Y-67385287D01*
X158279351Y-70537855D02*
X158279351Y-77265238D01*
X158232345Y-77312244D02*
X158266910Y-77277679D01*
X158232345Y-80423499D02*
X158232345Y-77312244D01*
X158279351Y-77265238D02*
X158266910Y-77277679D01*
X145950408Y-90753664D02*
X148162138Y-88541934D01*
X148162138Y-88541934D02*
X148162138Y-88512874D01*
X161435351Y-57514357D02*
X161092452Y-57857256D01*
X161685311Y-57264397D02*
X161435351Y-57514357D01*
X162045725Y-57264397D02*
X161685311Y-57264397D01*
X162278843Y-57031279D02*
X162045725Y-57264397D01*
X162515060Y-55264060D02*
X162433490Y-55264060D01*
X162608600Y-55357600D02*
X162515060Y-55264060D01*
D20*
X123545600Y-63373000D02*
X123545600Y-65963800D01*
X129616200Y-60883800D02*
X129616200Y-63373000D01*
X123571000Y-58318400D02*
X123571000Y-60883800D01*
X129616200Y-55803800D02*
X129616200Y-58318400D01*
X129616200Y-58318400D02*
X129565400Y-58369200D01*
X123621800Y-53263800D02*
X123621800Y-55829200D01*
X129641600Y-50698400D02*
X129641600Y-53238400D01*
X123571000Y-48006000D02*
X123571000Y-50673000D01*
X123571000Y-50673000D02*
X123596400Y-50698400D01*
X158943640Y-44526200D02*
X158924225Y-44545615D01*
X163410900Y-44526200D02*
X158943640Y-44526200D01*
D19*
X148972461Y-44615110D02*
X149116255Y-44471316D01*
X143445900Y-44615110D02*
X148972461Y-44615110D01*
X156274076Y-49894766D02*
X155931177Y-50237665D01*
X157423835Y-49894766D02*
X156274076Y-49894766D01*
X157796102Y-51077886D02*
X157796102Y-50267033D01*
X157796102Y-50267033D02*
X157423835Y-49894766D01*
X157714769Y-51159219D02*
X157796102Y-51077886D01*
D20*
X148691600Y-67691000D02*
X148691600Y-64084200D01*
X148691600Y-64084200D02*
X148539200Y-63931800D01*
D19*
X154413938Y-65141192D02*
X154413669Y-65141461D01*
X154413669Y-65141461D02*
X154368510Y-65141461D01*
D20*
X145084800Y-67665600D02*
X145084800Y-60883800D01*
X145084800Y-60883800D02*
X144780000Y-60579000D01*
X145110200Y-67691000D02*
X145084800Y-67665600D01*
X148691600Y-67691000D02*
X145110200Y-67691000D01*
X150571200Y-67767200D02*
X148767800Y-67767200D01*
X148767800Y-67767200D02*
X148691600Y-67691000D01*
X138023600Y-67005200D02*
X138760200Y-67741800D01*
X138760200Y-67741800D02*
X139827000Y-67741800D01*
X133121400Y-63373000D02*
X133121400Y-65938400D01*
X133121400Y-65938400D02*
X133096000Y-65963800D01*
X132638800Y-55727600D02*
X132638800Y-60807600D01*
X132638800Y-60807600D02*
X132664200Y-60833000D01*
X131634000Y-46730305D02*
X132201305Y-46730305D01*
X132201305Y-46730305D02*
X133096000Y-47625000D01*
D19*
X149413587Y-49272432D02*
X149567376Y-49118643D01*
X149567376Y-49118643D02*
X149567376Y-49112516D01*
D20*
X159181800Y-99898200D02*
X159181800Y-95123000D01*
X159181800Y-95123000D02*
X159512000Y-94792800D01*
X162215600Y-67486800D02*
X160945601Y-68756799D01*
X160945601Y-68756799D02*
X160945601Y-69861201D01*
X160945601Y-69861201D02*
X160985200Y-69900800D01*
D19*
X158785836Y-62243495D02*
X158133114Y-61590773D01*
X158133114Y-60160895D02*
X158133114Y-59675962D01*
X158133114Y-61590773D02*
X158133114Y-60160895D01*
D20*
X113696287Y-116840000D02*
X113686983Y-116830696D01*
X119380000Y-116840000D02*
X113696287Y-116840000D01*
X113686981Y-120648035D02*
X113686983Y-120648033D01*
X113686981Y-125719637D02*
X113686981Y-120648035D01*
X113686983Y-130791243D02*
X113686981Y-130791241D01*
X113686983Y-137171648D02*
X113686983Y-130791243D01*
X119380000Y-142240000D02*
X113690233Y-142240000D01*
X113690233Y-142240000D02*
X113686983Y-142243250D01*
X170834713Y-142240000D02*
X170837963Y-142243250D01*
X166370000Y-142240000D02*
X170834713Y-142240000D01*
X170837963Y-130791239D02*
X170837963Y-137171646D01*
X170837963Y-120648031D02*
X170837963Y-125719637D01*
X170828659Y-116840000D02*
X170837963Y-116830696D01*
X166370000Y-116840000D02*
X170828659Y-116840000D01*
X161290000Y-125738328D02*
X161276680Y-125725008D01*
X161290000Y-130810000D02*
X161290000Y-125738328D01*
X135877935Y-125725008D02*
X149875173Y-125725008D01*
X124460000Y-130810000D02*
X124460000Y-125741436D01*
X124460000Y-125741436D02*
X124476428Y-125725008D01*
X149860000Y-142240000D02*
X149860000Y-137160000D01*
X149860000Y-137160000D02*
X149860000Y-130810000D01*
X161290000Y-137160000D02*
X149860000Y-137160000D01*
X149860000Y-120650000D02*
X161290000Y-120650000D01*
X124460000Y-120650000D02*
X135890000Y-120650000D01*
X135890000Y-130810000D02*
X135890000Y-137160000D01*
X161290000Y-142240000D02*
X156210000Y-142240000D01*
X156210000Y-116840000D02*
X161290000Y-116840000D01*
X146050000Y-116840000D02*
X151130000Y-116840000D01*
X135890000Y-116840000D02*
X140970000Y-116840000D01*
X124460000Y-116840000D02*
X130810000Y-116840000D01*
X130810000Y-142240000D02*
X124460000Y-142240000D01*
X143510000Y-142240000D02*
X137160000Y-142240000D01*
X143510000Y-130810000D02*
X143510000Y-137160000D01*
X143510000Y-120650000D02*
X143510000Y-125730000D01*
X143636358Y-114554000D02*
X143638943Y-114556585D01*
X142748000Y-114554000D02*
X143636358Y-114554000D01*
D19*
X134493000Y-109573017D02*
X135390346Y-110470363D01*
X134493000Y-107315000D02*
X134493000Y-109573017D01*
X135390346Y-110470363D02*
X135733245Y-110813262D01*
X133077781Y-110458318D02*
X133420680Y-110801217D01*
X130556000Y-108585000D02*
X131204463Y-108585000D01*
X131204463Y-108585000D02*
X133077781Y-110458318D01*
X153853168Y-75562161D02*
X154196067Y-75905060D01*
X149922000Y-73659000D02*
X151950007Y-73659000D01*
X151950007Y-73659000D02*
X153853168Y-75562161D01*
X149009023Y-48296175D02*
X148666124Y-47953276D01*
X149567376Y-49112516D02*
X149567376Y-48854528D01*
X149567376Y-48854528D02*
X149009023Y-48296175D01*
D20*
X149860000Y-90043000D02*
X152654000Y-87249000D01*
X152654000Y-87249000D02*
X152781000Y-87249000D01*
X152654000Y-89789000D02*
X150368000Y-92075000D01*
X152400000Y-101727000D02*
X151130000Y-100457000D01*
X151130000Y-100457000D02*
X150495000Y-100457000D01*
D19*
X147468121Y-104880879D02*
X147559217Y-104880879D01*
X145034000Y-107315000D02*
X147468121Y-104880879D01*
X138303000Y-99949000D02*
X140207667Y-99949000D01*
X140207667Y-99949000D02*
X140300861Y-99855806D01*
X140863811Y-95329422D02*
X140815142Y-95378091D01*
X142333689Y-95329422D02*
X140863811Y-95329422D01*
X127316000Y-71591327D02*
X127284595Y-71559922D01*
X127316000Y-73913000D02*
X127316000Y-71591327D01*
X156780000Y-82866500D02*
X157478409Y-82866500D01*
X158432662Y-81912247D02*
X158775561Y-81569348D01*
X157478409Y-82866500D02*
X158432662Y-81912247D01*
X154619247Y-66732472D02*
X154619247Y-67217405D01*
X154619247Y-65346501D02*
X154619247Y-66732472D01*
X154413938Y-65141192D02*
X154619247Y-65346501D01*
X118110000Y-81534000D02*
X118110000Y-73537145D01*
X118110000Y-73537145D02*
X117940927Y-73368072D01*
X162622000Y-50672000D02*
X161975884Y-50672000D01*
X161975884Y-50672000D02*
X160707693Y-51940191D01*
X160707693Y-51940191D02*
X160707693Y-53075693D01*
X160707693Y-53075693D02*
X162989600Y-55357600D01*
D20*
X171069000Y-69085847D02*
X171147900Y-69006947D01*
X171069000Y-74002900D02*
X171069000Y-69085847D01*
X171221400Y-63736129D02*
X171205863Y-63751666D01*
X171221400Y-59651900D02*
X171221400Y-63736129D01*
X126238000Y-44704000D02*
X126688940Y-45154940D01*
X126688940Y-45154940D02*
X126688940Y-48395079D01*
X124968000Y-44704000D02*
X126238000Y-44704000D01*
X113284000Y-59944000D02*
X113284000Y-50800000D01*
X113284000Y-81534000D02*
X113284000Y-73406000D01*
X113284000Y-99568000D02*
X113284000Y-91694000D01*
X113284000Y-113030000D02*
X113284000Y-106426000D01*
X143510000Y-112776000D02*
X118110000Y-112776000D01*
X118110000Y-112776000D02*
X117856000Y-113030000D01*
X148844000Y-112776000D02*
X143510000Y-112776000D01*
X160858200Y-112750600D02*
X155727400Y-112750600D01*
X155727400Y-112750600D02*
X155702000Y-112776000D01*
X171081700Y-110035133D02*
X168691767Y-110035133D01*
X168691767Y-110035133D02*
X165963600Y-112763300D01*
X171069000Y-109537500D02*
X171069000Y-110022433D01*
X171069000Y-110022433D02*
X171081700Y-110035133D01*
X171030900Y-99352100D02*
X171030900Y-104444800D01*
X171030900Y-104444800D02*
X171043600Y-104457500D01*
X171043600Y-89230200D02*
X171043600Y-94284800D01*
X171056300Y-79108300D02*
X171056300Y-84124800D01*
X171056300Y-84124800D02*
X171043600Y-84137500D01*
X168833800Y-44500800D02*
X170713400Y-44500800D01*
X170713400Y-44500800D02*
X170751500Y-44538900D01*
D19*
X131634000Y-46730305D02*
X133270538Y-45093767D01*
X133270538Y-45093767D02*
X133270538Y-44630494D01*
X152970000Y-46481000D02*
X154109223Y-47620223D01*
X154109223Y-47620223D02*
X154109223Y-47987981D01*
X149475860Y-49021000D02*
X149567376Y-49112516D01*
X133300693Y-44615110D02*
X138297813Y-44615110D01*
X138297813Y-44615110D02*
X138329578Y-44646875D01*
X163051091Y-51101091D02*
X163051091Y-51561000D01*
X162622000Y-50672000D02*
X163051091Y-51101091D01*
X163207267Y-47587823D02*
X162010661Y-48784429D01*
X162010661Y-48784429D02*
X161667762Y-49127328D01*
X164151284Y-47587823D02*
X163207267Y-47587823D01*
X117983000Y-91694000D02*
X117983000Y-101854000D01*
X128778000Y-102870000D02*
X130556000Y-101092000D01*
X130556000Y-101092000D02*
X130556000Y-97155000D01*
X137922000Y-106680000D02*
X137287000Y-107315000D01*
X137287000Y-107315000D02*
X134493000Y-107315000D01*
X141732000Y-108585000D02*
X142621000Y-108585000D01*
X142621000Y-108585000D02*
X143256000Y-109220000D01*
X140081000Y-103505000D02*
X140589000Y-103505000D01*
X140589000Y-103505000D02*
X141859000Y-104775000D01*
X136652000Y-102616000D02*
X136652000Y-101600000D01*
X136652000Y-101600000D02*
X138303000Y-99949000D01*
X136652000Y-102616000D02*
X134797800Y-100761800D01*
X134797800Y-100761800D02*
X134797800Y-99847400D01*
X141732000Y-102362000D02*
X141732000Y-98044000D01*
D21*
X165416000Y-77469000D02*
X166940000Y-78993000D01*
X165162000Y-73913000D02*
X166178000Y-73913000D01*
X166178000Y-73913000D02*
X166940000Y-73151000D01*
D19*
X166940000Y-99313000D02*
X166940000Y-109219000D01*
X166940000Y-73151000D02*
X166940000Y-78993000D01*
X162368000Y-71373000D02*
X162368000Y-69849000D01*
X139762000Y-78231000D02*
X139762000Y-73659000D01*
X128078000Y-74421000D02*
X129856000Y-74421000D01*
X129856000Y-74421000D02*
X130364000Y-74929000D01*
X166940000Y-66372000D02*
X166940000Y-65531000D01*
X166940000Y-65531000D02*
X167194000Y-65277000D01*
X166940000Y-66372000D02*
X166940000Y-67309000D01*
X166940000Y-67309000D02*
X167194000Y-67563000D01*
X166940000Y-66372000D02*
X168131000Y-66372000D01*
X168131000Y-66372000D02*
X168210000Y-66293000D01*
X128953574Y-87421573D02*
X128953574Y-87138731D01*
X128953574Y-89012574D02*
X128953574Y-87421573D01*
X131380000Y-91439000D02*
X128953574Y-89012574D01*
X130110000Y-82041000D02*
X130110000Y-80263000D01*
X130110000Y-80263000D02*
X129856000Y-80009000D01*
X130110000Y-85597000D02*
X130110000Y-84835000D01*
X128078000Y-74421000D02*
X127824000Y-74421000D01*
X127824000Y-74421000D02*
X127316000Y-73913000D01*
D21*
X166940000Y-63372000D02*
X167240000Y-63372000D01*
X166940000Y-63372000D02*
X163100800Y-63372000D01*
X163100800Y-63372000D02*
X162215600Y-62486800D01*
X155764000Y-101853000D02*
X159367000Y-101853000D01*
X159367000Y-101853000D02*
X162241000Y-104727000D01*
X121474000Y-82422000D02*
X121982000Y-82422000D01*
D19*
X116574128Y-56073196D02*
X116572283Y-56071351D01*
X116572283Y-56071351D02*
X116572283Y-53755898D01*
X116572283Y-53755898D02*
X116383151Y-53566766D01*
X159630077Y-52026218D02*
X158985400Y-52670895D01*
X158985400Y-55971422D02*
X158631608Y-56325214D01*
X158631608Y-56325214D02*
X158288709Y-56668113D01*
X158985400Y-52670895D02*
X158985400Y-55971422D01*
X158728932Y-48996255D02*
X158243999Y-48996255D01*
X159308168Y-48996255D02*
X158728932Y-48996255D01*
X159332913Y-49021000D02*
X159308168Y-48996255D01*
X150736851Y-48449510D02*
X150736851Y-47964577D01*
X150736851Y-49423729D02*
X150736851Y-48449510D01*
X149692361Y-50468219D02*
X150736851Y-49423729D01*
X144821412Y-46636844D02*
X144336479Y-46636844D01*
X149627120Y-46998444D02*
X149284221Y-46655545D01*
X148353355Y-46655545D02*
X147425974Y-47582926D01*
X145156383Y-46636844D02*
X144821412Y-46636844D01*
X149284221Y-46655545D02*
X148353355Y-46655545D01*
X147425974Y-47582926D02*
X146102465Y-47582926D01*
X146102465Y-47582926D02*
X145156383Y-46636844D01*
X150659611Y-59129994D02*
X151267753Y-59738136D01*
X152492816Y-56308666D02*
X152149668Y-56651814D01*
X152065206Y-55247548D02*
X152492816Y-55675158D01*
X152492816Y-55675158D02*
X152492816Y-56308666D01*
X152149668Y-56651814D02*
X151516160Y-56651814D01*
X150659611Y-56834727D02*
X150659611Y-59129994D01*
X150298551Y-55247548D02*
X152065206Y-55247548D01*
X151280065Y-56415719D02*
X151078619Y-56415719D01*
X151267753Y-59738136D02*
X151610652Y-60081035D01*
X151078619Y-56415719D02*
X150659611Y-56834727D01*
X151516160Y-56651814D02*
X151280065Y-56415719D01*
X152069302Y-52464732D02*
X151789858Y-52185288D01*
X151789858Y-52185288D02*
X151446959Y-51842389D01*
X152069302Y-53476797D02*
X152069302Y-52464732D01*
X150298551Y-55247548D02*
X152069302Y-53476797D01*
X116267000Y-53450615D02*
X116383151Y-53566766D01*
X116267000Y-51180000D02*
X116267000Y-53450615D01*
X116971260Y-60967428D02*
X116971260Y-60482495D01*
X116574128Y-56073196D02*
X116971260Y-56470328D01*
X116971260Y-56470328D02*
X116971260Y-59997562D01*
X116971260Y-59997562D02*
X116971260Y-60482495D01*
X116585609Y-63098114D02*
X116971260Y-62712463D01*
X116971260Y-62712463D02*
X116971260Y-60967428D01*
X116471698Y-65976908D02*
X116471698Y-63212025D01*
X116471698Y-63212025D02*
X116585609Y-63098114D01*
X134682000Y-73532000D02*
X134682000Y-70995709D01*
X134682000Y-70995709D02*
X134460934Y-70774643D01*
X151573000Y-64134000D02*
X151573000Y-60118687D01*
X151573000Y-60118687D02*
X151610652Y-60081035D01*
X120933686Y-69314405D02*
X120933688Y-69314403D01*
X118081090Y-69314405D02*
X120933686Y-69314405D01*
X159630077Y-51541285D02*
X159630077Y-52026218D01*
X159332913Y-49021000D02*
X159630077Y-49318164D01*
X159630077Y-49318164D02*
X159630077Y-51541285D01*
X160272500Y-48081413D02*
X159332913Y-49021000D01*
X160272500Y-46481000D02*
X160272500Y-48081413D01*
X124506720Y-46481000D02*
X124543820Y-46443900D01*
X122236000Y-46481000D02*
X124506720Y-46481000D01*
X117856771Y-49590229D02*
X117944533Y-49590229D01*
X116267000Y-51180000D02*
X117856771Y-49590229D01*
D20*
X157264589Y-66937422D02*
X157168451Y-66841284D01*
X157168451Y-65337112D02*
X157196889Y-65308674D01*
X142951699Y-91985831D02*
X157264589Y-77672941D01*
X136578069Y-98744450D02*
X142951699Y-92370820D01*
X157264589Y-77672941D02*
X157264589Y-66937422D01*
X142951699Y-92370820D02*
X142951699Y-91985831D01*
X157168451Y-66841284D02*
X157168451Y-65337112D01*
X157196889Y-65308674D02*
X157196889Y-64823741D01*
X169838141Y-49843799D02*
X170181040Y-49500900D01*
X169687000Y-51457600D02*
X169687000Y-49994940D01*
X169687000Y-49994940D02*
X169838141Y-49843799D01*
X156651813Y-65180135D02*
X156587788Y-65116110D01*
X156679899Y-61997564D02*
X156679899Y-57670699D01*
X141316190Y-91027810D02*
X155465416Y-76878584D01*
X156587788Y-65116110D02*
X156587788Y-63843759D01*
X155465416Y-76878584D02*
X155465416Y-76829726D01*
X141316190Y-91621591D02*
X141316190Y-91027810D01*
X140584799Y-92352982D02*
X141316190Y-91621591D01*
X139991018Y-92352982D02*
X140584799Y-92352982D01*
X157018195Y-62335860D02*
X156679899Y-61997564D01*
X157018195Y-63413352D02*
X157018195Y-62335860D01*
X156587788Y-63843759D02*
X157018195Y-63413352D01*
X137349000Y-94995000D02*
X139991018Y-92352982D01*
X155465416Y-76829726D02*
X156651813Y-75643329D01*
X156651813Y-75643329D02*
X156651813Y-65180135D01*
X156679899Y-57670699D02*
X156337000Y-57327800D01*
X169189400Y-57338818D02*
X169532299Y-56995919D01*
X169532299Y-56995919D02*
X169532299Y-55687139D01*
X147603135Y-74998580D02*
X149615822Y-72985893D01*
X144698720Y-76329540D02*
X146029680Y-74998580D01*
X146029680Y-74998580D02*
X147603135Y-74998580D01*
X136206000Y-86395715D02*
X144698720Y-77902995D01*
X144698720Y-77902995D02*
X144698720Y-76329540D01*
X160186939Y-65200447D02*
X160038751Y-65348635D01*
X160186939Y-59703053D02*
X160186939Y-65200447D01*
X161965694Y-57924298D02*
X160186939Y-59703053D01*
X168417000Y-51457600D02*
X168417000Y-52810000D01*
X168417000Y-52810000D02*
X167997483Y-53229517D01*
X167997483Y-53229517D02*
X167967376Y-53229517D01*
X152878412Y-72985893D02*
X153161254Y-72985893D01*
X149615822Y-72985893D02*
X152878412Y-72985893D01*
X136206000Y-91312000D02*
X136206000Y-86395715D01*
X140308091Y-90216923D02*
X140941804Y-90216923D01*
X140941804Y-90216923D02*
X151875167Y-79283560D01*
X156281002Y-65293566D02*
X156245377Y-65257941D01*
X151875167Y-79283560D02*
X152560020Y-79283560D01*
X152560020Y-79283560D02*
X153871607Y-77971973D01*
X153871607Y-77971973D02*
X153871607Y-77287120D01*
X153871607Y-77287120D02*
X154308108Y-76850619D01*
X155445549Y-63058328D02*
X155445549Y-62364110D01*
X155445549Y-62364110D02*
X155788448Y-62021211D01*
X154308108Y-76850619D02*
X154597137Y-76850619D01*
X156245377Y-65257941D02*
X156245377Y-63858156D01*
X154597137Y-76850619D02*
X156281002Y-75166754D01*
X156245377Y-63858156D02*
X155445549Y-63058328D01*
X156281002Y-75166754D02*
X156281002Y-65293566D01*
X168417000Y-54163572D02*
X169019100Y-53561472D01*
X169019100Y-53561472D02*
X169430363Y-53561472D01*
X168417000Y-55357600D02*
X168417000Y-54163572D01*
X169926000Y-58978800D02*
X169354499Y-59550301D01*
X169926000Y-57277000D02*
X169926000Y-58978800D01*
X170434000Y-56769000D02*
X169926000Y-57277000D01*
X170434000Y-53609997D02*
X170434000Y-56769000D01*
X169749552Y-52925549D02*
X170434000Y-53609997D01*
X169354499Y-59550301D02*
X169011600Y-59893200D01*
X169170781Y-52925549D02*
X169749552Y-52925549D01*
X168257703Y-53838627D02*
X169170781Y-52925549D01*
X167656027Y-53838627D02*
X168257703Y-53838627D01*
X167081200Y-53263800D02*
X167656027Y-53838627D01*
X157632400Y-78079600D02*
X157632400Y-67179000D01*
X143713200Y-92227400D02*
X144056099Y-91884501D01*
X157777552Y-67033848D02*
X157777552Y-66548915D01*
X157632400Y-67179000D02*
X157777552Y-67033848D01*
X144056099Y-91655901D02*
X157632400Y-78079600D01*
X144056099Y-91884501D02*
X144056099Y-91655901D01*
X167081200Y-53263800D02*
X167147000Y-53198000D01*
X167147000Y-53198000D02*
X167147000Y-51800010D01*
X167147000Y-51457600D02*
X167147000Y-50632600D01*
X158975975Y-66165137D02*
X158516700Y-65705862D01*
X158399784Y-81052241D02*
X158466022Y-80986003D01*
X158975975Y-80566814D02*
X158975975Y-66165137D01*
X158516700Y-65186057D02*
X158516700Y-64701124D01*
X158556786Y-80986003D02*
X158975975Y-80566814D01*
X157281382Y-81052241D02*
X158399784Y-81052241D01*
X158516700Y-65705862D02*
X158516700Y-65186057D01*
X158466022Y-80986003D02*
X158556786Y-80986003D01*
X146665414Y-91668209D02*
X157281382Y-81052241D01*
X167576053Y-59623804D02*
X167870819Y-59918570D01*
X167576053Y-57997521D02*
X167576053Y-59623804D01*
X167870819Y-59918570D02*
X168213718Y-60261469D01*
X167147000Y-55357600D02*
X167147000Y-57568468D01*
X167147000Y-57568468D02*
X167576053Y-57997521D01*
X170953061Y-57340501D02*
X170610162Y-57683400D01*
X170953061Y-52382789D02*
X170953061Y-57340501D01*
X170446191Y-51875919D02*
X170953061Y-52382789D01*
X170838307Y-49208530D02*
X170838307Y-49793270D01*
X170521575Y-48891798D02*
X170838307Y-49208530D01*
X169912752Y-48891798D02*
X170521575Y-48891798D01*
X166924412Y-49585188D02*
X169219362Y-49585188D01*
X165877000Y-50632600D02*
X166924412Y-49585188D01*
X165877000Y-51457600D02*
X165877000Y-50632600D01*
X170446191Y-50185386D02*
X170446191Y-51875919D01*
X170838307Y-49793270D02*
X170446191Y-50185386D01*
X169219362Y-49585188D02*
X169912752Y-48891798D01*
X159087238Y-65782836D02*
X159087239Y-64914433D01*
X159196709Y-82444593D02*
X159513441Y-82127861D01*
X159513441Y-81543123D02*
X159445746Y-81475428D01*
X159445746Y-61764677D02*
X159234068Y-61552999D01*
X159087239Y-64914433D02*
X159445746Y-64555926D01*
X159445746Y-66141343D02*
X159087238Y-65782836D01*
X159445746Y-81475428D02*
X159445746Y-66141343D01*
X159234068Y-61552999D02*
X159234068Y-61068066D01*
X158865414Y-82444593D02*
X159196709Y-82444593D01*
X145856205Y-95453802D02*
X158865414Y-82444593D01*
X145371272Y-95453802D02*
X145856205Y-95453802D01*
X159513441Y-82127861D02*
X159513441Y-81543123D01*
X159445746Y-64555926D02*
X159445746Y-61764677D01*
X165877000Y-52983907D02*
X166108402Y-53215309D01*
X165877000Y-51457600D02*
X165877000Y-52983907D01*
X159429649Y-65641005D02*
X159429649Y-65094221D01*
X160033189Y-83478932D02*
X160033189Y-66244543D01*
X159843178Y-60228736D02*
X159753240Y-60138798D01*
X159753240Y-60138798D02*
X159410341Y-59795899D01*
X159843178Y-64680692D02*
X159843178Y-60228736D01*
X145355321Y-98156800D02*
X160033189Y-83478932D01*
X160033189Y-66244543D02*
X159429649Y-65641005D01*
X159429649Y-65094221D02*
X159843178Y-64680692D01*
X165877000Y-55357600D02*
X165877000Y-56696034D01*
X165877000Y-56696034D02*
X164938818Y-57634216D01*
X164938818Y-57634216D02*
X164423252Y-57634216D01*
X165877000Y-55357600D02*
X165877000Y-54532600D01*
X160324195Y-58346656D02*
X159410341Y-59260510D01*
X159410341Y-59310966D02*
X159410341Y-59795899D01*
X159410341Y-59260510D02*
X159410341Y-59310966D01*
D19*
X149086354Y-55485246D02*
X144324450Y-55485246D01*
X151409400Y-53162200D02*
X149086354Y-55485246D01*
X144324450Y-55485246D02*
X143839517Y-55485246D01*
X155666456Y-55934036D02*
X157194407Y-54406085D01*
X151319521Y-57281744D02*
X152516907Y-57281744D01*
X155453900Y-56674101D02*
X155666456Y-56461545D01*
X152516907Y-57281744D02*
X153124550Y-56674101D01*
X157194407Y-54406085D02*
X157194407Y-53921152D01*
X155666456Y-56461545D02*
X155666456Y-55934036D01*
X153124550Y-56674101D02*
X155453900Y-56674101D01*
X142595600Y-62509400D02*
X141757400Y-61671200D01*
X141757400Y-61671200D02*
X141757400Y-58290622D01*
X141757400Y-58290622D02*
X141757400Y-57805689D01*
X151803984Y-48347748D02*
X151803984Y-48832681D01*
X144847193Y-48026937D02*
X147609889Y-48026937D01*
X151803984Y-48056298D02*
X151803984Y-48347748D01*
X144336479Y-47516223D02*
X144847193Y-48026937D01*
X151052362Y-47304676D02*
X151803984Y-48056298D01*
X150062285Y-47662489D02*
X150420098Y-47304676D01*
X148349370Y-47287456D02*
X148952627Y-47287456D01*
X147609889Y-48026937D02*
X148349370Y-47287456D01*
X148952627Y-47287456D02*
X149327660Y-47662489D01*
X150420098Y-47304676D02*
X151052362Y-47304676D01*
X149327660Y-47662489D02*
X150062285Y-47662489D01*
D20*
X149707600Y-57962800D02*
X148941387Y-57196587D01*
X141481145Y-57196587D02*
X140872543Y-57805189D01*
X140872543Y-57805189D02*
X140529644Y-58148088D01*
X148941387Y-57196587D02*
X141481145Y-57196587D01*
X144577991Y-56336268D02*
X142913100Y-56336268D01*
X142494000Y-55818833D02*
X142913100Y-56237933D01*
X142913100Y-56237933D02*
X142913100Y-56336268D01*
X142494000Y-55333900D02*
X142494000Y-55818833D01*
X138290300Y-56336268D02*
X137793546Y-56336268D01*
X138290300Y-56336268D02*
X138290300Y-56159400D01*
X138290300Y-56159400D02*
X139052300Y-55397400D01*
X144922347Y-55991912D02*
X144577991Y-56336268D01*
X151832914Y-55991912D02*
X144922347Y-55991912D01*
X137793546Y-56336268D02*
X137450647Y-55993369D01*
X137110732Y-65601278D02*
X137110732Y-71677699D01*
X138095948Y-64616062D02*
X137110732Y-65601278D01*
X137110732Y-71677699D02*
X137110732Y-72162632D01*
X150049000Y-66803717D02*
X149991594Y-66861123D01*
X150049000Y-64515000D02*
X150049000Y-66803717D01*
X138606368Y-70261679D02*
X140436102Y-68431945D01*
X138949267Y-62380737D02*
X137922499Y-61353969D01*
X140436102Y-68431945D02*
X140436102Y-67474830D01*
X135443537Y-58665481D02*
X135443537Y-55203694D01*
X140436102Y-67474830D02*
X138949267Y-65987995D01*
X135443537Y-55203694D02*
X136968134Y-53679097D01*
X138949267Y-65987995D02*
X138949267Y-62380737D01*
X137922499Y-61353969D02*
X137922499Y-61144443D01*
X137922499Y-61144443D02*
X135443537Y-58665481D01*
X136968134Y-53679097D02*
X137311033Y-53336198D01*
X148145978Y-50799501D02*
X148512879Y-50432600D01*
X145935431Y-50774101D02*
X145960831Y-50799501D01*
X142565673Y-50757143D02*
X142582631Y-50774101D01*
X139272727Y-50757143D02*
X142565673Y-50757143D01*
X142582631Y-50774101D02*
X145935431Y-50774101D01*
X139255769Y-50774101D02*
X139272727Y-50757143D01*
X145960831Y-50799501D02*
X148145978Y-50799501D01*
X138671031Y-50774101D02*
X139255769Y-50774101D01*
X138654073Y-50757143D02*
X138671031Y-50774101D01*
X136835536Y-50757143D02*
X138654073Y-50757143D01*
X148512879Y-50432600D02*
X148855778Y-50089701D01*
X147122037Y-61968421D02*
X147122037Y-66819189D01*
X147122037Y-66819189D02*
X147384738Y-67081890D01*
X157114565Y-61947988D02*
X157114565Y-56418542D01*
X157114565Y-56418542D02*
X156771666Y-56075643D01*
X157627297Y-62460720D02*
X157114565Y-61947988D01*
X157627297Y-63120982D02*
X157627297Y-62460720D01*
X141667000Y-46354000D02*
X142000194Y-46020806D01*
X145743718Y-46020806D02*
X146139860Y-46416948D01*
X142000194Y-46020806D02*
X145743718Y-46020806D01*
X146139860Y-46416948D02*
X146482759Y-46759847D01*
X139990121Y-46354000D02*
X139957312Y-46386809D01*
X139957312Y-46386809D02*
X139614413Y-46729708D01*
X141667000Y-46354000D02*
X139990121Y-46354000D01*
X130506107Y-69816612D02*
X130849006Y-70159511D01*
X130491000Y-69801505D02*
X130506107Y-69816612D01*
X130491000Y-57149000D02*
X130491000Y-69801505D01*
X141667000Y-46354000D02*
X141460774Y-46354000D01*
X154457400Y-52381467D02*
X155491481Y-52381467D01*
X153781760Y-51567080D02*
X154457400Y-52242720D01*
X154457400Y-52242720D02*
X154457400Y-52381467D01*
X151739329Y-51233287D02*
X152073122Y-51567080D01*
X152073122Y-51567080D02*
X153781760Y-51567080D01*
X136776395Y-56207595D02*
X137515600Y-56946800D01*
X136776395Y-55740948D02*
X136776395Y-56207595D01*
X137744699Y-52908469D02*
X138061431Y-53225201D01*
X138150600Y-57302400D02*
X138150600Y-59766200D01*
X137795000Y-56946800D02*
X138150600Y-57302400D01*
X136906940Y-52686145D02*
X137673868Y-52686145D01*
X137744699Y-52756976D02*
X137744699Y-52908469D01*
X138061431Y-53225201D02*
X138061431Y-54455912D01*
X136733090Y-52859995D02*
X136906940Y-52686145D01*
X138061431Y-54455912D02*
X136776395Y-55740948D01*
X137515600Y-56946800D02*
X137795000Y-56946800D01*
X142519400Y-64135000D02*
X142519400Y-66571067D01*
X138150600Y-59766200D02*
X142519400Y-64135000D01*
X137673868Y-52686145D02*
X137744699Y-52756976D01*
X142519400Y-66571067D02*
X142519400Y-67056000D01*
X155491481Y-52381467D02*
X156793302Y-51079646D01*
X136733090Y-52859995D02*
X138359798Y-51233287D01*
X138359798Y-51233287D02*
X151739329Y-51233287D01*
X156793302Y-51079646D02*
X157136201Y-50736747D01*
X136390191Y-53202894D02*
X136733090Y-52859995D01*
D19*
G36*
X171631500Y-113873000D02*
X171579716Y-113873000D01*
X171470645Y-113827710D01*
X171182660Y-113827459D01*
X171072442Y-113873000D01*
X170686173Y-113873000D01*
X170577102Y-113827710D01*
X170289117Y-113827459D01*
X170178899Y-113873000D01*
X169800334Y-113873000D01*
X169691263Y-113827710D01*
X169403278Y-113827459D01*
X169293060Y-113873000D01*
X168906791Y-113873000D01*
X168797720Y-113827710D01*
X168509735Y-113827459D01*
X168399517Y-113873000D01*
X168378237Y-113873000D01*
X168303965Y-113761844D01*
X168178154Y-113636034D01*
X168178153Y-113636033D01*
X167930946Y-113470854D01*
X167766567Y-113402766D01*
X167474961Y-113344762D01*
X167430050Y-113344762D01*
X167386000Y-113336000D01*
X145288000Y-113336000D01*
X145243950Y-113344762D01*
X145199039Y-113344762D01*
X144907434Y-113402766D01*
X144907433Y-113402766D01*
X144743054Y-113470854D01*
X144495844Y-113636035D01*
X144428841Y-113703039D01*
X144370035Y-113761845D01*
X144204854Y-114009054D01*
X144136766Y-114173433D01*
X144078762Y-114465038D01*
X144078762Y-114642961D01*
X144136766Y-114934566D01*
X144136766Y-114934567D01*
X144204854Y-115098946D01*
X144370033Y-115346153D01*
X144370034Y-115346154D01*
X144495844Y-115471965D01*
X144743054Y-115637146D01*
X144907433Y-115705234D01*
X144907434Y-115705234D01*
X145199039Y-115763238D01*
X145243950Y-115763238D01*
X145288000Y-115772000D01*
X167386000Y-115772000D01*
X167430050Y-115763238D01*
X167474961Y-115763238D01*
X167766567Y-115705234D01*
X167930946Y-115637146D01*
X168178155Y-115471965D01*
X168303965Y-115346156D01*
X168383583Y-115227000D01*
X168392253Y-115227000D01*
X168508472Y-115275258D01*
X168796457Y-115275509D01*
X168913858Y-115227000D01*
X169285796Y-115227000D01*
X169402015Y-115275258D01*
X169690000Y-115275509D01*
X169807401Y-115227000D01*
X170171635Y-115227000D01*
X170287854Y-115275258D01*
X170575839Y-115275509D01*
X170693240Y-115227000D01*
X171065178Y-115227000D01*
X171181397Y-115275258D01*
X171469382Y-115275509D01*
X171586783Y-115227000D01*
X171631500Y-115227000D01*
X171631500Y-142871500D01*
X112774500Y-142871500D01*
X112774500Y-139433000D01*
X114247000Y-139433000D01*
X114395892Y-140181529D01*
X114819899Y-140816101D01*
X115454471Y-141240108D01*
X116203000Y-141389000D01*
X116951529Y-141240108D01*
X117586101Y-140816101D01*
X118010108Y-140181529D01*
X118159000Y-139433000D01*
X166247000Y-139433000D01*
X166395892Y-140181529D01*
X166819899Y-140816101D01*
X167454471Y-141240108D01*
X168203000Y-141389000D01*
X168951529Y-141240108D01*
X169586101Y-140816101D01*
X170010108Y-140181529D01*
X170159000Y-139433000D01*
X170010108Y-138684471D01*
X169586101Y-138049899D01*
X168951529Y-137625892D01*
X168203000Y-137477000D01*
X167454471Y-137625892D01*
X166819899Y-138049899D01*
X166395892Y-138684471D01*
X166247000Y-139433000D01*
X118159000Y-139433000D01*
X118010108Y-138684471D01*
X117586101Y-138049899D01*
X116951529Y-137625892D01*
X116203000Y-137477000D01*
X115454471Y-137625892D01*
X114819899Y-138049899D01*
X114395892Y-138684471D01*
X114247000Y-139433000D01*
X112774500Y-139433000D01*
X112774500Y-115229522D01*
X112881437Y-115273926D01*
X113169422Y-115274177D01*
X113283599Y-115227000D01*
X113661710Y-115227000D01*
X113774721Y-115273926D01*
X114062706Y-115274177D01*
X114176883Y-115227000D01*
X114545971Y-115227000D01*
X114658982Y-115273926D01*
X114946967Y-115274177D01*
X115061144Y-115227000D01*
X115439254Y-115227000D01*
X115552265Y-115273926D01*
X115840250Y-115274177D01*
X115954427Y-115227000D01*
X116350418Y-115227000D01*
X116430033Y-115346153D01*
X116430034Y-115346154D01*
X116555844Y-115471965D01*
X116803054Y-115637146D01*
X116967433Y-115705234D01*
X116967434Y-115705234D01*
X117259039Y-115763238D01*
X117303950Y-115763238D01*
X117348000Y-115772000D01*
X141224000Y-115772000D01*
X141268050Y-115763238D01*
X141312961Y-115763238D01*
X141604567Y-115705234D01*
X141768946Y-115637146D01*
X142016155Y-115471965D01*
X142141965Y-115346156D01*
X142307146Y-115098946D01*
X142375234Y-114934567D01*
X142375234Y-114934566D01*
X142433238Y-114642961D01*
X142433238Y-114465038D01*
X142375234Y-114173434D01*
X142362199Y-114141963D01*
X142307146Y-114009054D01*
X142141965Y-113761844D01*
X142016154Y-113636034D01*
X142016153Y-113636033D01*
X141768946Y-113470854D01*
X141604567Y-113402766D01*
X141312961Y-113344762D01*
X141268050Y-113344762D01*
X141224000Y-113336000D01*
X117348000Y-113336000D01*
X117303950Y-113344762D01*
X117259039Y-113344762D01*
X116967434Y-113402766D01*
X116967433Y-113402766D01*
X116803054Y-113470854D01*
X116555844Y-113636035D01*
X116488841Y-113703039D01*
X116430035Y-113761845D01*
X116288945Y-113973000D01*
X116143601Y-113973000D01*
X116107481Y-113936817D01*
X115841513Y-113826378D01*
X115553528Y-113826127D01*
X115287368Y-113936102D01*
X115250405Y-113973000D01*
X115250318Y-113973000D01*
X115214198Y-113936817D01*
X114948230Y-113826378D01*
X114660245Y-113826127D01*
X114394085Y-113936102D01*
X114361597Y-113968533D01*
X114329937Y-113936817D01*
X114063969Y-113826378D01*
X113775984Y-113826127D01*
X113509824Y-113936102D01*
X113472861Y-113973000D01*
X113472773Y-113973000D01*
X113436653Y-113936817D01*
X113170685Y-113826378D01*
X112882700Y-113826127D01*
X112774500Y-113870834D01*
X112774500Y-71119000D01*
X117918000Y-71119000D01*
X117918000Y-111759000D01*
X117944056Y-111897477D01*
X118025896Y-112024660D01*
X118150770Y-112109983D01*
X118299000Y-112140000D01*
X122490789Y-112140000D01*
X122628163Y-112114372D01*
X122755600Y-112032927D01*
X122841310Y-111908320D01*
X122871787Y-111760183D01*
X122872976Y-111377191D01*
X123169995Y-111254466D01*
X123634834Y-110790437D01*
X123886713Y-110183845D01*
X123887286Y-109527037D01*
X123818144Y-109359700D01*
X148804300Y-109359700D01*
X148953192Y-110108229D01*
X149377199Y-110742801D01*
X150011771Y-111166808D01*
X150760300Y-111315700D01*
X151508829Y-111166808D01*
X152143401Y-110742801D01*
X152567408Y-110108229D01*
X152716300Y-109359700D01*
X152567408Y-108611171D01*
X152143401Y-107976599D01*
X151508829Y-107552592D01*
X150760300Y-107403700D01*
X150011771Y-107552592D01*
X149377199Y-107976599D01*
X148953192Y-108611171D01*
X148804300Y-109359700D01*
X123818144Y-109359700D01*
X123636466Y-108920005D01*
X123172437Y-108455166D01*
X122882425Y-108334742D01*
X122888524Y-106370767D01*
X123169995Y-106254466D01*
X123634834Y-105790437D01*
X123886713Y-105183845D01*
X123887286Y-104527037D01*
X123636466Y-103920005D01*
X123172437Y-103455166D01*
X122897933Y-103341182D01*
X122904072Y-101364343D01*
X123169995Y-101254466D01*
X123634834Y-100790437D01*
X123886713Y-100183845D01*
X123887286Y-99527037D01*
X123636466Y-98920005D01*
X123172437Y-98455166D01*
X122913441Y-98347621D01*
X122919620Y-96357919D01*
X123169995Y-96254466D01*
X123634834Y-95790437D01*
X123886713Y-95183845D01*
X123887286Y-94527037D01*
X123636466Y-93920005D01*
X123172437Y-93455166D01*
X122928949Y-93354061D01*
X122934845Y-91455361D01*
X135481975Y-91455361D01*
X135591950Y-91721521D01*
X135795408Y-91925335D01*
X136061376Y-92035774D01*
X136349361Y-92036025D01*
X136615521Y-91926050D01*
X136819335Y-91722592D01*
X136929774Y-91456624D01*
X136930025Y-91168639D01*
X136820050Y-90902479D01*
X136663200Y-90745355D01*
X136663200Y-86585093D01*
X145022009Y-78226284D01*
X145121118Y-78077958D01*
X145155920Y-77902995D01*
X145155920Y-76520800D01*
X145386696Y-76520800D01*
X145386696Y-78520800D01*
X145413263Y-78661990D01*
X145496706Y-78791665D01*
X145624026Y-78878659D01*
X145775160Y-78909264D01*
X147775160Y-78909264D01*
X147916350Y-78882697D01*
X148046025Y-78799254D01*
X148133019Y-78671934D01*
X148163624Y-78520800D01*
X148163624Y-77256261D01*
X150129252Y-77256261D01*
X150153304Y-77906260D01*
X150355773Y-78395064D01*
X150622628Y-78493727D01*
X151595555Y-77520800D01*
X150622628Y-76547873D01*
X150355773Y-76646536D01*
X150129252Y-77256261D01*
X148163624Y-77256261D01*
X148163624Y-76520800D01*
X148137057Y-76379610D01*
X148129759Y-76368268D01*
X150802233Y-76368268D01*
X151775160Y-77341195D01*
X152748087Y-76368268D01*
X152649424Y-76101413D01*
X152039699Y-75874892D01*
X151389700Y-75898944D01*
X150900896Y-76101413D01*
X150802233Y-76368268D01*
X148129759Y-76368268D01*
X148053614Y-76249935D01*
X147926294Y-76162941D01*
X147775160Y-76132336D01*
X145775160Y-76132336D01*
X145633970Y-76158903D01*
X145504295Y-76242346D01*
X145417301Y-76369666D01*
X145386696Y-76520800D01*
X145155920Y-76520800D01*
X145155920Y-76518918D01*
X146219058Y-75455780D01*
X147603135Y-75455780D01*
X147778098Y-75420978D01*
X147926424Y-75321869D01*
X149805200Y-73443093D01*
X152594800Y-73443093D01*
X152750662Y-73599228D01*
X153016630Y-73709667D01*
X153304615Y-73709918D01*
X153570775Y-73599943D01*
X153774589Y-73396485D01*
X153885028Y-73130517D01*
X153885279Y-72842532D01*
X153775304Y-72576372D01*
X153571846Y-72372558D01*
X153305878Y-72262119D01*
X153017893Y-72261868D01*
X152751733Y-72371843D01*
X152594609Y-72528693D01*
X149615822Y-72528693D01*
X149440859Y-72563495D01*
X149292533Y-72662604D01*
X147413757Y-74541380D01*
X146029680Y-74541380D01*
X145854717Y-74576182D01*
X145706391Y-74675291D01*
X144375431Y-76006251D01*
X144276322Y-76154577D01*
X144241520Y-76329540D01*
X144241520Y-77713617D01*
X135882711Y-86072426D01*
X135783602Y-86220752D01*
X135748800Y-86395715D01*
X135748800Y-90745546D01*
X135592665Y-90901408D01*
X135482226Y-91167376D01*
X135481975Y-91455361D01*
X122934845Y-91455361D01*
X122935168Y-91351494D01*
X123169995Y-91254466D01*
X123634834Y-90790437D01*
X123886713Y-90183845D01*
X123887286Y-89527037D01*
X123636466Y-88920005D01*
X123172437Y-88455166D01*
X122944457Y-88360500D01*
X122950716Y-86345070D01*
X123169995Y-86254466D01*
X123634834Y-85790437D01*
X123886713Y-85183845D01*
X123887286Y-84527037D01*
X123636466Y-83920005D01*
X123172437Y-83455166D01*
X122959965Y-83366940D01*
X122966264Y-81338646D01*
X123169995Y-81254466D01*
X123634834Y-80790437D01*
X123886713Y-80183845D01*
X123887286Y-79527037D01*
X123636466Y-78920005D01*
X123172437Y-78455166D01*
X122975473Y-78373379D01*
X122977331Y-77774800D01*
X134543600Y-77774800D01*
X134692492Y-78523329D01*
X135116499Y-79157901D01*
X135751071Y-79581908D01*
X136499600Y-79730800D01*
X137248129Y-79581908D01*
X137882701Y-79157901D01*
X138306708Y-78523329D01*
X138455600Y-77774800D01*
X138306708Y-77026271D01*
X137882701Y-76391699D01*
X137248129Y-75967692D01*
X136499600Y-75818800D01*
X135751071Y-75967692D01*
X135116499Y-76391699D01*
X134692492Y-77026271D01*
X134543600Y-77774800D01*
X122977331Y-77774800D01*
X122981812Y-76332222D01*
X123169995Y-76254466D01*
X123634834Y-75790437D01*
X123886713Y-75183845D01*
X123887286Y-74527037D01*
X123636466Y-73920005D01*
X123225063Y-73507883D01*
X130911000Y-73507883D01*
X130911000Y-73556117D01*
X131004704Y-74027200D01*
X131271552Y-74426565D01*
X131670917Y-74693413D01*
X132142000Y-74787117D01*
X132613083Y-74693413D01*
X133012448Y-74426565D01*
X133279296Y-74027200D01*
X133373000Y-73556117D01*
X133373000Y-73507883D01*
X133279296Y-73036800D01*
X133042226Y-72682000D01*
X133443536Y-72682000D01*
X133443536Y-74382000D01*
X133470103Y-74523190D01*
X133553546Y-74652865D01*
X133680866Y-74739859D01*
X133832000Y-74770464D01*
X135532000Y-74770464D01*
X135673190Y-74743897D01*
X135802865Y-74660454D01*
X135889859Y-74533134D01*
X135920464Y-74382000D01*
X135920464Y-72682000D01*
X135893897Y-72540810D01*
X135810454Y-72411135D01*
X135683134Y-72324141D01*
X135532000Y-72293536D01*
X135190000Y-72293536D01*
X135190000Y-70995709D01*
X135178006Y-70935408D01*
X135184708Y-70919267D01*
X135184959Y-70631282D01*
X135074984Y-70365122D01*
X134871526Y-70161308D01*
X134605558Y-70050869D01*
X134317573Y-70050618D01*
X134051413Y-70160593D01*
X133847599Y-70364051D01*
X133737160Y-70630019D01*
X133736909Y-70918004D01*
X133846884Y-71184164D01*
X134050342Y-71387978D01*
X134174000Y-71439325D01*
X134174000Y-72293536D01*
X133832000Y-72293536D01*
X133690810Y-72320103D01*
X133561135Y-72403546D01*
X133474141Y-72530866D01*
X133443536Y-72682000D01*
X133042226Y-72682000D01*
X133012448Y-72637435D01*
X132613083Y-72370587D01*
X132142000Y-72276883D01*
X131670917Y-72370587D01*
X131271552Y-72637435D01*
X131004704Y-73036800D01*
X130911000Y-73507883D01*
X123225063Y-73507883D01*
X123172437Y-73455166D01*
X122990981Y-73379819D01*
X122997998Y-71120183D01*
X122971944Y-70980523D01*
X122890104Y-70853340D01*
X122765230Y-70768017D01*
X122617000Y-70738000D01*
X122595119Y-70738000D01*
X122595032Y-70737496D01*
X122517139Y-70607858D01*
X122394947Y-70518739D01*
X122247709Y-70484180D01*
X122098626Y-70509628D01*
X121971189Y-70591072D01*
X121885480Y-70715680D01*
X121880888Y-70738000D01*
X118299000Y-70738000D01*
X118160523Y-70764056D01*
X118033340Y-70845896D01*
X117948017Y-70970770D01*
X117918000Y-71119000D01*
X112774500Y-71119000D01*
X112774500Y-69457766D01*
X117357065Y-69457766D01*
X117467040Y-69723926D01*
X117670498Y-69927740D01*
X117936466Y-70038179D01*
X118224451Y-70038430D01*
X118490611Y-69928455D01*
X118596847Y-69822405D01*
X120417947Y-69822405D01*
X120523096Y-69927738D01*
X120789064Y-70038177D01*
X121077049Y-70038428D01*
X121343209Y-69928453D01*
X121547023Y-69724995D01*
X121657462Y-69459027D01*
X121657713Y-69171042D01*
X121547738Y-68904882D01*
X121344280Y-68701068D01*
X121078312Y-68590629D01*
X120790327Y-68590378D01*
X120524167Y-68700353D01*
X120417929Y-68806405D01*
X118596833Y-68806405D01*
X118491682Y-68701070D01*
X118225714Y-68590631D01*
X117937729Y-68590380D01*
X117671569Y-68700355D01*
X117467755Y-68903813D01*
X117357316Y-69169781D01*
X117357065Y-69457766D01*
X112774500Y-69457766D01*
X112774500Y-51323361D01*
X115542975Y-51323361D01*
X115652950Y-51589521D01*
X115759000Y-51695757D01*
X115759000Y-53182222D01*
X115659377Y-53422142D01*
X115659126Y-53710127D01*
X115769101Y-53976287D01*
X115972559Y-54180101D01*
X116064283Y-54218188D01*
X116064283Y-55559295D01*
X115960793Y-55662604D01*
X115850354Y-55928572D01*
X115850103Y-56216557D01*
X115960078Y-56482717D01*
X116163536Y-56686531D01*
X116429504Y-56796970D01*
X116463260Y-56796999D01*
X116463260Y-59966752D01*
X116357925Y-60071903D01*
X116247486Y-60337871D01*
X116247235Y-60625856D01*
X116357210Y-60892016D01*
X116463260Y-60998252D01*
X116463260Y-62374107D01*
X116442248Y-62374089D01*
X116176088Y-62484064D01*
X115972274Y-62687522D01*
X115861835Y-62953490D01*
X115861584Y-63241475D01*
X115963698Y-63488610D01*
X115963698Y-65461165D01*
X115858363Y-65566316D01*
X115747924Y-65832284D01*
X115747673Y-66120269D01*
X115857648Y-66386429D01*
X116061106Y-66590243D01*
X116327074Y-66700682D01*
X116615059Y-66700933D01*
X116881219Y-66590958D01*
X117085033Y-66387500D01*
X117195472Y-66121532D01*
X117195723Y-65833547D01*
X117085748Y-65567387D01*
X116979698Y-65461151D01*
X116979698Y-63718540D01*
X116995130Y-63712164D01*
X117198944Y-63508706D01*
X117309383Y-63242738D01*
X117309514Y-63092629D01*
X117330470Y-63071673D01*
X117440591Y-62906866D01*
X117479260Y-62712463D01*
X117479260Y-60998238D01*
X117584595Y-60893087D01*
X117695034Y-60627119D01*
X117695285Y-60339134D01*
X117585310Y-60072974D01*
X117479260Y-59966738D01*
X117479260Y-57292361D01*
X129766975Y-57292361D01*
X129876950Y-57558521D01*
X130033800Y-57715645D01*
X130033800Y-69801505D01*
X130068602Y-69976468D01*
X130125192Y-70061160D01*
X130124981Y-70302872D01*
X130234956Y-70569032D01*
X130438414Y-70772846D01*
X130704382Y-70883285D01*
X130992367Y-70883536D01*
X131258527Y-70773561D01*
X131462341Y-70570103D01*
X131572780Y-70304135D01*
X131573031Y-70016150D01*
X131463056Y-69749990D01*
X131259598Y-69546176D01*
X130993630Y-69435737D01*
X130948200Y-69435697D01*
X130948200Y-57715454D01*
X131104335Y-57559592D01*
X131214774Y-57293624D01*
X131215025Y-57005639D01*
X131105050Y-56739479D01*
X130901592Y-56535665D01*
X130635624Y-56425226D01*
X130347639Y-56424975D01*
X130081479Y-56534950D01*
X129877665Y-56738408D01*
X129767226Y-57004376D01*
X129766975Y-57292361D01*
X117479260Y-57292361D01*
X117479260Y-56470328D01*
X117440591Y-56275925D01*
X117378155Y-56182483D01*
X117330470Y-56111117D01*
X117298023Y-56078670D01*
X117298153Y-55929835D01*
X117188178Y-55663675D01*
X117080283Y-55555591D01*
X117080283Y-55203694D01*
X134986337Y-55203694D01*
X134986337Y-58665481D01*
X135021139Y-58840444D01*
X135120248Y-58988770D01*
X137465299Y-61333821D01*
X137465299Y-61353969D01*
X137500101Y-61528932D01*
X137599210Y-61677258D01*
X138492067Y-62570115D01*
X138492067Y-63996717D01*
X138240572Y-63892288D01*
X137952587Y-63892037D01*
X137686427Y-64002012D01*
X137482613Y-64205470D01*
X137372174Y-64471438D01*
X137371980Y-64693452D01*
X136787443Y-65277989D01*
X136688334Y-65426315D01*
X136653532Y-65601278D01*
X136653532Y-71596178D01*
X136497397Y-71752040D01*
X136386958Y-72018008D01*
X136386707Y-72305993D01*
X136496682Y-72572153D01*
X136700140Y-72775967D01*
X136966108Y-72886406D01*
X137254093Y-72886657D01*
X137520253Y-72776682D01*
X137724067Y-72573224D01*
X137834506Y-72307256D01*
X137834757Y-72019271D01*
X137724782Y-71753111D01*
X137567932Y-71595987D01*
X137567932Y-65790656D01*
X138018693Y-65339895D01*
X138239309Y-65340087D01*
X138492067Y-65235650D01*
X138492067Y-65987995D01*
X138526869Y-66162958D01*
X138625978Y-66311284D01*
X139978902Y-67664208D01*
X139978902Y-68242567D01*
X138683623Y-69537846D01*
X138463007Y-69537654D01*
X138196847Y-69647629D01*
X137993033Y-69851087D01*
X137882594Y-70117055D01*
X137882343Y-70405040D01*
X137992318Y-70671200D01*
X138195776Y-70875014D01*
X138461744Y-70985453D01*
X138749729Y-70985704D01*
X139015889Y-70875729D01*
X139219703Y-70672271D01*
X139330142Y-70406303D01*
X139330281Y-70246361D01*
X150721975Y-70246361D01*
X150831950Y-70512521D01*
X151035408Y-70716335D01*
X151301376Y-70826774D01*
X151589361Y-70827025D01*
X151855521Y-70717050D01*
X152059335Y-70513592D01*
X152169774Y-70247624D01*
X152169914Y-70086678D01*
X152258230Y-69954505D01*
X152267361Y-69908597D01*
X152296899Y-69760101D01*
X152296899Y-66353027D01*
X152258230Y-66158624D01*
X152170650Y-66027551D01*
X152170789Y-65867531D01*
X152060814Y-65601371D01*
X151857356Y-65397557D01*
X151591388Y-65287118D01*
X151303403Y-65286867D01*
X151037243Y-65396842D01*
X150833429Y-65600300D01*
X150722990Y-65866268D01*
X150722739Y-66154253D01*
X150832714Y-66420413D01*
X151036172Y-66624227D01*
X151280899Y-66725846D01*
X151280899Y-69387958D01*
X151036479Y-69488950D01*
X150832665Y-69692408D01*
X150722226Y-69958376D01*
X150721975Y-70246361D01*
X139330281Y-70246361D01*
X139330336Y-70184289D01*
X140759391Y-68755234D01*
X140858500Y-68606908D01*
X140893302Y-68431945D01*
X140893302Y-67474830D01*
X140858500Y-67299867D01*
X140759391Y-67151541D01*
X139406467Y-65798617D01*
X139406467Y-62380737D01*
X139371665Y-62205774D01*
X139272556Y-62057448D01*
X138379699Y-61164591D01*
X138379699Y-61144443D01*
X138344897Y-60969480D01*
X138245788Y-60821154D01*
X135900737Y-58476103D01*
X135900737Y-55393072D01*
X137233778Y-54060031D01*
X137454394Y-54060223D01*
X137604231Y-53998312D01*
X137604231Y-54266534D01*
X136453106Y-55417659D01*
X136353997Y-55565985D01*
X136319195Y-55740948D01*
X136319195Y-56207595D01*
X136353997Y-56382558D01*
X136453106Y-56530884D01*
X137192311Y-57270089D01*
X137340637Y-57369198D01*
X137515600Y-57404000D01*
X137605622Y-57404000D01*
X137693400Y-57491778D01*
X137693400Y-59766200D01*
X137728202Y-59941163D01*
X137827311Y-60089489D01*
X142062200Y-64324378D01*
X142062200Y-66489546D01*
X141906065Y-66645408D01*
X141795626Y-66911376D01*
X141795375Y-67199361D01*
X141905350Y-67465521D01*
X142108808Y-67669335D01*
X142374776Y-67779774D01*
X142662761Y-67780025D01*
X142928921Y-67670050D01*
X143132735Y-67466592D01*
X143243174Y-67200624D01*
X143243425Y-66912639D01*
X143133450Y-66646479D01*
X142976600Y-66489355D01*
X142976600Y-64135000D01*
X142941798Y-63960037D01*
X142842689Y-63811711D01*
X138607800Y-59576822D01*
X138607800Y-57302400D01*
X138572998Y-57127437D01*
X138473889Y-56979111D01*
X138288246Y-56793468D01*
X138290300Y-56793468D01*
X138465263Y-56758666D01*
X138613589Y-56659557D01*
X138712698Y-56511231D01*
X138744394Y-56351884D01*
X138975045Y-56121233D01*
X139195661Y-56121425D01*
X139461821Y-56011450D01*
X139665635Y-55807992D01*
X139776074Y-55542024D01*
X139776325Y-55254039D01*
X139666350Y-54987879D01*
X139462892Y-54784065D01*
X139196924Y-54673626D01*
X138908939Y-54673375D01*
X138642779Y-54783350D01*
X138438965Y-54986808D01*
X138328526Y-55252776D01*
X138328332Y-55474790D01*
X138109892Y-55693230D01*
X138064697Y-55583848D01*
X137861239Y-55380034D01*
X137806582Y-55357339D01*
X138384720Y-54779201D01*
X138483829Y-54630875D01*
X138492761Y-54585970D01*
X138518631Y-54455912D01*
X138518631Y-53225201D01*
X138483829Y-53050238D01*
X138384720Y-52901912D01*
X138192492Y-52709684D01*
X138167097Y-52582013D01*
X138067988Y-52433687D01*
X137997157Y-52362856D01*
X137925013Y-52314651D01*
X138549177Y-51690487D01*
X150726207Y-51690487D01*
X150723185Y-51697765D01*
X150722934Y-51985750D01*
X150832909Y-52251910D01*
X151036367Y-52455724D01*
X151129736Y-52494494D01*
X150999879Y-52548150D01*
X150796065Y-52751608D01*
X150685626Y-53017576D01*
X150685495Y-53167685D01*
X148875934Y-54977246D01*
X144355260Y-54977246D01*
X144250109Y-54871911D01*
X143984141Y-54761472D01*
X143696156Y-54761221D01*
X143429996Y-54871196D01*
X143226182Y-55074654D01*
X143198093Y-55142300D01*
X143108050Y-54924379D01*
X142904592Y-54720565D01*
X142638624Y-54610126D01*
X142350639Y-54609875D01*
X142084479Y-54719850D01*
X141880665Y-54923308D01*
X141770226Y-55189276D01*
X141769975Y-55477261D01*
X141879950Y-55743421D01*
X142057098Y-55920879D01*
X142071602Y-55993796D01*
X142170711Y-56142122D01*
X142478506Y-56449917D01*
X142490702Y-56511231D01*
X142589811Y-56659557D01*
X142709284Y-56739387D01*
X141481145Y-56739387D01*
X141306182Y-56774189D01*
X141157856Y-56873298D01*
X140606899Y-57424255D01*
X140386283Y-57424063D01*
X140120123Y-57534038D01*
X139916309Y-57737496D01*
X139805870Y-58003464D01*
X139805619Y-58291449D01*
X139915594Y-58557609D01*
X140119052Y-58761423D01*
X140385020Y-58871862D01*
X140673005Y-58872113D01*
X140939165Y-58762138D01*
X141142979Y-58558680D01*
X141243811Y-58315847D01*
X141249400Y-58321446D01*
X141249400Y-61671200D01*
X141288069Y-61865603D01*
X141398190Y-62030410D01*
X141871705Y-62503925D01*
X141871575Y-62652761D01*
X141981550Y-62918921D01*
X142185008Y-63122735D01*
X142450976Y-63233174D01*
X142738961Y-63233425D01*
X143005121Y-63123450D01*
X143208935Y-62919992D01*
X143319374Y-62654024D01*
X143319625Y-62366039D01*
X143214569Y-62111782D01*
X146398012Y-62111782D01*
X146507987Y-62377942D01*
X146664837Y-62535066D01*
X146664837Y-66819189D01*
X146679462Y-66892717D01*
X146660964Y-66937266D01*
X146660713Y-67225251D01*
X146770688Y-67491411D01*
X146974146Y-67695225D01*
X147240114Y-67805664D01*
X147528099Y-67805915D01*
X147794259Y-67695940D01*
X147998073Y-67492482D01*
X148108512Y-67226514D01*
X148108705Y-67004484D01*
X149267569Y-67004484D01*
X149377544Y-67270644D01*
X149581002Y-67474458D01*
X149846970Y-67584897D01*
X150134955Y-67585148D01*
X150401115Y-67475173D01*
X150604929Y-67271715D01*
X150715368Y-67005747D01*
X150715619Y-66717762D01*
X150605644Y-66451602D01*
X150506200Y-66351984D01*
X150506200Y-65081454D01*
X150662335Y-64925592D01*
X150772774Y-64659624D01*
X150773025Y-64371639D01*
X150663050Y-64105479D01*
X150459592Y-63901665D01*
X150193624Y-63791226D01*
X149905639Y-63790975D01*
X149639479Y-63900950D01*
X149435665Y-64104408D01*
X149325226Y-64370376D01*
X149324975Y-64658361D01*
X149434950Y-64924521D01*
X149591800Y-65081645D01*
X149591800Y-66243054D01*
X149582073Y-66247073D01*
X149378259Y-66450531D01*
X149267820Y-66716499D01*
X149267569Y-67004484D01*
X148108705Y-67004484D01*
X148108763Y-66938529D01*
X147998788Y-66672369D01*
X147795330Y-66468555D01*
X147579237Y-66378826D01*
X147579237Y-62534875D01*
X147735372Y-62379013D01*
X147845811Y-62113045D01*
X147846062Y-61825060D01*
X147736087Y-61558900D01*
X147532629Y-61355086D01*
X147266661Y-61244647D01*
X146978676Y-61244396D01*
X146712516Y-61354371D01*
X146508702Y-61557829D01*
X146398263Y-61823797D01*
X146398012Y-62111782D01*
X143214569Y-62111782D01*
X143209650Y-62099879D01*
X143006192Y-61896065D01*
X142740224Y-61785626D01*
X142590115Y-61785495D01*
X142265400Y-61460780D01*
X142265400Y-58321432D01*
X142370735Y-58216281D01*
X142481174Y-57950313D01*
X142481425Y-57662328D01*
X142477896Y-57653787D01*
X148752009Y-57653787D01*
X148983767Y-57885545D01*
X148983575Y-58106161D01*
X149093550Y-58372321D01*
X149297008Y-58576135D01*
X149562976Y-58686574D01*
X149850961Y-58686825D01*
X150117121Y-58576850D01*
X150151611Y-58542420D01*
X150151611Y-59129994D01*
X150190280Y-59324397D01*
X150300401Y-59489204D01*
X150886757Y-60075560D01*
X150886627Y-60224396D01*
X150996602Y-60490556D01*
X151065000Y-60559074D01*
X151065000Y-63618257D01*
X150959665Y-63723408D01*
X150849226Y-63989376D01*
X150848975Y-64277361D01*
X150958950Y-64543521D01*
X151162408Y-64747335D01*
X151428376Y-64857774D01*
X151716361Y-64858025D01*
X151982521Y-64748050D01*
X152186335Y-64544592D01*
X152296774Y-64278624D01*
X152297025Y-63990639D01*
X152187050Y-63724479D01*
X152081000Y-63618243D01*
X152081000Y-60634364D01*
X152223987Y-60491627D01*
X152334426Y-60225659D01*
X152334677Y-59937674D01*
X152224702Y-59671514D01*
X152021244Y-59467700D01*
X151755276Y-59357261D01*
X151605167Y-59357130D01*
X151167611Y-58919574D01*
X151167611Y-58002493D01*
X151174897Y-58005518D01*
X151462882Y-58005769D01*
X151729042Y-57895794D01*
X151835278Y-57789744D01*
X152516907Y-57789744D01*
X152711310Y-57751075D01*
X152876117Y-57640954D01*
X153334970Y-57182101D01*
X154766865Y-57182101D01*
X154739768Y-57247358D01*
X154739517Y-57535343D01*
X154849492Y-57801503D01*
X155052950Y-58005317D01*
X155226073Y-58077204D01*
X155226073Y-58845282D01*
X155120738Y-58950433D01*
X155010299Y-59216401D01*
X155010048Y-59504386D01*
X155120023Y-59770546D01*
X155323481Y-59974360D01*
X155589449Y-60084799D01*
X155877434Y-60085050D01*
X156143594Y-59975075D01*
X156222699Y-59896108D01*
X156222699Y-61431576D01*
X156199040Y-61407876D01*
X156118253Y-61374331D01*
X156147252Y-61304494D01*
X156147503Y-61016509D01*
X156037528Y-60750349D01*
X155834070Y-60546535D01*
X155568102Y-60436096D01*
X155280117Y-60435845D01*
X155013957Y-60545820D01*
X154810143Y-60749278D01*
X154699704Y-61015246D01*
X154699573Y-61165355D01*
X154355894Y-61509034D01*
X154245773Y-61673841D01*
X154207104Y-61868244D01*
X154207104Y-63761882D01*
X154101769Y-63867033D01*
X153991330Y-64133001D01*
X153991079Y-64420986D01*
X154101054Y-64687146D01*
X154304512Y-64890960D01*
X154570480Y-65001399D01*
X154858465Y-65001650D01*
X155124625Y-64891675D01*
X155328439Y-64688217D01*
X155438878Y-64422249D01*
X155439129Y-64134264D01*
X155329154Y-63868104D01*
X155223104Y-63761868D01*
X155223104Y-63482461D01*
X155788177Y-64047534D01*
X155788177Y-65257941D01*
X155822979Y-65432904D01*
X155823802Y-65434136D01*
X155823802Y-74977376D01*
X154407759Y-76393419D01*
X154308108Y-76393419D01*
X154133145Y-76428221D01*
X153984819Y-76527330D01*
X153548318Y-76963831D01*
X153449209Y-77112157D01*
X153414407Y-77287120D01*
X153414407Y-77605327D01*
X153397016Y-77135340D01*
X153194547Y-76646536D01*
X152927692Y-76547873D01*
X151954765Y-77520800D01*
X151968908Y-77534943D01*
X151789303Y-77714548D01*
X151775160Y-77700405D01*
X150802233Y-78673332D01*
X150900896Y-78940187D01*
X151390185Y-79121964D01*
X140813539Y-89698610D01*
X140718683Y-89603588D01*
X140452715Y-89493149D01*
X140164730Y-89492898D01*
X139898570Y-89602873D01*
X139694756Y-89806331D01*
X139584317Y-90072299D01*
X139584066Y-90360284D01*
X139694041Y-90626444D01*
X139897499Y-90830258D01*
X140163467Y-90940697D01*
X140451452Y-90940948D01*
X140717612Y-90830973D01*
X140874736Y-90674123D01*
X140941804Y-90674123D01*
X141043534Y-90653888D01*
X140992901Y-90704521D01*
X140893792Y-90852847D01*
X140858990Y-91027810D01*
X140858990Y-91432213D01*
X140395421Y-91895782D01*
X139991018Y-91895782D01*
X139816055Y-91930584D01*
X139667729Y-92029693D01*
X137426255Y-94271167D01*
X137205639Y-94270975D01*
X136939479Y-94380950D01*
X136735665Y-94584408D01*
X136625226Y-94850376D01*
X136624975Y-95138361D01*
X136734950Y-95404521D01*
X136938408Y-95608335D01*
X137204376Y-95718774D01*
X137492361Y-95719025D01*
X137758521Y-95609050D01*
X137962335Y-95405592D01*
X138072774Y-95139624D01*
X138072968Y-94917610D01*
X140180396Y-92810182D01*
X140584799Y-92810182D01*
X140759762Y-92775380D01*
X140908088Y-92676271D01*
X141639479Y-91944880D01*
X141738588Y-91796554D01*
X141773390Y-91621591D01*
X141773390Y-91217188D01*
X155788705Y-77201873D01*
X155887091Y-77054629D01*
X156807389Y-76134331D01*
X156807389Y-77483563D01*
X142628410Y-91662542D01*
X142529301Y-91810868D01*
X142494499Y-91985831D01*
X142494499Y-92181442D01*
X136655324Y-98020617D01*
X136434708Y-98020425D01*
X136168548Y-98130400D01*
X135964734Y-98333858D01*
X135854295Y-98599826D01*
X135854044Y-98887811D01*
X135964019Y-99153971D01*
X136167477Y-99357785D01*
X136433445Y-99468224D01*
X136721430Y-99468475D01*
X136987590Y-99358500D01*
X137191404Y-99155042D01*
X137301843Y-98889074D01*
X137302037Y-98667060D01*
X143215561Y-92753536D01*
X143302608Y-92840735D01*
X143568576Y-92951174D01*
X143856561Y-92951425D01*
X144122721Y-92841450D01*
X144326535Y-92637992D01*
X144436974Y-92372024D01*
X144437193Y-92121280D01*
X144478497Y-92059464D01*
X144500584Y-91948422D01*
X144513299Y-91884501D01*
X144513299Y-91845279D01*
X157955689Y-78402889D01*
X158054798Y-78254563D01*
X158089600Y-78079600D01*
X158089600Y-67368378D01*
X158100841Y-67357137D01*
X158199950Y-67208811D01*
X158214519Y-67135567D01*
X158390887Y-66959507D01*
X158501326Y-66693539D01*
X158501577Y-66405554D01*
X158453529Y-66289269D01*
X158518775Y-66354515D01*
X158518775Y-80377436D01*
X158342922Y-80553289D01*
X158291059Y-80563605D01*
X158244012Y-80595041D01*
X157281382Y-80595041D01*
X157106419Y-80629843D01*
X156958093Y-80728952D01*
X146742669Y-90944376D01*
X146522053Y-90944184D01*
X146255893Y-91054159D01*
X146052079Y-91257617D01*
X145941640Y-91523585D01*
X145941389Y-91811570D01*
X146051364Y-92077730D01*
X146254822Y-92281544D01*
X146520790Y-92391983D01*
X146808775Y-92392234D01*
X147074935Y-92282259D01*
X147278749Y-92078801D01*
X147389188Y-91812833D01*
X147389382Y-91590819D01*
X157470760Y-81509441D01*
X158399784Y-81509441D01*
X158574747Y-81474639D01*
X158649349Y-81424791D01*
X158731749Y-81408401D01*
X158880075Y-81309292D01*
X158988546Y-81200821D01*
X158988546Y-81475428D01*
X159023348Y-81650391D01*
X159056241Y-81699618D01*
X159056241Y-81938483D01*
X159007331Y-81987393D01*
X158865414Y-81987393D01*
X158690451Y-82022195D01*
X158542125Y-82121304D01*
X145802395Y-94861034D01*
X145781864Y-94840467D01*
X145515896Y-94730028D01*
X145227911Y-94729777D01*
X144961751Y-94839752D01*
X144757937Y-95043210D01*
X144647498Y-95309178D01*
X144647247Y-95597163D01*
X144757222Y-95863323D01*
X144960680Y-96067137D01*
X145226648Y-96177576D01*
X145514633Y-96177827D01*
X145780793Y-96067852D01*
X145958251Y-95890704D01*
X146031168Y-95876200D01*
X146179494Y-95777091D01*
X159054792Y-82901793D01*
X159196709Y-82901793D01*
X159371672Y-82866991D01*
X159519998Y-82767882D01*
X159575989Y-82711891D01*
X159575989Y-83289554D01*
X145432576Y-97432967D01*
X145211960Y-97432775D01*
X144945800Y-97542750D01*
X144741986Y-97746208D01*
X144631547Y-98012176D01*
X144631296Y-98300161D01*
X144741271Y-98566321D01*
X144944729Y-98770135D01*
X145210697Y-98880574D01*
X145498682Y-98880825D01*
X145764842Y-98770850D01*
X145968656Y-98567392D01*
X146079095Y-98301424D01*
X146079289Y-98079410D01*
X160356478Y-83802221D01*
X160455587Y-83653895D01*
X160490389Y-83478932D01*
X160490389Y-68323977D01*
X160572943Y-68523280D01*
X160867823Y-68654972D01*
X161715617Y-67807178D01*
X161714703Y-68167302D01*
X161047428Y-68834577D01*
X161179120Y-69129457D01*
X161711742Y-69333922D01*
X161702023Y-73163316D01*
X161307005Y-73326534D01*
X160842166Y-73790563D01*
X160590287Y-74397155D01*
X160589714Y-75053963D01*
X160840534Y-75660995D01*
X161304563Y-76125834D01*
X161694094Y-76287581D01*
X161689319Y-78168565D01*
X161307005Y-78326534D01*
X160842166Y-78790563D01*
X160590287Y-79397155D01*
X160589714Y-80053963D01*
X160840534Y-80660995D01*
X161304563Y-81125834D01*
X161681417Y-81282317D01*
X161676616Y-83173814D01*
X161307005Y-83326534D01*
X160842166Y-83790563D01*
X160590287Y-84397155D01*
X160589714Y-85053963D01*
X160840534Y-85660995D01*
X161304563Y-86125834D01*
X161668740Y-86277053D01*
X161663912Y-88179063D01*
X161307005Y-88326534D01*
X160842166Y-88790563D01*
X160590287Y-89397155D01*
X160589714Y-90053963D01*
X160840534Y-90660995D01*
X161304563Y-91125834D01*
X161656063Y-91271789D01*
X161651208Y-93184312D01*
X161307005Y-93326534D01*
X160842166Y-93790563D01*
X160590287Y-94397155D01*
X160589714Y-95053963D01*
X160840534Y-95660995D01*
X161304563Y-96125834D01*
X161643386Y-96266525D01*
X161638505Y-98189561D01*
X161307005Y-98326534D01*
X160842166Y-98790563D01*
X160590287Y-99397155D01*
X160589714Y-100053963D01*
X160840534Y-100660995D01*
X161304563Y-101125834D01*
X161630709Y-101261261D01*
X161626662Y-102855426D01*
X159995618Y-101224382D01*
X159853207Y-101129226D01*
X159707206Y-101031671D01*
X159367000Y-100964000D01*
X155764000Y-100964000D01*
X155423794Y-101031671D01*
X155135382Y-101224382D01*
X154942671Y-101512794D01*
X154875000Y-101853000D01*
X154942671Y-102193206D01*
X155135382Y-102481618D01*
X155423794Y-102674329D01*
X155764000Y-102742000D01*
X158998764Y-102742000D01*
X160608957Y-104352193D01*
X160590287Y-104397155D01*
X160589714Y-105053963D01*
X160840534Y-105660995D01*
X161304563Y-106125834D01*
X161618032Y-106255998D01*
X161613097Y-108200059D01*
X161307005Y-108326534D01*
X160842166Y-108790563D01*
X160590287Y-109397155D01*
X160589714Y-110053963D01*
X160840534Y-110660995D01*
X161304563Y-111125834D01*
X161839472Y-111347948D01*
X161840760Y-111348817D01*
X161842290Y-111349118D01*
X161911155Y-111377713D01*
X161988071Y-111377780D01*
X161989159Y-111377994D01*
X162021731Y-111377809D01*
X162567963Y-111378286D01*
X162576726Y-111374665D01*
X166295959Y-111353594D01*
X166432088Y-111327618D01*
X166559314Y-111245845D01*
X166644703Y-111121018D01*
X166674800Y-110972803D01*
X166698005Y-67463245D01*
X166813000Y-67348250D01*
X166813000Y-66499000D01*
X167067000Y-66499000D01*
X167067000Y-67348250D01*
X167225750Y-67507000D01*
X167866310Y-67507000D01*
X168099699Y-67410327D01*
X168278327Y-67231698D01*
X168375000Y-66998309D01*
X168375000Y-66657750D01*
X168216250Y-66499000D01*
X167067000Y-66499000D01*
X166813000Y-66499000D01*
X166793000Y-66499000D01*
X166793000Y-66245000D01*
X166813000Y-66245000D01*
X166813000Y-65395750D01*
X167067000Y-65395750D01*
X167067000Y-66245000D01*
X168216250Y-66245000D01*
X168375000Y-66086250D01*
X168375000Y-65745691D01*
X168278327Y-65512302D01*
X168099699Y-65333673D01*
X167866310Y-65237000D01*
X167225750Y-65237000D01*
X167067000Y-65395750D01*
X166813000Y-65395750D01*
X166699168Y-65281918D01*
X166699713Y-64261000D01*
X167240000Y-64261000D01*
X167242695Y-64260464D01*
X167740000Y-64260464D01*
X167881190Y-64233897D01*
X168010865Y-64150454D01*
X168097859Y-64023134D01*
X168128464Y-63872000D01*
X168128464Y-63374695D01*
X168129000Y-63372000D01*
X168128464Y-63369305D01*
X168128464Y-62872000D01*
X168101897Y-62730810D01*
X168018454Y-62601135D01*
X167891134Y-62514141D01*
X167740000Y-62483536D01*
X167242695Y-62483536D01*
X167240000Y-62483000D01*
X165983814Y-62483000D01*
X164159240Y-60687442D01*
X164040230Y-60608017D01*
X163892000Y-60578000D01*
X162114000Y-60578000D01*
X161976424Y-60603706D01*
X161849034Y-60685223D01*
X161763395Y-60809879D01*
X161746049Y-60894430D01*
X161281605Y-61086334D01*
X160816766Y-61550363D01*
X160644139Y-61966095D01*
X160644139Y-59892431D01*
X161888440Y-58648131D01*
X162109055Y-58648323D01*
X162375215Y-58538348D01*
X162579029Y-58334890D01*
X162689468Y-58068922D01*
X162689719Y-57780937D01*
X162579744Y-57514777D01*
X162376286Y-57310963D01*
X162110318Y-57200524D01*
X161948201Y-57200383D01*
X162119682Y-57029201D01*
X162221618Y-56783710D01*
X163006708Y-56783710D01*
X163036583Y-56856012D01*
X163240041Y-57059826D01*
X163506009Y-57170265D01*
X163793994Y-57170516D01*
X163911936Y-57121784D01*
X163809917Y-57223624D01*
X163699478Y-57489592D01*
X163699227Y-57777577D01*
X163809202Y-58043737D01*
X164012660Y-58247551D01*
X164278628Y-58357990D01*
X164566613Y-58358241D01*
X164832773Y-58248266D01*
X165002608Y-58078727D01*
X165113781Y-58056614D01*
X165262107Y-57957505D01*
X166200289Y-57019323D01*
X166249239Y-56946064D01*
X166252000Y-56946064D01*
X166393190Y-56919497D01*
X166513486Y-56842089D01*
X166620866Y-56915459D01*
X166689800Y-56929418D01*
X166689800Y-57568468D01*
X166724602Y-57743431D01*
X166823711Y-57891757D01*
X166852220Y-57920266D01*
X166852028Y-58140882D01*
X166962003Y-58407042D01*
X167118853Y-58564166D01*
X167118853Y-59623804D01*
X167153655Y-59798767D01*
X167252764Y-59947093D01*
X167489885Y-60184214D01*
X167489693Y-60404830D01*
X167599668Y-60670990D01*
X167803126Y-60874804D01*
X168069094Y-60985243D01*
X168357079Y-60985494D01*
X168623239Y-60875519D01*
X168827053Y-60672061D01*
X168852434Y-60610936D01*
X168866976Y-60616974D01*
X169154961Y-60617225D01*
X169421121Y-60507250D01*
X169624935Y-60303792D01*
X169735374Y-60037824D01*
X169735568Y-59815811D01*
X170249289Y-59302090D01*
X170348398Y-59153763D01*
X170353542Y-59127903D01*
X170383200Y-58978800D01*
X170383200Y-58372984D01*
X170465538Y-58407174D01*
X170753523Y-58407425D01*
X171019683Y-58297450D01*
X171223497Y-58093992D01*
X171333936Y-57828024D01*
X171334155Y-57577280D01*
X171375459Y-57515464D01*
X171380605Y-57489592D01*
X171410261Y-57340501D01*
X171410261Y-52382789D01*
X171375459Y-52207826D01*
X171366839Y-52194925D01*
X171276350Y-52059499D01*
X170903391Y-51686541D01*
X170903391Y-50374764D01*
X171161596Y-50116559D01*
X171260705Y-49968233D01*
X171295507Y-49793270D01*
X171295507Y-49208530D01*
X171260705Y-49033567D01*
X171161596Y-48885241D01*
X170844864Y-48568509D01*
X170696538Y-48469400D01*
X170521575Y-48434598D01*
X169912752Y-48434598D01*
X169830017Y-48451055D01*
X170010108Y-48181529D01*
X170159000Y-47433000D01*
X170010108Y-46684471D01*
X169586101Y-46049899D01*
X168951529Y-45625892D01*
X168203000Y-45477000D01*
X167454471Y-45625892D01*
X166819899Y-46049899D01*
X166395892Y-46684471D01*
X166247000Y-47433000D01*
X166395892Y-48181529D01*
X166819899Y-48816101D01*
X167286671Y-49127988D01*
X166924412Y-49127988D01*
X166749449Y-49162790D01*
X166601123Y-49261899D01*
X165993886Y-49869136D01*
X165502000Y-49869136D01*
X165493214Y-49870789D01*
X165341699Y-49719273D01*
X165108310Y-49622600D01*
X164892750Y-49622600D01*
X164734000Y-49781350D01*
X164734000Y-51330600D01*
X164754000Y-51330600D01*
X164754000Y-51584600D01*
X164734000Y-51584600D01*
X164734000Y-53133850D01*
X164892750Y-53292600D01*
X165108310Y-53292600D01*
X165341699Y-53195927D01*
X165384556Y-53153070D01*
X165384377Y-53358670D01*
X165494352Y-53624830D01*
X165638406Y-53769136D01*
X165502000Y-53769136D01*
X165360810Y-53795703D01*
X165240514Y-53873111D01*
X165133134Y-53799741D01*
X164982000Y-53769136D01*
X164232000Y-53769136D01*
X164117883Y-53790609D01*
X164062302Y-53734931D01*
X163796334Y-53624492D01*
X163508349Y-53624241D01*
X163502939Y-53626476D01*
X162111010Y-52234547D01*
X162111140Y-52085711D01*
X162001165Y-51819551D01*
X161925098Y-51743350D01*
X163597000Y-51743350D01*
X163597000Y-52783909D01*
X163693673Y-53017298D01*
X163872301Y-53195927D01*
X164105690Y-53292600D01*
X164321250Y-53292600D01*
X164480000Y-53133850D01*
X164480000Y-51584600D01*
X163755750Y-51584600D01*
X163597000Y-51743350D01*
X161925098Y-51743350D01*
X161797707Y-51615737D01*
X161531739Y-51505298D01*
X161243754Y-51505047D01*
X160977594Y-51615022D01*
X160773780Y-51818480D01*
X160663341Y-52084448D01*
X160663090Y-52372433D01*
X160773065Y-52638593D01*
X160976523Y-52842407D01*
X161242491Y-52952846D01*
X161392600Y-52952977D01*
X162927688Y-54488065D01*
X162927685Y-54491627D01*
X163037660Y-54757787D01*
X163241118Y-54961601D01*
X163507086Y-55072040D01*
X163718398Y-55072224D01*
X163327344Y-55463278D01*
X163228235Y-55611604D01*
X163197184Y-55767710D01*
X161849246Y-55767710D01*
X161687096Y-55799964D01*
X161654842Y-55806379D01*
X161522626Y-55894723D01*
X161362986Y-55894584D01*
X161096826Y-56004559D01*
X160893012Y-56208017D01*
X160782573Y-56473985D01*
X160782322Y-56761970D01*
X160892297Y-57028130D01*
X161095755Y-57231944D01*
X161361723Y-57342383D01*
X161523840Y-57342524D01*
X161352359Y-57513706D01*
X161241920Y-57779674D01*
X161241726Y-58001687D01*
X161045851Y-58197562D01*
X160938245Y-57937135D01*
X160734787Y-57733321D01*
X160468819Y-57622882D01*
X160180834Y-57622631D01*
X159914674Y-57732606D01*
X159710860Y-57936064D01*
X159600421Y-58202032D01*
X159600227Y-58424046D01*
X159087052Y-58937221D01*
X158987943Y-59085547D01*
X158960851Y-59221748D01*
X158797006Y-59385307D01*
X158686567Y-59651275D01*
X158686316Y-59939260D01*
X158796291Y-60205420D01*
X158980236Y-60389687D01*
X158824547Y-60454016D01*
X158620733Y-60657474D01*
X158510294Y-60923442D01*
X158510043Y-61211427D01*
X158620018Y-61477587D01*
X158797166Y-61655045D01*
X158811670Y-61727962D01*
X158910779Y-61876288D01*
X158988546Y-61954055D01*
X158988546Y-64149150D01*
X158927292Y-64087789D01*
X158661324Y-63977350D01*
X158373339Y-63977099D01*
X158107179Y-64087074D01*
X157903365Y-64290532D01*
X157831422Y-64463792D01*
X157810939Y-64414220D01*
X157607481Y-64210406D01*
X157341513Y-64099967D01*
X157053528Y-64099716D01*
X157044988Y-64103245D01*
X157044988Y-64033137D01*
X157306516Y-63771610D01*
X157482673Y-63844756D01*
X157770658Y-63845007D01*
X158036818Y-63735032D01*
X158240632Y-63531574D01*
X158351071Y-63265606D01*
X158351322Y-62977621D01*
X158241347Y-62711461D01*
X158084497Y-62554337D01*
X158084497Y-62460720D01*
X158049695Y-62285757D01*
X158010738Y-62227454D01*
X157950587Y-62137431D01*
X157571765Y-61758610D01*
X157571765Y-56828611D01*
X157674659Y-57077634D01*
X157878117Y-57281448D01*
X158144085Y-57391887D01*
X158432070Y-57392138D01*
X158698230Y-57282163D01*
X158902044Y-57078705D01*
X159012483Y-56812737D01*
X159012614Y-56662628D01*
X159344610Y-56330633D01*
X159425906Y-56208965D01*
X159454731Y-56165825D01*
X159493400Y-55971422D01*
X159493400Y-52881315D01*
X159624602Y-52750113D01*
X159773438Y-52750243D01*
X160039598Y-52640268D01*
X160243412Y-52436810D01*
X160353851Y-52170842D01*
X160354102Y-51882857D01*
X160244127Y-51616697D01*
X160138077Y-51510461D01*
X160138077Y-50131291D01*
X163597000Y-50131291D01*
X163597000Y-51171850D01*
X163755750Y-51330600D01*
X164480000Y-51330600D01*
X164480000Y-49781350D01*
X164321250Y-49622600D01*
X164105690Y-49622600D01*
X163872301Y-49719273D01*
X163693673Y-49897902D01*
X163597000Y-50131291D01*
X160138077Y-50131291D01*
X160138077Y-49318164D01*
X160099408Y-49123761D01*
X160099408Y-49123760D01*
X160038992Y-49033341D01*
X160631710Y-48440623D01*
X160741831Y-48275816D01*
X160780500Y-48081413D01*
X160780500Y-46996743D01*
X160885835Y-46891592D01*
X160996274Y-46625624D01*
X160996525Y-46337639D01*
X160886550Y-46071479D01*
X160683092Y-45867665D01*
X160417124Y-45757226D01*
X160129139Y-45756975D01*
X159862979Y-45866950D01*
X159659165Y-46070408D01*
X159555910Y-46319076D01*
X159402819Y-46255507D01*
X159114834Y-46255256D01*
X158848674Y-46365231D01*
X158644860Y-46568689D01*
X158534421Y-46834657D01*
X158534290Y-46984766D01*
X158230372Y-47288684D01*
X158206592Y-47264863D01*
X157940624Y-47154424D01*
X157652639Y-47154173D01*
X157386479Y-47264148D01*
X157182665Y-47467606D01*
X157072226Y-47733574D01*
X157071975Y-48021559D01*
X157181950Y-48287719D01*
X157385408Y-48491533D01*
X157627934Y-48592238D01*
X157520225Y-48851631D01*
X157519974Y-49139616D01*
X157629949Y-49405776D01*
X157833407Y-49609590D01*
X158099375Y-49720029D01*
X158387360Y-49720280D01*
X158653520Y-49610305D01*
X158759756Y-49504255D01*
X159097748Y-49504255D01*
X159122077Y-49528584D01*
X159122077Y-51510475D01*
X159016742Y-51615626D01*
X158906303Y-51881594D01*
X158906172Y-52031703D01*
X158626190Y-52311685D01*
X158516069Y-52476492D01*
X158477400Y-52670895D01*
X158477400Y-55761001D01*
X158294184Y-55944218D01*
X158145348Y-55944088D01*
X157879188Y-56054063D01*
X157675374Y-56257521D01*
X157571765Y-56507040D01*
X157571765Y-56418542D01*
X157536963Y-56243579D01*
X157513871Y-56209020D01*
X157495474Y-56181486D01*
X157495691Y-55932282D01*
X157385716Y-55666122D01*
X157182258Y-55462308D01*
X156952152Y-55366760D01*
X157553617Y-54765295D01*
X157663738Y-54600488D01*
X157694760Y-54444529D01*
X157807742Y-54331744D01*
X157918181Y-54065776D01*
X157918432Y-53777791D01*
X157808457Y-53511631D01*
X157604999Y-53307817D01*
X157339031Y-53197378D01*
X157051046Y-53197127D01*
X156784886Y-53307102D01*
X156581072Y-53510560D01*
X156470633Y-53776528D01*
X156470382Y-54064513D01*
X156571890Y-54310182D01*
X155514546Y-55367526D01*
X155514546Y-54682799D01*
X155475877Y-54488396D01*
X155475877Y-54488395D01*
X155365756Y-54323588D01*
X154177304Y-53135137D01*
X154177434Y-52986301D01*
X154067459Y-52720141D01*
X153864001Y-52516327D01*
X153598033Y-52405888D01*
X153310048Y-52405637D01*
X153043888Y-52515612D01*
X152840074Y-52719070D01*
X152729635Y-52985038D01*
X152729384Y-53273023D01*
X152839359Y-53539183D01*
X153042817Y-53742997D01*
X153308785Y-53853436D01*
X153458894Y-53853567D01*
X154498546Y-54893220D01*
X154498546Y-55498448D01*
X154393211Y-55603599D01*
X154282772Y-55869567D01*
X154282521Y-56157552D01*
X154286053Y-56166101D01*
X153124550Y-56166101D01*
X153000816Y-56190713D01*
X153000816Y-55675158D01*
X152962147Y-55480755D01*
X152852026Y-55315948D01*
X152424416Y-54888338D01*
X152259609Y-54778217D01*
X152065206Y-54739548D01*
X151524971Y-54739548D01*
X152428512Y-53836007D01*
X152538633Y-53671201D01*
X152577302Y-53476797D01*
X152577302Y-52464732D01*
X152538633Y-52270329D01*
X152492709Y-52201599D01*
X152428512Y-52105521D01*
X152347271Y-52024280D01*
X153592382Y-52024280D01*
X154012772Y-52444670D01*
X154035002Y-52556430D01*
X154134111Y-52704756D01*
X154282437Y-52803865D01*
X154457400Y-52838667D01*
X155491481Y-52838667D01*
X155666444Y-52803865D01*
X155814770Y-52704756D01*
X157058946Y-51460580D01*
X157279562Y-51460772D01*
X157545722Y-51350797D01*
X157749536Y-51147339D01*
X157859975Y-50881371D01*
X157860226Y-50593386D01*
X157750251Y-50327226D01*
X157546793Y-50123412D01*
X157280825Y-50012973D01*
X156992840Y-50012722D01*
X156726680Y-50122697D01*
X156522866Y-50326155D01*
X156412427Y-50592123D01*
X156412233Y-50814137D01*
X155786656Y-51439714D01*
X155735568Y-51316073D01*
X155629518Y-51209837D01*
X155629518Y-48130312D01*
X155642406Y-48117424D01*
X155791242Y-48117554D01*
X156057402Y-48007579D01*
X156261216Y-47804121D01*
X156371655Y-47538153D01*
X156371906Y-47250168D01*
X156261931Y-46984008D01*
X156058473Y-46780194D01*
X155792505Y-46669755D01*
X155504520Y-46669504D01*
X155238360Y-46779479D01*
X155034546Y-46982937D01*
X154924107Y-47248905D01*
X154923976Y-47399014D01*
X154762308Y-47560682D01*
X154652187Y-47725489D01*
X154613518Y-47919892D01*
X154613518Y-51209851D01*
X154508183Y-51315002D01*
X154410796Y-51549538D01*
X154105049Y-51243791D01*
X153956723Y-51144682D01*
X153781760Y-51109880D01*
X152262501Y-51109880D01*
X152062618Y-50909998D01*
X151914292Y-50810889D01*
X151739329Y-50776087D01*
X150348351Y-50776087D01*
X150416135Y-50612843D01*
X150416266Y-50462734D01*
X151096061Y-49782939D01*
X151206182Y-49618132D01*
X151244851Y-49423729D01*
X151244851Y-49297215D01*
X151393392Y-49446016D01*
X151659360Y-49556455D01*
X151947345Y-49556706D01*
X152213505Y-49446731D01*
X152417319Y-49243273D01*
X152527758Y-48977305D01*
X152528009Y-48689320D01*
X152418034Y-48423160D01*
X152311984Y-48316924D01*
X152311984Y-48056298D01*
X152273315Y-47861895D01*
X152163194Y-47697088D01*
X151411572Y-46945466D01*
X151246765Y-46835345D01*
X151052362Y-46796676D01*
X150420098Y-46796676D01*
X150334081Y-46813786D01*
X150241170Y-46588923D01*
X150037712Y-46385109D01*
X149771744Y-46274670D01*
X149610797Y-46274530D01*
X149478624Y-46186214D01*
X149284221Y-46147545D01*
X148353355Y-46147545D01*
X148158952Y-46186214D01*
X147994145Y-46296335D01*
X147215554Y-47074926D01*
X147135754Y-47074926D01*
X147206533Y-46904471D01*
X147206784Y-46616486D01*
X147096809Y-46350326D01*
X146893351Y-46146512D01*
X146627383Y-46036073D01*
X146405369Y-46035879D01*
X146067007Y-45697517D01*
X145918681Y-45598408D01*
X145743718Y-45563606D01*
X142000194Y-45563606D01*
X141825231Y-45598408D01*
X141676904Y-45697517D01*
X141477622Y-45896800D01*
X139990121Y-45896800D01*
X139815158Y-45931602D01*
X139703985Y-46005886D01*
X139471052Y-46005683D01*
X139204892Y-46115658D01*
X139001078Y-46319116D01*
X138890639Y-46585084D01*
X138890388Y-46873069D01*
X139000363Y-47139229D01*
X139203821Y-47343043D01*
X139469789Y-47453482D01*
X139757774Y-47453733D01*
X140023934Y-47343758D01*
X140227748Y-47140300D01*
X140338187Y-46874332D01*
X140338242Y-46811200D01*
X141667000Y-46811200D01*
X141841963Y-46776398D01*
X141990289Y-46677289D01*
X142189573Y-46478006D01*
X143618607Y-46478006D01*
X143612705Y-46492220D01*
X143612454Y-46780205D01*
X143722429Y-47046365D01*
X143752419Y-47076407D01*
X143723144Y-47105631D01*
X143612705Y-47371599D01*
X143612454Y-47659584D01*
X143722429Y-47925744D01*
X143925887Y-48129558D01*
X144191855Y-48239997D01*
X144341964Y-48240128D01*
X144487983Y-48386147D01*
X144652790Y-48496268D01*
X144847193Y-48534937D01*
X147609889Y-48534937D01*
X147804292Y-48496268D01*
X147969099Y-48386147D01*
X148559790Y-47795456D01*
X148742207Y-47795456D01*
X148968450Y-48021699D01*
X149133257Y-48131820D01*
X149327660Y-48170489D01*
X150038672Y-48170489D01*
X150122801Y-48374098D01*
X150228851Y-48480334D01*
X150228851Y-49213309D01*
X149697836Y-49744324D01*
X149549000Y-49744194D01*
X149503966Y-49762801D01*
X149469828Y-49680180D01*
X149266370Y-49476366D01*
X149000402Y-49365927D01*
X148712417Y-49365676D01*
X148446257Y-49475651D01*
X148242443Y-49679109D01*
X148132004Y-49945077D01*
X148131810Y-50167091D01*
X147956600Y-50342301D01*
X146063127Y-50342301D01*
X145935431Y-50316901D01*
X142650927Y-50316901D01*
X142565673Y-50299943D01*
X139272727Y-50299943D01*
X139187473Y-50316901D01*
X138739327Y-50316901D01*
X138654073Y-50299943D01*
X137401990Y-50299943D01*
X137246128Y-50143808D01*
X136980160Y-50033369D01*
X136692175Y-50033118D01*
X136426015Y-50143093D01*
X136222201Y-50346551D01*
X136111762Y-50612519D01*
X136111511Y-50900504D01*
X136221486Y-51166664D01*
X136424944Y-51370478D01*
X136690912Y-51480917D01*
X136978897Y-51481168D01*
X137245057Y-51371193D01*
X137402181Y-51214343D01*
X137732163Y-51214343D01*
X136467446Y-52479061D01*
X136246830Y-52478869D01*
X135980670Y-52588844D01*
X135776856Y-52792302D01*
X135666417Y-53058270D01*
X135666166Y-53346255D01*
X135776141Y-53612415D01*
X135979599Y-53816229D01*
X136124328Y-53876325D01*
X135120248Y-54880405D01*
X135021139Y-55028731D01*
X134986337Y-55203694D01*
X117080283Y-55203694D01*
X117080283Y-53775551D01*
X117106925Y-53711390D01*
X117107176Y-53423405D01*
X116997201Y-53157245D01*
X116793743Y-52953431D01*
X116775000Y-52945648D01*
X116775000Y-51695743D01*
X116880335Y-51590592D01*
X116990774Y-51324624D01*
X116990905Y-51174515D01*
X117851372Y-50314048D01*
X118087894Y-50314254D01*
X118354054Y-50204279D01*
X118557868Y-50000821D01*
X118668307Y-49734853D01*
X118668558Y-49446868D01*
X118558583Y-49180708D01*
X118355125Y-48976894D01*
X118089157Y-48866455D01*
X117801172Y-48866204D01*
X117535012Y-48976179D01*
X117331198Y-49179637D01*
X117220759Y-49445605D01*
X117220705Y-49507875D01*
X116272475Y-50456105D01*
X116123639Y-50455975D01*
X115857479Y-50565950D01*
X115653665Y-50769408D01*
X115543226Y-51035376D01*
X115542975Y-51323361D01*
X112774500Y-51323361D01*
X112774500Y-47433000D01*
X114247000Y-47433000D01*
X114395892Y-48181529D01*
X114819899Y-48816101D01*
X115454471Y-49240108D01*
X116203000Y-49389000D01*
X116951529Y-49240108D01*
X117586101Y-48816101D01*
X118010108Y-48181529D01*
X118159000Y-47433000D01*
X118010108Y-46684471D01*
X117969944Y-46624361D01*
X121511975Y-46624361D01*
X121621950Y-46890521D01*
X121825408Y-47094335D01*
X122091376Y-47204774D01*
X122379361Y-47205025D01*
X122645521Y-47095050D01*
X122751757Y-46989000D01*
X124065112Y-46989000D01*
X124133228Y-47057235D01*
X124399196Y-47167674D01*
X124687181Y-47167925D01*
X124953341Y-47057950D01*
X125157155Y-46854492D01*
X125267594Y-46588524D01*
X125267845Y-46300539D01*
X125157870Y-46034379D01*
X124954412Y-45830565D01*
X124688444Y-45720126D01*
X124400459Y-45719875D01*
X124134299Y-45829850D01*
X123990899Y-45973000D01*
X122751743Y-45973000D01*
X122646592Y-45867665D01*
X122380624Y-45757226D01*
X122092639Y-45756975D01*
X121826479Y-45866950D01*
X121622665Y-46070408D01*
X121512226Y-46336376D01*
X121511975Y-46624361D01*
X117969944Y-46624361D01*
X117586101Y-46049899D01*
X116951529Y-45625892D01*
X116203000Y-45477000D01*
X115454471Y-45625892D01*
X114819899Y-46049899D01*
X114395892Y-46684471D01*
X114247000Y-47433000D01*
X112774500Y-47433000D01*
X112774500Y-44004500D01*
X171631500Y-44004500D01*
X171631500Y-113873000D01*
X171631500Y-113873000D01*
G37*
X171631500Y-113873000D02*
X171579716Y-113873000D01*
X171470645Y-113827710D01*
X171182660Y-113827459D01*
X171072442Y-113873000D01*
X170686173Y-113873000D01*
X170577102Y-113827710D01*
X170289117Y-113827459D01*
X170178899Y-113873000D01*
X169800334Y-113873000D01*
X169691263Y-113827710D01*
X169403278Y-113827459D01*
X169293060Y-113873000D01*
X168906791Y-113873000D01*
X168797720Y-113827710D01*
X168509735Y-113827459D01*
X168399517Y-113873000D01*
X168378237Y-113873000D01*
X168303965Y-113761844D01*
X168178154Y-113636034D01*
X168178153Y-113636033D01*
X167930946Y-113470854D01*
X167766567Y-113402766D01*
X167474961Y-113344762D01*
X167430050Y-113344762D01*
X167386000Y-113336000D01*
X145288000Y-113336000D01*
X145243950Y-113344762D01*
X145199039Y-113344762D01*
X144907434Y-113402766D01*
X144907433Y-113402766D01*
X144743054Y-113470854D01*
X144495844Y-113636035D01*
X144428841Y-113703039D01*
X144370035Y-113761845D01*
X144204854Y-114009054D01*
X144136766Y-114173433D01*
X144078762Y-114465038D01*
X144078762Y-114642961D01*
X144136766Y-114934566D01*
X144136766Y-114934567D01*
X144204854Y-115098946D01*
X144370033Y-115346153D01*
X144370034Y-115346154D01*
X144495844Y-115471965D01*
X144743054Y-115637146D01*
X144907433Y-115705234D01*
X144907434Y-115705234D01*
X145199039Y-115763238D01*
X145243950Y-115763238D01*
X145288000Y-115772000D01*
X167386000Y-115772000D01*
X167430050Y-115763238D01*
X167474961Y-115763238D01*
X167766567Y-115705234D01*
X167930946Y-115637146D01*
X168178155Y-115471965D01*
X168303965Y-115346156D01*
X168383583Y-115227000D01*
X168392253Y-115227000D01*
X168508472Y-115275258D01*
X168796457Y-115275509D01*
X168913858Y-115227000D01*
X169285796Y-115227000D01*
X169402015Y-115275258D01*
X169690000Y-115275509D01*
X169807401Y-115227000D01*
X170171635Y-115227000D01*
X170287854Y-115275258D01*
X170575839Y-115275509D01*
X170693240Y-115227000D01*
X171065178Y-115227000D01*
X171181397Y-115275258D01*
X171469382Y-115275509D01*
X171586783Y-115227000D01*
X171631500Y-115227000D01*
X171631500Y-142871500D01*
X112774500Y-142871500D01*
X112774500Y-139433000D01*
X114247000Y-139433000D01*
X114395892Y-140181529D01*
X114819899Y-140816101D01*
X115454471Y-141240108D01*
X116203000Y-141389000D01*
X116951529Y-141240108D01*
X117586101Y-140816101D01*
X118010108Y-140181529D01*
X118159000Y-139433000D01*
X166247000Y-139433000D01*
X166395892Y-140181529D01*
X166819899Y-140816101D01*
X167454471Y-141240108D01*
X168203000Y-141389000D01*
X168951529Y-141240108D01*
X169586101Y-140816101D01*
X170010108Y-140181529D01*
X170159000Y-139433000D01*
X170010108Y-138684471D01*
X169586101Y-138049899D01*
X168951529Y-137625892D01*
X168203000Y-137477000D01*
X167454471Y-137625892D01*
X166819899Y-138049899D01*
X166395892Y-138684471D01*
X166247000Y-139433000D01*
X118159000Y-139433000D01*
X118010108Y-138684471D01*
X117586101Y-138049899D01*
X116951529Y-137625892D01*
X116203000Y-137477000D01*
X115454471Y-137625892D01*
X114819899Y-138049899D01*
X114395892Y-138684471D01*
X114247000Y-139433000D01*
X112774500Y-139433000D01*
X112774500Y-115229522D01*
X112881437Y-115273926D01*
X113169422Y-115274177D01*
X113283599Y-115227000D01*
X113661710Y-115227000D01*
X113774721Y-115273926D01*
X114062706Y-115274177D01*
X114176883Y-115227000D01*
X114545971Y-115227000D01*
X114658982Y-115273926D01*
X114946967Y-115274177D01*
X115061144Y-115227000D01*
X115439254Y-115227000D01*
X115552265Y-115273926D01*
X115840250Y-115274177D01*
X115954427Y-115227000D01*
X116350418Y-115227000D01*
X116430033Y-115346153D01*
X116430034Y-115346154D01*
X116555844Y-115471965D01*
X116803054Y-115637146D01*
X116967433Y-115705234D01*
X116967434Y-115705234D01*
X117259039Y-115763238D01*
X117303950Y-115763238D01*
X117348000Y-115772000D01*
X141224000Y-115772000D01*
X141268050Y-115763238D01*
X141312961Y-115763238D01*
X141604567Y-115705234D01*
X141768946Y-115637146D01*
X142016155Y-115471965D01*
X142141965Y-115346156D01*
X142307146Y-115098946D01*
X142375234Y-114934567D01*
X142375234Y-114934566D01*
X142433238Y-114642961D01*
X142433238Y-114465038D01*
X142375234Y-114173434D01*
X142362199Y-114141963D01*
X142307146Y-114009054D01*
X142141965Y-113761844D01*
X142016154Y-113636034D01*
X142016153Y-113636033D01*
X141768946Y-113470854D01*
X141604567Y-113402766D01*
X141312961Y-113344762D01*
X141268050Y-113344762D01*
X141224000Y-113336000D01*
X117348000Y-113336000D01*
X117303950Y-113344762D01*
X117259039Y-113344762D01*
X116967434Y-113402766D01*
X116967433Y-113402766D01*
X116803054Y-113470854D01*
X116555844Y-113636035D01*
X116488841Y-113703039D01*
X116430035Y-113761845D01*
X116288945Y-113973000D01*
X116143601Y-113973000D01*
X116107481Y-113936817D01*
X115841513Y-113826378D01*
X115553528Y-113826127D01*
X115287368Y-113936102D01*
X115250405Y-113973000D01*
X115250318Y-113973000D01*
X115214198Y-113936817D01*
X114948230Y-113826378D01*
X114660245Y-113826127D01*
X114394085Y-113936102D01*
X114361597Y-113968533D01*
X114329937Y-113936817D01*
X114063969Y-113826378D01*
X113775984Y-113826127D01*
X113509824Y-113936102D01*
X113472861Y-113973000D01*
X113472773Y-113973000D01*
X113436653Y-113936817D01*
X113170685Y-113826378D01*
X112882700Y-113826127D01*
X112774500Y-113870834D01*
X112774500Y-71119000D01*
X117918000Y-71119000D01*
X117918000Y-111759000D01*
X117944056Y-111897477D01*
X118025896Y-112024660D01*
X118150770Y-112109983D01*
X118299000Y-112140000D01*
X122490789Y-112140000D01*
X122628163Y-112114372D01*
X122755600Y-112032927D01*
X122841310Y-111908320D01*
X122871787Y-111760183D01*
X122872976Y-111377191D01*
X123169995Y-111254466D01*
X123634834Y-110790437D01*
X123886713Y-110183845D01*
X123887286Y-109527037D01*
X123818144Y-109359700D01*
X148804300Y-109359700D01*
X148953192Y-110108229D01*
X149377199Y-110742801D01*
X150011771Y-111166808D01*
X150760300Y-111315700D01*
X151508829Y-111166808D01*
X152143401Y-110742801D01*
X152567408Y-110108229D01*
X152716300Y-109359700D01*
X152567408Y-108611171D01*
X152143401Y-107976599D01*
X151508829Y-107552592D01*
X150760300Y-107403700D01*
X150011771Y-107552592D01*
X149377199Y-107976599D01*
X148953192Y-108611171D01*
X148804300Y-109359700D01*
X123818144Y-109359700D01*
X123636466Y-108920005D01*
X123172437Y-108455166D01*
X122882425Y-108334742D01*
X122888524Y-106370767D01*
X123169995Y-106254466D01*
X123634834Y-105790437D01*
X123886713Y-105183845D01*
X123887286Y-104527037D01*
X123636466Y-103920005D01*
X123172437Y-103455166D01*
X122897933Y-103341182D01*
X122904072Y-101364343D01*
X123169995Y-101254466D01*
X123634834Y-100790437D01*
X123886713Y-100183845D01*
X123887286Y-99527037D01*
X123636466Y-98920005D01*
X123172437Y-98455166D01*
X122913441Y-98347621D01*
X122919620Y-96357919D01*
X123169995Y-96254466D01*
X123634834Y-95790437D01*
X123886713Y-95183845D01*
X123887286Y-94527037D01*
X123636466Y-93920005D01*
X123172437Y-93455166D01*
X122928949Y-93354061D01*
X122934845Y-91455361D01*
X135481975Y-91455361D01*
X135591950Y-91721521D01*
X135795408Y-91925335D01*
X136061376Y-92035774D01*
X136349361Y-92036025D01*
X136615521Y-91926050D01*
X136819335Y-91722592D01*
X136929774Y-91456624D01*
X136930025Y-91168639D01*
X136820050Y-90902479D01*
X136663200Y-90745355D01*
X136663200Y-86585093D01*
X145022009Y-78226284D01*
X145121118Y-78077958D01*
X145155920Y-77902995D01*
X145155920Y-76520800D01*
X145386696Y-76520800D01*
X145386696Y-78520800D01*
X145413263Y-78661990D01*
X145496706Y-78791665D01*
X145624026Y-78878659D01*
X145775160Y-78909264D01*
X147775160Y-78909264D01*
X147916350Y-78882697D01*
X148046025Y-78799254D01*
X148133019Y-78671934D01*
X148163624Y-78520800D01*
X148163624Y-77256261D01*
X150129252Y-77256261D01*
X150153304Y-77906260D01*
X150355773Y-78395064D01*
X150622628Y-78493727D01*
X151595555Y-77520800D01*
X150622628Y-76547873D01*
X150355773Y-76646536D01*
X150129252Y-77256261D01*
X148163624Y-77256261D01*
X148163624Y-76520800D01*
X148137057Y-76379610D01*
X148129759Y-76368268D01*
X150802233Y-76368268D01*
X151775160Y-77341195D01*
X152748087Y-76368268D01*
X152649424Y-76101413D01*
X152039699Y-75874892D01*
X151389700Y-75898944D01*
X150900896Y-76101413D01*
X150802233Y-76368268D01*
X148129759Y-76368268D01*
X148053614Y-76249935D01*
X147926294Y-76162941D01*
X147775160Y-76132336D01*
X145775160Y-76132336D01*
X145633970Y-76158903D01*
X145504295Y-76242346D01*
X145417301Y-76369666D01*
X145386696Y-76520800D01*
X145155920Y-76520800D01*
X145155920Y-76518918D01*
X146219058Y-75455780D01*
X147603135Y-75455780D01*
X147778098Y-75420978D01*
X147926424Y-75321869D01*
X149805200Y-73443093D01*
X152594800Y-73443093D01*
X152750662Y-73599228D01*
X153016630Y-73709667D01*
X153304615Y-73709918D01*
X153570775Y-73599943D01*
X153774589Y-73396485D01*
X153885028Y-73130517D01*
X153885279Y-72842532D01*
X153775304Y-72576372D01*
X153571846Y-72372558D01*
X153305878Y-72262119D01*
X153017893Y-72261868D01*
X152751733Y-72371843D01*
X152594609Y-72528693D01*
X149615822Y-72528693D01*
X149440859Y-72563495D01*
X149292533Y-72662604D01*
X147413757Y-74541380D01*
X146029680Y-74541380D01*
X145854717Y-74576182D01*
X145706391Y-74675291D01*
X144375431Y-76006251D01*
X144276322Y-76154577D01*
X144241520Y-76329540D01*
X144241520Y-77713617D01*
X135882711Y-86072426D01*
X135783602Y-86220752D01*
X135748800Y-86395715D01*
X135748800Y-90745546D01*
X135592665Y-90901408D01*
X135482226Y-91167376D01*
X135481975Y-91455361D01*
X122934845Y-91455361D01*
X122935168Y-91351494D01*
X123169995Y-91254466D01*
X123634834Y-90790437D01*
X123886713Y-90183845D01*
X123887286Y-89527037D01*
X123636466Y-88920005D01*
X123172437Y-88455166D01*
X122944457Y-88360500D01*
X122950716Y-86345070D01*
X123169995Y-86254466D01*
X123634834Y-85790437D01*
X123886713Y-85183845D01*
X123887286Y-84527037D01*
X123636466Y-83920005D01*
X123172437Y-83455166D01*
X122959965Y-83366940D01*
X122966264Y-81338646D01*
X123169995Y-81254466D01*
X123634834Y-80790437D01*
X123886713Y-80183845D01*
X123887286Y-79527037D01*
X123636466Y-78920005D01*
X123172437Y-78455166D01*
X122975473Y-78373379D01*
X122977331Y-77774800D01*
X134543600Y-77774800D01*
X134692492Y-78523329D01*
X135116499Y-79157901D01*
X135751071Y-79581908D01*
X136499600Y-79730800D01*
X137248129Y-79581908D01*
X137882701Y-79157901D01*
X138306708Y-78523329D01*
X138455600Y-77774800D01*
X138306708Y-77026271D01*
X137882701Y-76391699D01*
X137248129Y-75967692D01*
X136499600Y-75818800D01*
X135751071Y-75967692D01*
X135116499Y-76391699D01*
X134692492Y-77026271D01*
X134543600Y-77774800D01*
X122977331Y-77774800D01*
X122981812Y-76332222D01*
X123169995Y-76254466D01*
X123634834Y-75790437D01*
X123886713Y-75183845D01*
X123887286Y-74527037D01*
X123636466Y-73920005D01*
X123225063Y-73507883D01*
X130911000Y-73507883D01*
X130911000Y-73556117D01*
X131004704Y-74027200D01*
X131271552Y-74426565D01*
X131670917Y-74693413D01*
X132142000Y-74787117D01*
X132613083Y-74693413D01*
X133012448Y-74426565D01*
X133279296Y-74027200D01*
X133373000Y-73556117D01*
X133373000Y-73507883D01*
X133279296Y-73036800D01*
X133042226Y-72682000D01*
X133443536Y-72682000D01*
X133443536Y-74382000D01*
X133470103Y-74523190D01*
X133553546Y-74652865D01*
X133680866Y-74739859D01*
X133832000Y-74770464D01*
X135532000Y-74770464D01*
X135673190Y-74743897D01*
X135802865Y-74660454D01*
X135889859Y-74533134D01*
X135920464Y-74382000D01*
X135920464Y-72682000D01*
X135893897Y-72540810D01*
X135810454Y-72411135D01*
X135683134Y-72324141D01*
X135532000Y-72293536D01*
X135190000Y-72293536D01*
X135190000Y-70995709D01*
X135178006Y-70935408D01*
X135184708Y-70919267D01*
X135184959Y-70631282D01*
X135074984Y-70365122D01*
X134871526Y-70161308D01*
X134605558Y-70050869D01*
X134317573Y-70050618D01*
X134051413Y-70160593D01*
X133847599Y-70364051D01*
X133737160Y-70630019D01*
X133736909Y-70918004D01*
X133846884Y-71184164D01*
X134050342Y-71387978D01*
X134174000Y-71439325D01*
X134174000Y-72293536D01*
X133832000Y-72293536D01*
X133690810Y-72320103D01*
X133561135Y-72403546D01*
X133474141Y-72530866D01*
X133443536Y-72682000D01*
X133042226Y-72682000D01*
X133012448Y-72637435D01*
X132613083Y-72370587D01*
X132142000Y-72276883D01*
X131670917Y-72370587D01*
X131271552Y-72637435D01*
X131004704Y-73036800D01*
X130911000Y-73507883D01*
X123225063Y-73507883D01*
X123172437Y-73455166D01*
X122990981Y-73379819D01*
X122997998Y-71120183D01*
X122971944Y-70980523D01*
X122890104Y-70853340D01*
X122765230Y-70768017D01*
X122617000Y-70738000D01*
X122595119Y-70738000D01*
X122595032Y-70737496D01*
X122517139Y-70607858D01*
X122394947Y-70518739D01*
X122247709Y-70484180D01*
X122098626Y-70509628D01*
X121971189Y-70591072D01*
X121885480Y-70715680D01*
X121880888Y-70738000D01*
X118299000Y-70738000D01*
X118160523Y-70764056D01*
X118033340Y-70845896D01*
X117948017Y-70970770D01*
X117918000Y-71119000D01*
X112774500Y-71119000D01*
X112774500Y-69457766D01*
X117357065Y-69457766D01*
X117467040Y-69723926D01*
X117670498Y-69927740D01*
X117936466Y-70038179D01*
X118224451Y-70038430D01*
X118490611Y-69928455D01*
X118596847Y-69822405D01*
X120417947Y-69822405D01*
X120523096Y-69927738D01*
X120789064Y-70038177D01*
X121077049Y-70038428D01*
X121343209Y-69928453D01*
X121547023Y-69724995D01*
X121657462Y-69459027D01*
X121657713Y-69171042D01*
X121547738Y-68904882D01*
X121344280Y-68701068D01*
X121078312Y-68590629D01*
X120790327Y-68590378D01*
X120524167Y-68700353D01*
X120417929Y-68806405D01*
X118596833Y-68806405D01*
X118491682Y-68701070D01*
X118225714Y-68590631D01*
X117937729Y-68590380D01*
X117671569Y-68700355D01*
X117467755Y-68903813D01*
X117357316Y-69169781D01*
X117357065Y-69457766D01*
X112774500Y-69457766D01*
X112774500Y-51323361D01*
X115542975Y-51323361D01*
X115652950Y-51589521D01*
X115759000Y-51695757D01*
X115759000Y-53182222D01*
X115659377Y-53422142D01*
X115659126Y-53710127D01*
X115769101Y-53976287D01*
X115972559Y-54180101D01*
X116064283Y-54218188D01*
X116064283Y-55559295D01*
X115960793Y-55662604D01*
X115850354Y-55928572D01*
X115850103Y-56216557D01*
X115960078Y-56482717D01*
X116163536Y-56686531D01*
X116429504Y-56796970D01*
X116463260Y-56796999D01*
X116463260Y-59966752D01*
X116357925Y-60071903D01*
X116247486Y-60337871D01*
X116247235Y-60625856D01*
X116357210Y-60892016D01*
X116463260Y-60998252D01*
X116463260Y-62374107D01*
X116442248Y-62374089D01*
X116176088Y-62484064D01*
X115972274Y-62687522D01*
X115861835Y-62953490D01*
X115861584Y-63241475D01*
X115963698Y-63488610D01*
X115963698Y-65461165D01*
X115858363Y-65566316D01*
X115747924Y-65832284D01*
X115747673Y-66120269D01*
X115857648Y-66386429D01*
X116061106Y-66590243D01*
X116327074Y-66700682D01*
X116615059Y-66700933D01*
X116881219Y-66590958D01*
X117085033Y-66387500D01*
X117195472Y-66121532D01*
X117195723Y-65833547D01*
X117085748Y-65567387D01*
X116979698Y-65461151D01*
X116979698Y-63718540D01*
X116995130Y-63712164D01*
X117198944Y-63508706D01*
X117309383Y-63242738D01*
X117309514Y-63092629D01*
X117330470Y-63071673D01*
X117440591Y-62906866D01*
X117479260Y-62712463D01*
X117479260Y-60998238D01*
X117584595Y-60893087D01*
X117695034Y-60627119D01*
X117695285Y-60339134D01*
X117585310Y-60072974D01*
X117479260Y-59966738D01*
X117479260Y-57292361D01*
X129766975Y-57292361D01*
X129876950Y-57558521D01*
X130033800Y-57715645D01*
X130033800Y-69801505D01*
X130068602Y-69976468D01*
X130125192Y-70061160D01*
X130124981Y-70302872D01*
X130234956Y-70569032D01*
X130438414Y-70772846D01*
X130704382Y-70883285D01*
X130992367Y-70883536D01*
X131258527Y-70773561D01*
X131462341Y-70570103D01*
X131572780Y-70304135D01*
X131573031Y-70016150D01*
X131463056Y-69749990D01*
X131259598Y-69546176D01*
X130993630Y-69435737D01*
X130948200Y-69435697D01*
X130948200Y-57715454D01*
X131104335Y-57559592D01*
X131214774Y-57293624D01*
X131215025Y-57005639D01*
X131105050Y-56739479D01*
X130901592Y-56535665D01*
X130635624Y-56425226D01*
X130347639Y-56424975D01*
X130081479Y-56534950D01*
X129877665Y-56738408D01*
X129767226Y-57004376D01*
X129766975Y-57292361D01*
X117479260Y-57292361D01*
X117479260Y-56470328D01*
X117440591Y-56275925D01*
X117378155Y-56182483D01*
X117330470Y-56111117D01*
X117298023Y-56078670D01*
X117298153Y-55929835D01*
X117188178Y-55663675D01*
X117080283Y-55555591D01*
X117080283Y-55203694D01*
X134986337Y-55203694D01*
X134986337Y-58665481D01*
X135021139Y-58840444D01*
X135120248Y-58988770D01*
X137465299Y-61333821D01*
X137465299Y-61353969D01*
X137500101Y-61528932D01*
X137599210Y-61677258D01*
X138492067Y-62570115D01*
X138492067Y-63996717D01*
X138240572Y-63892288D01*
X137952587Y-63892037D01*
X137686427Y-64002012D01*
X137482613Y-64205470D01*
X137372174Y-64471438D01*
X137371980Y-64693452D01*
X136787443Y-65277989D01*
X136688334Y-65426315D01*
X136653532Y-65601278D01*
X136653532Y-71596178D01*
X136497397Y-71752040D01*
X136386958Y-72018008D01*
X136386707Y-72305993D01*
X136496682Y-72572153D01*
X136700140Y-72775967D01*
X136966108Y-72886406D01*
X137254093Y-72886657D01*
X137520253Y-72776682D01*
X137724067Y-72573224D01*
X137834506Y-72307256D01*
X137834757Y-72019271D01*
X137724782Y-71753111D01*
X137567932Y-71595987D01*
X137567932Y-65790656D01*
X138018693Y-65339895D01*
X138239309Y-65340087D01*
X138492067Y-65235650D01*
X138492067Y-65987995D01*
X138526869Y-66162958D01*
X138625978Y-66311284D01*
X139978902Y-67664208D01*
X139978902Y-68242567D01*
X138683623Y-69537846D01*
X138463007Y-69537654D01*
X138196847Y-69647629D01*
X137993033Y-69851087D01*
X137882594Y-70117055D01*
X137882343Y-70405040D01*
X137992318Y-70671200D01*
X138195776Y-70875014D01*
X138461744Y-70985453D01*
X138749729Y-70985704D01*
X139015889Y-70875729D01*
X139219703Y-70672271D01*
X139330142Y-70406303D01*
X139330281Y-70246361D01*
X150721975Y-70246361D01*
X150831950Y-70512521D01*
X151035408Y-70716335D01*
X151301376Y-70826774D01*
X151589361Y-70827025D01*
X151855521Y-70717050D01*
X152059335Y-70513592D01*
X152169774Y-70247624D01*
X152169914Y-70086678D01*
X152258230Y-69954505D01*
X152267361Y-69908597D01*
X152296899Y-69760101D01*
X152296899Y-66353027D01*
X152258230Y-66158624D01*
X152170650Y-66027551D01*
X152170789Y-65867531D01*
X152060814Y-65601371D01*
X151857356Y-65397557D01*
X151591388Y-65287118D01*
X151303403Y-65286867D01*
X151037243Y-65396842D01*
X150833429Y-65600300D01*
X150722990Y-65866268D01*
X150722739Y-66154253D01*
X150832714Y-66420413D01*
X151036172Y-66624227D01*
X151280899Y-66725846D01*
X151280899Y-69387958D01*
X151036479Y-69488950D01*
X150832665Y-69692408D01*
X150722226Y-69958376D01*
X150721975Y-70246361D01*
X139330281Y-70246361D01*
X139330336Y-70184289D01*
X140759391Y-68755234D01*
X140858500Y-68606908D01*
X140893302Y-68431945D01*
X140893302Y-67474830D01*
X140858500Y-67299867D01*
X140759391Y-67151541D01*
X139406467Y-65798617D01*
X139406467Y-62380737D01*
X139371665Y-62205774D01*
X139272556Y-62057448D01*
X138379699Y-61164591D01*
X138379699Y-61144443D01*
X138344897Y-60969480D01*
X138245788Y-60821154D01*
X135900737Y-58476103D01*
X135900737Y-55393072D01*
X137233778Y-54060031D01*
X137454394Y-54060223D01*
X137604231Y-53998312D01*
X137604231Y-54266534D01*
X136453106Y-55417659D01*
X136353997Y-55565985D01*
X136319195Y-55740948D01*
X136319195Y-56207595D01*
X136353997Y-56382558D01*
X136453106Y-56530884D01*
X137192311Y-57270089D01*
X137340637Y-57369198D01*
X137515600Y-57404000D01*
X137605622Y-57404000D01*
X137693400Y-57491778D01*
X137693400Y-59766200D01*
X137728202Y-59941163D01*
X137827311Y-60089489D01*
X142062200Y-64324378D01*
X142062200Y-66489546D01*
X141906065Y-66645408D01*
X141795626Y-66911376D01*
X141795375Y-67199361D01*
X141905350Y-67465521D01*
X142108808Y-67669335D01*
X142374776Y-67779774D01*
X142662761Y-67780025D01*
X142928921Y-67670050D01*
X143132735Y-67466592D01*
X143243174Y-67200624D01*
X143243425Y-66912639D01*
X143133450Y-66646479D01*
X142976600Y-66489355D01*
X142976600Y-64135000D01*
X142941798Y-63960037D01*
X142842689Y-63811711D01*
X138607800Y-59576822D01*
X138607800Y-57302400D01*
X138572998Y-57127437D01*
X138473889Y-56979111D01*
X138288246Y-56793468D01*
X138290300Y-56793468D01*
X138465263Y-56758666D01*
X138613589Y-56659557D01*
X138712698Y-56511231D01*
X138744394Y-56351884D01*
X138975045Y-56121233D01*
X139195661Y-56121425D01*
X139461821Y-56011450D01*
X139665635Y-55807992D01*
X139776074Y-55542024D01*
X139776325Y-55254039D01*
X139666350Y-54987879D01*
X139462892Y-54784065D01*
X139196924Y-54673626D01*
X138908939Y-54673375D01*
X138642779Y-54783350D01*
X138438965Y-54986808D01*
X138328526Y-55252776D01*
X138328332Y-55474790D01*
X138109892Y-55693230D01*
X138064697Y-55583848D01*
X137861239Y-55380034D01*
X137806582Y-55357339D01*
X138384720Y-54779201D01*
X138483829Y-54630875D01*
X138492761Y-54585970D01*
X138518631Y-54455912D01*
X138518631Y-53225201D01*
X138483829Y-53050238D01*
X138384720Y-52901912D01*
X138192492Y-52709684D01*
X138167097Y-52582013D01*
X138067988Y-52433687D01*
X137997157Y-52362856D01*
X137925013Y-52314651D01*
X138549177Y-51690487D01*
X150726207Y-51690487D01*
X150723185Y-51697765D01*
X150722934Y-51985750D01*
X150832909Y-52251910D01*
X151036367Y-52455724D01*
X151129736Y-52494494D01*
X150999879Y-52548150D01*
X150796065Y-52751608D01*
X150685626Y-53017576D01*
X150685495Y-53167685D01*
X148875934Y-54977246D01*
X144355260Y-54977246D01*
X144250109Y-54871911D01*
X143984141Y-54761472D01*
X143696156Y-54761221D01*
X143429996Y-54871196D01*
X143226182Y-55074654D01*
X143198093Y-55142300D01*
X143108050Y-54924379D01*
X142904592Y-54720565D01*
X142638624Y-54610126D01*
X142350639Y-54609875D01*
X142084479Y-54719850D01*
X141880665Y-54923308D01*
X141770226Y-55189276D01*
X141769975Y-55477261D01*
X141879950Y-55743421D01*
X142057098Y-55920879D01*
X142071602Y-55993796D01*
X142170711Y-56142122D01*
X142478506Y-56449917D01*
X142490702Y-56511231D01*
X142589811Y-56659557D01*
X142709284Y-56739387D01*
X141481145Y-56739387D01*
X141306182Y-56774189D01*
X141157856Y-56873298D01*
X140606899Y-57424255D01*
X140386283Y-57424063D01*
X140120123Y-57534038D01*
X139916309Y-57737496D01*
X139805870Y-58003464D01*
X139805619Y-58291449D01*
X139915594Y-58557609D01*
X140119052Y-58761423D01*
X140385020Y-58871862D01*
X140673005Y-58872113D01*
X140939165Y-58762138D01*
X141142979Y-58558680D01*
X141243811Y-58315847D01*
X141249400Y-58321446D01*
X141249400Y-61671200D01*
X141288069Y-61865603D01*
X141398190Y-62030410D01*
X141871705Y-62503925D01*
X141871575Y-62652761D01*
X141981550Y-62918921D01*
X142185008Y-63122735D01*
X142450976Y-63233174D01*
X142738961Y-63233425D01*
X143005121Y-63123450D01*
X143208935Y-62919992D01*
X143319374Y-62654024D01*
X143319625Y-62366039D01*
X143214569Y-62111782D01*
X146398012Y-62111782D01*
X146507987Y-62377942D01*
X146664837Y-62535066D01*
X146664837Y-66819189D01*
X146679462Y-66892717D01*
X146660964Y-66937266D01*
X146660713Y-67225251D01*
X146770688Y-67491411D01*
X146974146Y-67695225D01*
X147240114Y-67805664D01*
X147528099Y-67805915D01*
X147794259Y-67695940D01*
X147998073Y-67492482D01*
X148108512Y-67226514D01*
X148108705Y-67004484D01*
X149267569Y-67004484D01*
X149377544Y-67270644D01*
X149581002Y-67474458D01*
X149846970Y-67584897D01*
X150134955Y-67585148D01*
X150401115Y-67475173D01*
X150604929Y-67271715D01*
X150715368Y-67005747D01*
X150715619Y-66717762D01*
X150605644Y-66451602D01*
X150506200Y-66351984D01*
X150506200Y-65081454D01*
X150662335Y-64925592D01*
X150772774Y-64659624D01*
X150773025Y-64371639D01*
X150663050Y-64105479D01*
X150459592Y-63901665D01*
X150193624Y-63791226D01*
X149905639Y-63790975D01*
X149639479Y-63900950D01*
X149435665Y-64104408D01*
X149325226Y-64370376D01*
X149324975Y-64658361D01*
X149434950Y-64924521D01*
X149591800Y-65081645D01*
X149591800Y-66243054D01*
X149582073Y-66247073D01*
X149378259Y-66450531D01*
X149267820Y-66716499D01*
X149267569Y-67004484D01*
X148108705Y-67004484D01*
X148108763Y-66938529D01*
X147998788Y-66672369D01*
X147795330Y-66468555D01*
X147579237Y-66378826D01*
X147579237Y-62534875D01*
X147735372Y-62379013D01*
X147845811Y-62113045D01*
X147846062Y-61825060D01*
X147736087Y-61558900D01*
X147532629Y-61355086D01*
X147266661Y-61244647D01*
X146978676Y-61244396D01*
X146712516Y-61354371D01*
X146508702Y-61557829D01*
X146398263Y-61823797D01*
X146398012Y-62111782D01*
X143214569Y-62111782D01*
X143209650Y-62099879D01*
X143006192Y-61896065D01*
X142740224Y-61785626D01*
X142590115Y-61785495D01*
X142265400Y-61460780D01*
X142265400Y-58321432D01*
X142370735Y-58216281D01*
X142481174Y-57950313D01*
X142481425Y-57662328D01*
X142477896Y-57653787D01*
X148752009Y-57653787D01*
X148983767Y-57885545D01*
X148983575Y-58106161D01*
X149093550Y-58372321D01*
X149297008Y-58576135D01*
X149562976Y-58686574D01*
X149850961Y-58686825D01*
X150117121Y-58576850D01*
X150151611Y-58542420D01*
X150151611Y-59129994D01*
X150190280Y-59324397D01*
X150300401Y-59489204D01*
X150886757Y-60075560D01*
X150886627Y-60224396D01*
X150996602Y-60490556D01*
X151065000Y-60559074D01*
X151065000Y-63618257D01*
X150959665Y-63723408D01*
X150849226Y-63989376D01*
X150848975Y-64277361D01*
X150958950Y-64543521D01*
X151162408Y-64747335D01*
X151428376Y-64857774D01*
X151716361Y-64858025D01*
X151982521Y-64748050D01*
X152186335Y-64544592D01*
X152296774Y-64278624D01*
X152297025Y-63990639D01*
X152187050Y-63724479D01*
X152081000Y-63618243D01*
X152081000Y-60634364D01*
X152223987Y-60491627D01*
X152334426Y-60225659D01*
X152334677Y-59937674D01*
X152224702Y-59671514D01*
X152021244Y-59467700D01*
X151755276Y-59357261D01*
X151605167Y-59357130D01*
X151167611Y-58919574D01*
X151167611Y-58002493D01*
X151174897Y-58005518D01*
X151462882Y-58005769D01*
X151729042Y-57895794D01*
X151835278Y-57789744D01*
X152516907Y-57789744D01*
X152711310Y-57751075D01*
X152876117Y-57640954D01*
X153334970Y-57182101D01*
X154766865Y-57182101D01*
X154739768Y-57247358D01*
X154739517Y-57535343D01*
X154849492Y-57801503D01*
X155052950Y-58005317D01*
X155226073Y-58077204D01*
X155226073Y-58845282D01*
X155120738Y-58950433D01*
X155010299Y-59216401D01*
X155010048Y-59504386D01*
X155120023Y-59770546D01*
X155323481Y-59974360D01*
X155589449Y-60084799D01*
X155877434Y-60085050D01*
X156143594Y-59975075D01*
X156222699Y-59896108D01*
X156222699Y-61431576D01*
X156199040Y-61407876D01*
X156118253Y-61374331D01*
X156147252Y-61304494D01*
X156147503Y-61016509D01*
X156037528Y-60750349D01*
X155834070Y-60546535D01*
X155568102Y-60436096D01*
X155280117Y-60435845D01*
X155013957Y-60545820D01*
X154810143Y-60749278D01*
X154699704Y-61015246D01*
X154699573Y-61165355D01*
X154355894Y-61509034D01*
X154245773Y-61673841D01*
X154207104Y-61868244D01*
X154207104Y-63761882D01*
X154101769Y-63867033D01*
X153991330Y-64133001D01*
X153991079Y-64420986D01*
X154101054Y-64687146D01*
X154304512Y-64890960D01*
X154570480Y-65001399D01*
X154858465Y-65001650D01*
X155124625Y-64891675D01*
X155328439Y-64688217D01*
X155438878Y-64422249D01*
X155439129Y-64134264D01*
X155329154Y-63868104D01*
X155223104Y-63761868D01*
X155223104Y-63482461D01*
X155788177Y-64047534D01*
X155788177Y-65257941D01*
X155822979Y-65432904D01*
X155823802Y-65434136D01*
X155823802Y-74977376D01*
X154407759Y-76393419D01*
X154308108Y-76393419D01*
X154133145Y-76428221D01*
X153984819Y-76527330D01*
X153548318Y-76963831D01*
X153449209Y-77112157D01*
X153414407Y-77287120D01*
X153414407Y-77605327D01*
X153397016Y-77135340D01*
X153194547Y-76646536D01*
X152927692Y-76547873D01*
X151954765Y-77520800D01*
X151968908Y-77534943D01*
X151789303Y-77714548D01*
X151775160Y-77700405D01*
X150802233Y-78673332D01*
X150900896Y-78940187D01*
X151390185Y-79121964D01*
X140813539Y-89698610D01*
X140718683Y-89603588D01*
X140452715Y-89493149D01*
X140164730Y-89492898D01*
X139898570Y-89602873D01*
X139694756Y-89806331D01*
X139584317Y-90072299D01*
X139584066Y-90360284D01*
X139694041Y-90626444D01*
X139897499Y-90830258D01*
X140163467Y-90940697D01*
X140451452Y-90940948D01*
X140717612Y-90830973D01*
X140874736Y-90674123D01*
X140941804Y-90674123D01*
X141043534Y-90653888D01*
X140992901Y-90704521D01*
X140893792Y-90852847D01*
X140858990Y-91027810D01*
X140858990Y-91432213D01*
X140395421Y-91895782D01*
X139991018Y-91895782D01*
X139816055Y-91930584D01*
X139667729Y-92029693D01*
X137426255Y-94271167D01*
X137205639Y-94270975D01*
X136939479Y-94380950D01*
X136735665Y-94584408D01*
X136625226Y-94850376D01*
X136624975Y-95138361D01*
X136734950Y-95404521D01*
X136938408Y-95608335D01*
X137204376Y-95718774D01*
X137492361Y-95719025D01*
X137758521Y-95609050D01*
X137962335Y-95405592D01*
X138072774Y-95139624D01*
X138072968Y-94917610D01*
X140180396Y-92810182D01*
X140584799Y-92810182D01*
X140759762Y-92775380D01*
X140908088Y-92676271D01*
X141639479Y-91944880D01*
X141738588Y-91796554D01*
X141773390Y-91621591D01*
X141773390Y-91217188D01*
X155788705Y-77201873D01*
X155887091Y-77054629D01*
X156807389Y-76134331D01*
X156807389Y-77483563D01*
X142628410Y-91662542D01*
X142529301Y-91810868D01*
X142494499Y-91985831D01*
X142494499Y-92181442D01*
X136655324Y-98020617D01*
X136434708Y-98020425D01*
X136168548Y-98130400D01*
X135964734Y-98333858D01*
X135854295Y-98599826D01*
X135854044Y-98887811D01*
X135964019Y-99153971D01*
X136167477Y-99357785D01*
X136433445Y-99468224D01*
X136721430Y-99468475D01*
X136987590Y-99358500D01*
X137191404Y-99155042D01*
X137301843Y-98889074D01*
X137302037Y-98667060D01*
X143215561Y-92753536D01*
X143302608Y-92840735D01*
X143568576Y-92951174D01*
X143856561Y-92951425D01*
X144122721Y-92841450D01*
X144326535Y-92637992D01*
X144436974Y-92372024D01*
X144437193Y-92121280D01*
X144478497Y-92059464D01*
X144500584Y-91948422D01*
X144513299Y-91884501D01*
X144513299Y-91845279D01*
X157955689Y-78402889D01*
X158054798Y-78254563D01*
X158089600Y-78079600D01*
X158089600Y-67368378D01*
X158100841Y-67357137D01*
X158199950Y-67208811D01*
X158214519Y-67135567D01*
X158390887Y-66959507D01*
X158501326Y-66693539D01*
X158501577Y-66405554D01*
X158453529Y-66289269D01*
X158518775Y-66354515D01*
X158518775Y-80377436D01*
X158342922Y-80553289D01*
X158291059Y-80563605D01*
X158244012Y-80595041D01*
X157281382Y-80595041D01*
X157106419Y-80629843D01*
X156958093Y-80728952D01*
X146742669Y-90944376D01*
X146522053Y-90944184D01*
X146255893Y-91054159D01*
X146052079Y-91257617D01*
X145941640Y-91523585D01*
X145941389Y-91811570D01*
X146051364Y-92077730D01*
X146254822Y-92281544D01*
X146520790Y-92391983D01*
X146808775Y-92392234D01*
X147074935Y-92282259D01*
X147278749Y-92078801D01*
X147389188Y-91812833D01*
X147389382Y-91590819D01*
X157470760Y-81509441D01*
X158399784Y-81509441D01*
X158574747Y-81474639D01*
X158649349Y-81424791D01*
X158731749Y-81408401D01*
X158880075Y-81309292D01*
X158988546Y-81200821D01*
X158988546Y-81475428D01*
X159023348Y-81650391D01*
X159056241Y-81699618D01*
X159056241Y-81938483D01*
X159007331Y-81987393D01*
X158865414Y-81987393D01*
X158690451Y-82022195D01*
X158542125Y-82121304D01*
X145802395Y-94861034D01*
X145781864Y-94840467D01*
X145515896Y-94730028D01*
X145227911Y-94729777D01*
X144961751Y-94839752D01*
X144757937Y-95043210D01*
X144647498Y-95309178D01*
X144647247Y-95597163D01*
X144757222Y-95863323D01*
X144960680Y-96067137D01*
X145226648Y-96177576D01*
X145514633Y-96177827D01*
X145780793Y-96067852D01*
X145958251Y-95890704D01*
X146031168Y-95876200D01*
X146179494Y-95777091D01*
X159054792Y-82901793D01*
X159196709Y-82901793D01*
X159371672Y-82866991D01*
X159519998Y-82767882D01*
X159575989Y-82711891D01*
X159575989Y-83289554D01*
X145432576Y-97432967D01*
X145211960Y-97432775D01*
X144945800Y-97542750D01*
X144741986Y-97746208D01*
X144631547Y-98012176D01*
X144631296Y-98300161D01*
X144741271Y-98566321D01*
X144944729Y-98770135D01*
X145210697Y-98880574D01*
X145498682Y-98880825D01*
X145764842Y-98770850D01*
X145968656Y-98567392D01*
X146079095Y-98301424D01*
X146079289Y-98079410D01*
X160356478Y-83802221D01*
X160455587Y-83653895D01*
X160490389Y-83478932D01*
X160490389Y-68323977D01*
X160572943Y-68523280D01*
X160867823Y-68654972D01*
X161715617Y-67807178D01*
X161714703Y-68167302D01*
X161047428Y-68834577D01*
X161179120Y-69129457D01*
X161711742Y-69333922D01*
X161702023Y-73163316D01*
X161307005Y-73326534D01*
X160842166Y-73790563D01*
X160590287Y-74397155D01*
X160589714Y-75053963D01*
X160840534Y-75660995D01*
X161304563Y-76125834D01*
X161694094Y-76287581D01*
X161689319Y-78168565D01*
X161307005Y-78326534D01*
X160842166Y-78790563D01*
X160590287Y-79397155D01*
X160589714Y-80053963D01*
X160840534Y-80660995D01*
X161304563Y-81125834D01*
X161681417Y-81282317D01*
X161676616Y-83173814D01*
X161307005Y-83326534D01*
X160842166Y-83790563D01*
X160590287Y-84397155D01*
X160589714Y-85053963D01*
X160840534Y-85660995D01*
X161304563Y-86125834D01*
X161668740Y-86277053D01*
X161663912Y-88179063D01*
X161307005Y-88326534D01*
X160842166Y-88790563D01*
X160590287Y-89397155D01*
X160589714Y-90053963D01*
X160840534Y-90660995D01*
X161304563Y-91125834D01*
X161656063Y-91271789D01*
X161651208Y-93184312D01*
X161307005Y-93326534D01*
X160842166Y-93790563D01*
X160590287Y-94397155D01*
X160589714Y-95053963D01*
X160840534Y-95660995D01*
X161304563Y-96125834D01*
X161643386Y-96266525D01*
X161638505Y-98189561D01*
X161307005Y-98326534D01*
X160842166Y-98790563D01*
X160590287Y-99397155D01*
X160589714Y-100053963D01*
X160840534Y-100660995D01*
X161304563Y-101125834D01*
X161630709Y-101261261D01*
X161626662Y-102855426D01*
X159995618Y-101224382D01*
X159853207Y-101129226D01*
X159707206Y-101031671D01*
X159367000Y-100964000D01*
X155764000Y-100964000D01*
X155423794Y-101031671D01*
X155135382Y-101224382D01*
X154942671Y-101512794D01*
X154875000Y-101853000D01*
X154942671Y-102193206D01*
X155135382Y-102481618D01*
X155423794Y-102674329D01*
X155764000Y-102742000D01*
X158998764Y-102742000D01*
X160608957Y-104352193D01*
X160590287Y-104397155D01*
X160589714Y-105053963D01*
X160840534Y-105660995D01*
X161304563Y-106125834D01*
X161618032Y-106255998D01*
X161613097Y-108200059D01*
X161307005Y-108326534D01*
X160842166Y-108790563D01*
X160590287Y-109397155D01*
X160589714Y-110053963D01*
X160840534Y-110660995D01*
X161304563Y-111125834D01*
X161839472Y-111347948D01*
X161840760Y-111348817D01*
X161842290Y-111349118D01*
X161911155Y-111377713D01*
X161988071Y-111377780D01*
X161989159Y-111377994D01*
X162021731Y-111377809D01*
X162567963Y-111378286D01*
X162576726Y-111374665D01*
X166295959Y-111353594D01*
X166432088Y-111327618D01*
X166559314Y-111245845D01*
X166644703Y-111121018D01*
X166674800Y-110972803D01*
X166698005Y-67463245D01*
X166813000Y-67348250D01*
X166813000Y-66499000D01*
X167067000Y-66499000D01*
X167067000Y-67348250D01*
X167225750Y-67507000D01*
X167866310Y-67507000D01*
X168099699Y-67410327D01*
X168278327Y-67231698D01*
X168375000Y-66998309D01*
X168375000Y-66657750D01*
X168216250Y-66499000D01*
X167067000Y-66499000D01*
X166813000Y-66499000D01*
X166793000Y-66499000D01*
X166793000Y-66245000D01*
X166813000Y-66245000D01*
X166813000Y-65395750D01*
X167067000Y-65395750D01*
X167067000Y-66245000D01*
X168216250Y-66245000D01*
X168375000Y-66086250D01*
X168375000Y-65745691D01*
X168278327Y-65512302D01*
X168099699Y-65333673D01*
X167866310Y-65237000D01*
X167225750Y-65237000D01*
X167067000Y-65395750D01*
X166813000Y-65395750D01*
X166699168Y-65281918D01*
X166699713Y-64261000D01*
X167240000Y-64261000D01*
X167242695Y-64260464D01*
X167740000Y-64260464D01*
X167881190Y-64233897D01*
X168010865Y-64150454D01*
X168097859Y-64023134D01*
X168128464Y-63872000D01*
X168128464Y-63374695D01*
X168129000Y-63372000D01*
X168128464Y-63369305D01*
X168128464Y-62872000D01*
X168101897Y-62730810D01*
X168018454Y-62601135D01*
X167891134Y-62514141D01*
X167740000Y-62483536D01*
X167242695Y-62483536D01*
X167240000Y-62483000D01*
X165983814Y-62483000D01*
X164159240Y-60687442D01*
X164040230Y-60608017D01*
X163892000Y-60578000D01*
X162114000Y-60578000D01*
X161976424Y-60603706D01*
X161849034Y-60685223D01*
X161763395Y-60809879D01*
X161746049Y-60894430D01*
X161281605Y-61086334D01*
X160816766Y-61550363D01*
X160644139Y-61966095D01*
X160644139Y-59892431D01*
X161888440Y-58648131D01*
X162109055Y-58648323D01*
X162375215Y-58538348D01*
X162579029Y-58334890D01*
X162689468Y-58068922D01*
X162689719Y-57780937D01*
X162579744Y-57514777D01*
X162376286Y-57310963D01*
X162110318Y-57200524D01*
X161948201Y-57200383D01*
X162119682Y-57029201D01*
X162221618Y-56783710D01*
X163006708Y-56783710D01*
X163036583Y-56856012D01*
X163240041Y-57059826D01*
X163506009Y-57170265D01*
X163793994Y-57170516D01*
X163911936Y-57121784D01*
X163809917Y-57223624D01*
X163699478Y-57489592D01*
X163699227Y-57777577D01*
X163809202Y-58043737D01*
X164012660Y-58247551D01*
X164278628Y-58357990D01*
X164566613Y-58358241D01*
X164832773Y-58248266D01*
X165002608Y-58078727D01*
X165113781Y-58056614D01*
X165262107Y-57957505D01*
X166200289Y-57019323D01*
X166249239Y-56946064D01*
X166252000Y-56946064D01*
X166393190Y-56919497D01*
X166513486Y-56842089D01*
X166620866Y-56915459D01*
X166689800Y-56929418D01*
X166689800Y-57568468D01*
X166724602Y-57743431D01*
X166823711Y-57891757D01*
X166852220Y-57920266D01*
X166852028Y-58140882D01*
X166962003Y-58407042D01*
X167118853Y-58564166D01*
X167118853Y-59623804D01*
X167153655Y-59798767D01*
X167252764Y-59947093D01*
X167489885Y-60184214D01*
X167489693Y-60404830D01*
X167599668Y-60670990D01*
X167803126Y-60874804D01*
X168069094Y-60985243D01*
X168357079Y-60985494D01*
X168623239Y-60875519D01*
X168827053Y-60672061D01*
X168852434Y-60610936D01*
X168866976Y-60616974D01*
X169154961Y-60617225D01*
X169421121Y-60507250D01*
X169624935Y-60303792D01*
X169735374Y-60037824D01*
X169735568Y-59815811D01*
X170249289Y-59302090D01*
X170348398Y-59153763D01*
X170353542Y-59127903D01*
X170383200Y-58978800D01*
X170383200Y-58372984D01*
X170465538Y-58407174D01*
X170753523Y-58407425D01*
X171019683Y-58297450D01*
X171223497Y-58093992D01*
X171333936Y-57828024D01*
X171334155Y-57577280D01*
X171375459Y-57515464D01*
X171380605Y-57489592D01*
X171410261Y-57340501D01*
X171410261Y-52382789D01*
X171375459Y-52207826D01*
X171366839Y-52194925D01*
X171276350Y-52059499D01*
X170903391Y-51686541D01*
X170903391Y-50374764D01*
X171161596Y-50116559D01*
X171260705Y-49968233D01*
X171295507Y-49793270D01*
X171295507Y-49208530D01*
X171260705Y-49033567D01*
X171161596Y-48885241D01*
X170844864Y-48568509D01*
X170696538Y-48469400D01*
X170521575Y-48434598D01*
X169912752Y-48434598D01*
X169830017Y-48451055D01*
X170010108Y-48181529D01*
X170159000Y-47433000D01*
X170010108Y-46684471D01*
X169586101Y-46049899D01*
X168951529Y-45625892D01*
X168203000Y-45477000D01*
X167454471Y-45625892D01*
X166819899Y-46049899D01*
X166395892Y-46684471D01*
X166247000Y-47433000D01*
X166395892Y-48181529D01*
X166819899Y-48816101D01*
X167286671Y-49127988D01*
X166924412Y-49127988D01*
X166749449Y-49162790D01*
X166601123Y-49261899D01*
X165993886Y-49869136D01*
X165502000Y-49869136D01*
X165493214Y-49870789D01*
X165341699Y-49719273D01*
X165108310Y-49622600D01*
X164892750Y-49622600D01*
X164734000Y-49781350D01*
X164734000Y-51330600D01*
X164754000Y-51330600D01*
X164754000Y-51584600D01*
X164734000Y-51584600D01*
X164734000Y-53133850D01*
X164892750Y-53292600D01*
X165108310Y-53292600D01*
X165341699Y-53195927D01*
X165384556Y-53153070D01*
X165384377Y-53358670D01*
X165494352Y-53624830D01*
X165638406Y-53769136D01*
X165502000Y-53769136D01*
X165360810Y-53795703D01*
X165240514Y-53873111D01*
X165133134Y-53799741D01*
X164982000Y-53769136D01*
X164232000Y-53769136D01*
X164117883Y-53790609D01*
X164062302Y-53734931D01*
X163796334Y-53624492D01*
X163508349Y-53624241D01*
X163502939Y-53626476D01*
X162111010Y-52234547D01*
X162111140Y-52085711D01*
X162001165Y-51819551D01*
X161925098Y-51743350D01*
X163597000Y-51743350D01*
X163597000Y-52783909D01*
X163693673Y-53017298D01*
X163872301Y-53195927D01*
X164105690Y-53292600D01*
X164321250Y-53292600D01*
X164480000Y-53133850D01*
X164480000Y-51584600D01*
X163755750Y-51584600D01*
X163597000Y-51743350D01*
X161925098Y-51743350D01*
X161797707Y-51615737D01*
X161531739Y-51505298D01*
X161243754Y-51505047D01*
X160977594Y-51615022D01*
X160773780Y-51818480D01*
X160663341Y-52084448D01*
X160663090Y-52372433D01*
X160773065Y-52638593D01*
X160976523Y-52842407D01*
X161242491Y-52952846D01*
X161392600Y-52952977D01*
X162927688Y-54488065D01*
X162927685Y-54491627D01*
X163037660Y-54757787D01*
X163241118Y-54961601D01*
X163507086Y-55072040D01*
X163718398Y-55072224D01*
X163327344Y-55463278D01*
X163228235Y-55611604D01*
X163197184Y-55767710D01*
X161849246Y-55767710D01*
X161687096Y-55799964D01*
X161654842Y-55806379D01*
X161522626Y-55894723D01*
X161362986Y-55894584D01*
X161096826Y-56004559D01*
X160893012Y-56208017D01*
X160782573Y-56473985D01*
X160782322Y-56761970D01*
X160892297Y-57028130D01*
X161095755Y-57231944D01*
X161361723Y-57342383D01*
X161523840Y-57342524D01*
X161352359Y-57513706D01*
X161241920Y-57779674D01*
X161241726Y-58001687D01*
X161045851Y-58197562D01*
X160938245Y-57937135D01*
X160734787Y-57733321D01*
X160468819Y-57622882D01*
X160180834Y-57622631D01*
X159914674Y-57732606D01*
X159710860Y-57936064D01*
X159600421Y-58202032D01*
X159600227Y-58424046D01*
X159087052Y-58937221D01*
X158987943Y-59085547D01*
X158960851Y-59221748D01*
X158797006Y-59385307D01*
X158686567Y-59651275D01*
X158686316Y-59939260D01*
X158796291Y-60205420D01*
X158980236Y-60389687D01*
X158824547Y-60454016D01*
X158620733Y-60657474D01*
X158510294Y-60923442D01*
X158510043Y-61211427D01*
X158620018Y-61477587D01*
X158797166Y-61655045D01*
X158811670Y-61727962D01*
X158910779Y-61876288D01*
X158988546Y-61954055D01*
X158988546Y-64149150D01*
X158927292Y-64087789D01*
X158661324Y-63977350D01*
X158373339Y-63977099D01*
X158107179Y-64087074D01*
X157903365Y-64290532D01*
X157831422Y-64463792D01*
X157810939Y-64414220D01*
X157607481Y-64210406D01*
X157341513Y-64099967D01*
X157053528Y-64099716D01*
X157044988Y-64103245D01*
X157044988Y-64033137D01*
X157306516Y-63771610D01*
X157482673Y-63844756D01*
X157770658Y-63845007D01*
X158036818Y-63735032D01*
X158240632Y-63531574D01*
X158351071Y-63265606D01*
X158351322Y-62977621D01*
X158241347Y-62711461D01*
X158084497Y-62554337D01*
X158084497Y-62460720D01*
X158049695Y-62285757D01*
X158010738Y-62227454D01*
X157950587Y-62137431D01*
X157571765Y-61758610D01*
X157571765Y-56828611D01*
X157674659Y-57077634D01*
X157878117Y-57281448D01*
X158144085Y-57391887D01*
X158432070Y-57392138D01*
X158698230Y-57282163D01*
X158902044Y-57078705D01*
X159012483Y-56812737D01*
X159012614Y-56662628D01*
X159344610Y-56330633D01*
X159425906Y-56208965D01*
X159454731Y-56165825D01*
X159493400Y-55971422D01*
X159493400Y-52881315D01*
X159624602Y-52750113D01*
X159773438Y-52750243D01*
X160039598Y-52640268D01*
X160243412Y-52436810D01*
X160353851Y-52170842D01*
X160354102Y-51882857D01*
X160244127Y-51616697D01*
X160138077Y-51510461D01*
X160138077Y-50131291D01*
X163597000Y-50131291D01*
X163597000Y-51171850D01*
X163755750Y-51330600D01*
X164480000Y-51330600D01*
X164480000Y-49781350D01*
X164321250Y-49622600D01*
X164105690Y-49622600D01*
X163872301Y-49719273D01*
X163693673Y-49897902D01*
X163597000Y-50131291D01*
X160138077Y-50131291D01*
X160138077Y-49318164D01*
X160099408Y-49123761D01*
X160099408Y-49123760D01*
X160038992Y-49033341D01*
X160631710Y-48440623D01*
X160741831Y-48275816D01*
X160780500Y-48081413D01*
X160780500Y-46996743D01*
X160885835Y-46891592D01*
X160996274Y-46625624D01*
X160996525Y-46337639D01*
X160886550Y-46071479D01*
X160683092Y-45867665D01*
X160417124Y-45757226D01*
X160129139Y-45756975D01*
X159862979Y-45866950D01*
X159659165Y-46070408D01*
X159555910Y-46319076D01*
X159402819Y-46255507D01*
X159114834Y-46255256D01*
X158848674Y-46365231D01*
X158644860Y-46568689D01*
X158534421Y-46834657D01*
X158534290Y-46984766D01*
X158230372Y-47288684D01*
X158206592Y-47264863D01*
X157940624Y-47154424D01*
X157652639Y-47154173D01*
X157386479Y-47264148D01*
X157182665Y-47467606D01*
X157072226Y-47733574D01*
X157071975Y-48021559D01*
X157181950Y-48287719D01*
X157385408Y-48491533D01*
X157627934Y-48592238D01*
X157520225Y-48851631D01*
X157519974Y-49139616D01*
X157629949Y-49405776D01*
X157833407Y-49609590D01*
X158099375Y-49720029D01*
X158387360Y-49720280D01*
X158653520Y-49610305D01*
X158759756Y-49504255D01*
X159097748Y-49504255D01*
X159122077Y-49528584D01*
X159122077Y-51510475D01*
X159016742Y-51615626D01*
X158906303Y-51881594D01*
X158906172Y-52031703D01*
X158626190Y-52311685D01*
X158516069Y-52476492D01*
X158477400Y-52670895D01*
X158477400Y-55761001D01*
X158294184Y-55944218D01*
X158145348Y-55944088D01*
X157879188Y-56054063D01*
X157675374Y-56257521D01*
X157571765Y-56507040D01*
X157571765Y-56418542D01*
X157536963Y-56243579D01*
X157513871Y-56209020D01*
X157495474Y-56181486D01*
X157495691Y-55932282D01*
X157385716Y-55666122D01*
X157182258Y-55462308D01*
X156952152Y-55366760D01*
X157553617Y-54765295D01*
X157663738Y-54600488D01*
X157694760Y-54444529D01*
X157807742Y-54331744D01*
X157918181Y-54065776D01*
X157918432Y-53777791D01*
X157808457Y-53511631D01*
X157604999Y-53307817D01*
X157339031Y-53197378D01*
X157051046Y-53197127D01*
X156784886Y-53307102D01*
X156581072Y-53510560D01*
X156470633Y-53776528D01*
X156470382Y-54064513D01*
X156571890Y-54310182D01*
X155514546Y-55367526D01*
X155514546Y-54682799D01*
X155475877Y-54488396D01*
X155475877Y-54488395D01*
X155365756Y-54323588D01*
X154177304Y-53135137D01*
X154177434Y-52986301D01*
X154067459Y-52720141D01*
X153864001Y-52516327D01*
X153598033Y-52405888D01*
X153310048Y-52405637D01*
X153043888Y-52515612D01*
X152840074Y-52719070D01*
X152729635Y-52985038D01*
X152729384Y-53273023D01*
X152839359Y-53539183D01*
X153042817Y-53742997D01*
X153308785Y-53853436D01*
X153458894Y-53853567D01*
X154498546Y-54893220D01*
X154498546Y-55498448D01*
X154393211Y-55603599D01*
X154282772Y-55869567D01*
X154282521Y-56157552D01*
X154286053Y-56166101D01*
X153124550Y-56166101D01*
X153000816Y-56190713D01*
X153000816Y-55675158D01*
X152962147Y-55480755D01*
X152852026Y-55315948D01*
X152424416Y-54888338D01*
X152259609Y-54778217D01*
X152065206Y-54739548D01*
X151524971Y-54739548D01*
X152428512Y-53836007D01*
X152538633Y-53671201D01*
X152577302Y-53476797D01*
X152577302Y-52464732D01*
X152538633Y-52270329D01*
X152492709Y-52201599D01*
X152428512Y-52105521D01*
X152347271Y-52024280D01*
X153592382Y-52024280D01*
X154012772Y-52444670D01*
X154035002Y-52556430D01*
X154134111Y-52704756D01*
X154282437Y-52803865D01*
X154457400Y-52838667D01*
X155491481Y-52838667D01*
X155666444Y-52803865D01*
X155814770Y-52704756D01*
X157058946Y-51460580D01*
X157279562Y-51460772D01*
X157545722Y-51350797D01*
X157749536Y-51147339D01*
X157859975Y-50881371D01*
X157860226Y-50593386D01*
X157750251Y-50327226D01*
X157546793Y-50123412D01*
X157280825Y-50012973D01*
X156992840Y-50012722D01*
X156726680Y-50122697D01*
X156522866Y-50326155D01*
X156412427Y-50592123D01*
X156412233Y-50814137D01*
X155786656Y-51439714D01*
X155735568Y-51316073D01*
X155629518Y-51209837D01*
X155629518Y-48130312D01*
X155642406Y-48117424D01*
X155791242Y-48117554D01*
X156057402Y-48007579D01*
X156261216Y-47804121D01*
X156371655Y-47538153D01*
X156371906Y-47250168D01*
X156261931Y-46984008D01*
X156058473Y-46780194D01*
X155792505Y-46669755D01*
X155504520Y-46669504D01*
X155238360Y-46779479D01*
X155034546Y-46982937D01*
X154924107Y-47248905D01*
X154923976Y-47399014D01*
X154762308Y-47560682D01*
X154652187Y-47725489D01*
X154613518Y-47919892D01*
X154613518Y-51209851D01*
X154508183Y-51315002D01*
X154410796Y-51549538D01*
X154105049Y-51243791D01*
X153956723Y-51144682D01*
X153781760Y-51109880D01*
X152262501Y-51109880D01*
X152062618Y-50909998D01*
X151914292Y-50810889D01*
X151739329Y-50776087D01*
X150348351Y-50776087D01*
X150416135Y-50612843D01*
X150416266Y-50462734D01*
X151096061Y-49782939D01*
X151206182Y-49618132D01*
X151244851Y-49423729D01*
X151244851Y-49297215D01*
X151393392Y-49446016D01*
X151659360Y-49556455D01*
X151947345Y-49556706D01*
X152213505Y-49446731D01*
X152417319Y-49243273D01*
X152527758Y-48977305D01*
X152528009Y-48689320D01*
X152418034Y-48423160D01*
X152311984Y-48316924D01*
X152311984Y-48056298D01*
X152273315Y-47861895D01*
X152163194Y-47697088D01*
X151411572Y-46945466D01*
X151246765Y-46835345D01*
X151052362Y-46796676D01*
X150420098Y-46796676D01*
X150334081Y-46813786D01*
X150241170Y-46588923D01*
X150037712Y-46385109D01*
X149771744Y-46274670D01*
X149610797Y-46274530D01*
X149478624Y-46186214D01*
X149284221Y-46147545D01*
X148353355Y-46147545D01*
X148158952Y-46186214D01*
X147994145Y-46296335D01*
X147215554Y-47074926D01*
X147135754Y-47074926D01*
X147206533Y-46904471D01*
X147206784Y-46616486D01*
X147096809Y-46350326D01*
X146893351Y-46146512D01*
X146627383Y-46036073D01*
X146405369Y-46035879D01*
X146067007Y-45697517D01*
X145918681Y-45598408D01*
X145743718Y-45563606D01*
X142000194Y-45563606D01*
X141825231Y-45598408D01*
X141676904Y-45697517D01*
X141477622Y-45896800D01*
X139990121Y-45896800D01*
X139815158Y-45931602D01*
X139703985Y-46005886D01*
X139471052Y-46005683D01*
X139204892Y-46115658D01*
X139001078Y-46319116D01*
X138890639Y-46585084D01*
X138890388Y-46873069D01*
X139000363Y-47139229D01*
X139203821Y-47343043D01*
X139469789Y-47453482D01*
X139757774Y-47453733D01*
X140023934Y-47343758D01*
X140227748Y-47140300D01*
X140338187Y-46874332D01*
X140338242Y-46811200D01*
X141667000Y-46811200D01*
X141841963Y-46776398D01*
X141990289Y-46677289D01*
X142189573Y-46478006D01*
X143618607Y-46478006D01*
X143612705Y-46492220D01*
X143612454Y-46780205D01*
X143722429Y-47046365D01*
X143752419Y-47076407D01*
X143723144Y-47105631D01*
X143612705Y-47371599D01*
X143612454Y-47659584D01*
X143722429Y-47925744D01*
X143925887Y-48129558D01*
X144191855Y-48239997D01*
X144341964Y-48240128D01*
X144487983Y-48386147D01*
X144652790Y-48496268D01*
X144847193Y-48534937D01*
X147609889Y-48534937D01*
X147804292Y-48496268D01*
X147969099Y-48386147D01*
X148559790Y-47795456D01*
X148742207Y-47795456D01*
X148968450Y-48021699D01*
X149133257Y-48131820D01*
X149327660Y-48170489D01*
X150038672Y-48170489D01*
X150122801Y-48374098D01*
X150228851Y-48480334D01*
X150228851Y-49213309D01*
X149697836Y-49744324D01*
X149549000Y-49744194D01*
X149503966Y-49762801D01*
X149469828Y-49680180D01*
X149266370Y-49476366D01*
X149000402Y-49365927D01*
X148712417Y-49365676D01*
X148446257Y-49475651D01*
X148242443Y-49679109D01*
X148132004Y-49945077D01*
X148131810Y-50167091D01*
X147956600Y-50342301D01*
X146063127Y-50342301D01*
X145935431Y-50316901D01*
X142650927Y-50316901D01*
X142565673Y-50299943D01*
X139272727Y-50299943D01*
X139187473Y-50316901D01*
X138739327Y-50316901D01*
X138654073Y-50299943D01*
X137401990Y-50299943D01*
X137246128Y-50143808D01*
X136980160Y-50033369D01*
X136692175Y-50033118D01*
X136426015Y-50143093D01*
X136222201Y-50346551D01*
X136111762Y-50612519D01*
X136111511Y-50900504D01*
X136221486Y-51166664D01*
X136424944Y-51370478D01*
X136690912Y-51480917D01*
X136978897Y-51481168D01*
X137245057Y-51371193D01*
X137402181Y-51214343D01*
X137732163Y-51214343D01*
X136467446Y-52479061D01*
X136246830Y-52478869D01*
X135980670Y-52588844D01*
X135776856Y-52792302D01*
X135666417Y-53058270D01*
X135666166Y-53346255D01*
X135776141Y-53612415D01*
X135979599Y-53816229D01*
X136124328Y-53876325D01*
X135120248Y-54880405D01*
X135021139Y-55028731D01*
X134986337Y-55203694D01*
X117080283Y-55203694D01*
X117080283Y-53775551D01*
X117106925Y-53711390D01*
X117107176Y-53423405D01*
X116997201Y-53157245D01*
X116793743Y-52953431D01*
X116775000Y-52945648D01*
X116775000Y-51695743D01*
X116880335Y-51590592D01*
X116990774Y-51324624D01*
X116990905Y-51174515D01*
X117851372Y-50314048D01*
X118087894Y-50314254D01*
X118354054Y-50204279D01*
X118557868Y-50000821D01*
X118668307Y-49734853D01*
X118668558Y-49446868D01*
X118558583Y-49180708D01*
X118355125Y-48976894D01*
X118089157Y-48866455D01*
X117801172Y-48866204D01*
X117535012Y-48976179D01*
X117331198Y-49179637D01*
X117220759Y-49445605D01*
X117220705Y-49507875D01*
X116272475Y-50456105D01*
X116123639Y-50455975D01*
X115857479Y-50565950D01*
X115653665Y-50769408D01*
X115543226Y-51035376D01*
X115542975Y-51323361D01*
X112774500Y-51323361D01*
X112774500Y-47433000D01*
X114247000Y-47433000D01*
X114395892Y-48181529D01*
X114819899Y-48816101D01*
X115454471Y-49240108D01*
X116203000Y-49389000D01*
X116951529Y-49240108D01*
X117586101Y-48816101D01*
X118010108Y-48181529D01*
X118159000Y-47433000D01*
X118010108Y-46684471D01*
X117969944Y-46624361D01*
X121511975Y-46624361D01*
X121621950Y-46890521D01*
X121825408Y-47094335D01*
X122091376Y-47204774D01*
X122379361Y-47205025D01*
X122645521Y-47095050D01*
X122751757Y-46989000D01*
X124065112Y-46989000D01*
X124133228Y-47057235D01*
X124399196Y-47167674D01*
X124687181Y-47167925D01*
X124953341Y-47057950D01*
X125157155Y-46854492D01*
X125267594Y-46588524D01*
X125267845Y-46300539D01*
X125157870Y-46034379D01*
X124954412Y-45830565D01*
X124688444Y-45720126D01*
X124400459Y-45719875D01*
X124134299Y-45829850D01*
X123990899Y-45973000D01*
X122751743Y-45973000D01*
X122646592Y-45867665D01*
X122380624Y-45757226D01*
X122092639Y-45756975D01*
X121826479Y-45866950D01*
X121622665Y-46070408D01*
X121512226Y-46336376D01*
X121511975Y-46624361D01*
X117969944Y-46624361D01*
X117586101Y-46049899D01*
X116951529Y-45625892D01*
X116203000Y-45477000D01*
X115454471Y-45625892D01*
X114819899Y-46049899D01*
X114395892Y-46684471D01*
X114247000Y-47433000D01*
X112774500Y-47433000D01*
X112774500Y-44004500D01*
X171631500Y-44004500D01*
X171631500Y-113873000D01*
G36*
X157902650Y-65110645D02*
X158059500Y-65267769D01*
X158059500Y-65705862D01*
X158094302Y-65880825D01*
X158108903Y-65902676D01*
X157922176Y-65825141D01*
X157634191Y-65824890D01*
X157625651Y-65828419D01*
X157625651Y-65451642D01*
X157630921Y-65425149D01*
X157633856Y-65410393D01*
X157810224Y-65234333D01*
X157882167Y-65061073D01*
X157902650Y-65110645D01*
X157902650Y-65110645D01*
G37*
X157902650Y-65110645D02*
X158059500Y-65267769D01*
X158059500Y-65705862D01*
X158094302Y-65880825D01*
X158108903Y-65902676D01*
X157922176Y-65825141D01*
X157634191Y-65824890D01*
X157625651Y-65828419D01*
X157625651Y-65451642D01*
X157630921Y-65425149D01*
X157633856Y-65410393D01*
X157810224Y-65234333D01*
X157882167Y-65061073D01*
X157902650Y-65110645D01*
G36*
X156560995Y-62525238D02*
X156560995Y-63223973D01*
X156409384Y-63375585D01*
X155902749Y-62868950D01*
X155902749Y-62745211D01*
X155931809Y-62745236D01*
X156197969Y-62635261D01*
X156401783Y-62431803D01*
X156421082Y-62385325D01*
X156560995Y-62525238D01*
X156560995Y-62525238D01*
G37*
X156560995Y-62525238D02*
X156560995Y-63223973D01*
X156409384Y-63375585D01*
X155902749Y-62868950D01*
X155902749Y-62745211D01*
X155931809Y-62745236D01*
X156197969Y-62635261D01*
X156401783Y-62431803D01*
X156421082Y-62385325D01*
X156560995Y-62525238D01*
G36*
X165511227Y-62730658D02*
X165505000Y-62745691D01*
X165505000Y-63086250D01*
X165663750Y-63245000D01*
X166033881Y-63245000D01*
X166192172Y-63400774D01*
X166192120Y-63499000D01*
X165663750Y-63499000D01*
X165505000Y-63657750D01*
X165505000Y-63998309D01*
X165601673Y-64231698D01*
X165780301Y-64410327D01*
X166013690Y-64507000D01*
X166191582Y-64507000D01*
X166191061Y-65483536D01*
X166140000Y-65483536D01*
X165998810Y-65510103D01*
X165869135Y-65593546D01*
X165782141Y-65720866D01*
X165751536Y-65872000D01*
X165751536Y-66872000D01*
X165778103Y-67013190D01*
X165861546Y-67142865D01*
X165988866Y-67229859D01*
X166140000Y-67260464D01*
X166190113Y-67260464D01*
X166187783Y-71629044D01*
X166080592Y-71521665D01*
X165814624Y-71411226D01*
X165526639Y-71410975D01*
X165260479Y-71520950D01*
X165056665Y-71724408D01*
X164946226Y-71990376D01*
X164945975Y-72278361D01*
X165055950Y-72544521D01*
X165259408Y-72748335D01*
X165525376Y-72858774D01*
X165813361Y-72859025D01*
X166079521Y-72749050D01*
X166187243Y-72641516D01*
X166187241Y-72646523D01*
X165809764Y-73024000D01*
X165162000Y-73024000D01*
X164821794Y-73091671D01*
X164533382Y-73284382D01*
X164340671Y-73572794D01*
X164273000Y-73913000D01*
X164340671Y-74253206D01*
X164533382Y-74541618D01*
X164821794Y-74734329D01*
X165162000Y-74802000D01*
X166178000Y-74802000D01*
X166186092Y-74800390D01*
X166184929Y-76980693D01*
X166044618Y-76840382D01*
X165756205Y-76647671D01*
X165416000Y-76580000D01*
X165075795Y-76647671D01*
X164787382Y-76840382D01*
X164594671Y-77128795D01*
X164527000Y-77469000D01*
X164594671Y-77809205D01*
X164787382Y-78097618D01*
X166183589Y-79493825D01*
X166166867Y-110846317D01*
X163441165Y-110861760D01*
X163639834Y-110663437D01*
X163891713Y-110056845D01*
X163892286Y-109400037D01*
X163641466Y-108793005D01*
X163177437Y-108328166D01*
X162570845Y-108076287D01*
X162121415Y-108075895D01*
X162125070Y-106635686D01*
X162669632Y-106621436D01*
X163277480Y-106369657D01*
X163409172Y-106074777D01*
X162241000Y-104906605D01*
X162226858Y-104920748D01*
X162129669Y-104823559D01*
X162129914Y-104727000D01*
X162420605Y-104727000D01*
X163588777Y-105895172D01*
X163883657Y-105763480D01*
X164155261Y-105055964D01*
X164135436Y-104298368D01*
X163883657Y-103690520D01*
X163588777Y-103558828D01*
X162420605Y-104727000D01*
X162129914Y-104727000D01*
X162130161Y-104629949D01*
X162226858Y-104533253D01*
X162241000Y-104547395D01*
X163409172Y-103379223D01*
X163277480Y-103084343D01*
X162569964Y-102812739D01*
X162134744Y-102824128D01*
X162138415Y-101377911D01*
X162567963Y-101378286D01*
X163174995Y-101127466D01*
X163639834Y-100663437D01*
X163891713Y-100056845D01*
X163892286Y-99400037D01*
X163641466Y-98793005D01*
X163177437Y-98328166D01*
X162570845Y-98076287D01*
X162146795Y-98075917D01*
X162150452Y-96635022D01*
X162669632Y-96621436D01*
X163277480Y-96369657D01*
X163409172Y-96074777D01*
X162241000Y-94906605D01*
X162226858Y-94920748D01*
X162154986Y-94848876D01*
X162155295Y-94727000D01*
X162420605Y-94727000D01*
X163588777Y-95895172D01*
X163883657Y-95763480D01*
X164155261Y-95055964D01*
X164135436Y-94298368D01*
X163883657Y-93690520D01*
X163588777Y-93558828D01*
X162420605Y-94727000D01*
X162155295Y-94727000D01*
X162155606Y-94604504D01*
X162226858Y-94533253D01*
X162241000Y-94547395D01*
X163409172Y-93379223D01*
X163277480Y-93084343D01*
X162569964Y-92812739D01*
X162160126Y-92823464D01*
X162163795Y-91377933D01*
X162567963Y-91378286D01*
X163174995Y-91127466D01*
X163639834Y-90663437D01*
X163891713Y-90056845D01*
X163892286Y-89400037D01*
X163641466Y-88793005D01*
X163177437Y-88328166D01*
X162570845Y-88076287D01*
X162172176Y-88075939D01*
X162175835Y-86634358D01*
X162669632Y-86621436D01*
X163277480Y-86369657D01*
X163409172Y-86074777D01*
X162241000Y-84906605D01*
X162226858Y-84920748D01*
X162180302Y-84874192D01*
X162180675Y-84727000D01*
X162420605Y-84727000D01*
X163588777Y-85895172D01*
X163883657Y-85763480D01*
X164155261Y-85055964D01*
X164135436Y-84298368D01*
X163883657Y-83690520D01*
X163588777Y-83558828D01*
X162420605Y-84727000D01*
X162180675Y-84727000D01*
X162181051Y-84579059D01*
X162226858Y-84533253D01*
X162241000Y-84547395D01*
X163409172Y-83379223D01*
X163277480Y-83084343D01*
X162569964Y-82812739D01*
X162185509Y-82822800D01*
X162189176Y-81377956D01*
X162567963Y-81378286D01*
X163174995Y-81127466D01*
X163639834Y-80663437D01*
X163891713Y-80056845D01*
X163892286Y-79400037D01*
X163641466Y-78793005D01*
X163177437Y-78328166D01*
X162570845Y-78076287D01*
X162197556Y-78075961D01*
X162201217Y-76633694D01*
X162669632Y-76621436D01*
X163277480Y-76369657D01*
X163409172Y-76074777D01*
X162241000Y-74906605D01*
X162226858Y-74920748D01*
X162205618Y-74899508D01*
X162206055Y-74727000D01*
X162420605Y-74727000D01*
X163588777Y-75895172D01*
X163883657Y-75763480D01*
X164155261Y-75055964D01*
X164135436Y-74298368D01*
X163883657Y-73690520D01*
X163588777Y-73558828D01*
X162420605Y-74727000D01*
X162206055Y-74727000D01*
X162206496Y-74553614D01*
X162226858Y-74533253D01*
X162241000Y-74547395D01*
X163409172Y-73379223D01*
X163277480Y-73084343D01*
X162569964Y-72812739D01*
X162210891Y-72822135D01*
X162212743Y-72092359D01*
X162223376Y-72096774D01*
X162511361Y-72097025D01*
X162777521Y-71987050D01*
X162981335Y-71783592D01*
X163091774Y-71517624D01*
X163092025Y-71229639D01*
X162982050Y-70963479D01*
X162876000Y-70857243D01*
X162876000Y-70364743D01*
X162981335Y-70259592D01*
X163091774Y-69993624D01*
X163092025Y-69705639D01*
X162982050Y-69439479D01*
X162778592Y-69235665D01*
X162543080Y-69137872D01*
X163149595Y-68887266D01*
X163614434Y-68423237D01*
X163866313Y-67816645D01*
X163866886Y-67159837D01*
X163616066Y-66552805D01*
X163152037Y-66087966D01*
X162545445Y-65836087D01*
X162228623Y-65835811D01*
X162232287Y-64392016D01*
X162644232Y-64381236D01*
X163252080Y-64129457D01*
X163383772Y-63834577D01*
X162236614Y-62687419D01*
X162237594Y-62300904D01*
X162409348Y-62472658D01*
X162395205Y-62486800D01*
X163563377Y-63654972D01*
X163858257Y-63523280D01*
X164129861Y-62815764D01*
X164110036Y-62058168D01*
X163858257Y-61450320D01*
X163578270Y-61325279D01*
X163808707Y-61325480D01*
X164002129Y-61245560D01*
X165511227Y-62730658D01*
X165511227Y-62730658D01*
G37*
X165511227Y-62730658D02*
X165505000Y-62745691D01*
X165505000Y-63086250D01*
X165663750Y-63245000D01*
X166033881Y-63245000D01*
X166192172Y-63400774D01*
X166192120Y-63499000D01*
X165663750Y-63499000D01*
X165505000Y-63657750D01*
X165505000Y-63998309D01*
X165601673Y-64231698D01*
X165780301Y-64410327D01*
X166013690Y-64507000D01*
X166191582Y-64507000D01*
X166191061Y-65483536D01*
X166140000Y-65483536D01*
X165998810Y-65510103D01*
X165869135Y-65593546D01*
X165782141Y-65720866D01*
X165751536Y-65872000D01*
X165751536Y-66872000D01*
X165778103Y-67013190D01*
X165861546Y-67142865D01*
X165988866Y-67229859D01*
X166140000Y-67260464D01*
X166190113Y-67260464D01*
X166187783Y-71629044D01*
X166080592Y-71521665D01*
X165814624Y-71411226D01*
X165526639Y-71410975D01*
X165260479Y-71520950D01*
X165056665Y-71724408D01*
X164946226Y-71990376D01*
X164945975Y-72278361D01*
X165055950Y-72544521D01*
X165259408Y-72748335D01*
X165525376Y-72858774D01*
X165813361Y-72859025D01*
X166079521Y-72749050D01*
X166187243Y-72641516D01*
X166187241Y-72646523D01*
X165809764Y-73024000D01*
X165162000Y-73024000D01*
X164821794Y-73091671D01*
X164533382Y-73284382D01*
X164340671Y-73572794D01*
X164273000Y-73913000D01*
X164340671Y-74253206D01*
X164533382Y-74541618D01*
X164821794Y-74734329D01*
X165162000Y-74802000D01*
X166178000Y-74802000D01*
X166186092Y-74800390D01*
X166184929Y-76980693D01*
X166044618Y-76840382D01*
X165756205Y-76647671D01*
X165416000Y-76580000D01*
X165075795Y-76647671D01*
X164787382Y-76840382D01*
X164594671Y-77128795D01*
X164527000Y-77469000D01*
X164594671Y-77809205D01*
X164787382Y-78097618D01*
X166183589Y-79493825D01*
X166166867Y-110846317D01*
X163441165Y-110861760D01*
X163639834Y-110663437D01*
X163891713Y-110056845D01*
X163892286Y-109400037D01*
X163641466Y-108793005D01*
X163177437Y-108328166D01*
X162570845Y-108076287D01*
X162121415Y-108075895D01*
X162125070Y-106635686D01*
X162669632Y-106621436D01*
X163277480Y-106369657D01*
X163409172Y-106074777D01*
X162241000Y-104906605D01*
X162226858Y-104920748D01*
X162129669Y-104823559D01*
X162129914Y-104727000D01*
X162420605Y-104727000D01*
X163588777Y-105895172D01*
X163883657Y-105763480D01*
X164155261Y-105055964D01*
X164135436Y-104298368D01*
X163883657Y-103690520D01*
X163588777Y-103558828D01*
X162420605Y-104727000D01*
X162129914Y-104727000D01*
X162130161Y-104629949D01*
X162226858Y-104533253D01*
X162241000Y-104547395D01*
X163409172Y-103379223D01*
X163277480Y-103084343D01*
X162569964Y-102812739D01*
X162134744Y-102824128D01*
X162138415Y-101377911D01*
X162567963Y-101378286D01*
X163174995Y-101127466D01*
X163639834Y-100663437D01*
X163891713Y-100056845D01*
X163892286Y-99400037D01*
X163641466Y-98793005D01*
X163177437Y-98328166D01*
X162570845Y-98076287D01*
X162146795Y-98075917D01*
X162150452Y-96635022D01*
X162669632Y-96621436D01*
X163277480Y-96369657D01*
X163409172Y-96074777D01*
X162241000Y-94906605D01*
X162226858Y-94920748D01*
X162154986Y-94848876D01*
X162155295Y-94727000D01*
X162420605Y-94727000D01*
X163588777Y-95895172D01*
X163883657Y-95763480D01*
X164155261Y-95055964D01*
X164135436Y-94298368D01*
X163883657Y-93690520D01*
X163588777Y-93558828D01*
X162420605Y-94727000D01*
X162155295Y-94727000D01*
X162155606Y-94604504D01*
X162226858Y-94533253D01*
X162241000Y-94547395D01*
X163409172Y-93379223D01*
X163277480Y-93084343D01*
X162569964Y-92812739D01*
X162160126Y-92823464D01*
X162163795Y-91377933D01*
X162567963Y-91378286D01*
X163174995Y-91127466D01*
X163639834Y-90663437D01*
X163891713Y-90056845D01*
X163892286Y-89400037D01*
X163641466Y-88793005D01*
X163177437Y-88328166D01*
X162570845Y-88076287D01*
X162172176Y-88075939D01*
X162175835Y-86634358D01*
X162669632Y-86621436D01*
X163277480Y-86369657D01*
X163409172Y-86074777D01*
X162241000Y-84906605D01*
X162226858Y-84920748D01*
X162180302Y-84874192D01*
X162180675Y-84727000D01*
X162420605Y-84727000D01*
X163588777Y-85895172D01*
X163883657Y-85763480D01*
X164155261Y-85055964D01*
X164135436Y-84298368D01*
X163883657Y-83690520D01*
X163588777Y-83558828D01*
X162420605Y-84727000D01*
X162180675Y-84727000D01*
X162181051Y-84579059D01*
X162226858Y-84533253D01*
X162241000Y-84547395D01*
X163409172Y-83379223D01*
X163277480Y-83084343D01*
X162569964Y-82812739D01*
X162185509Y-82822800D01*
X162189176Y-81377956D01*
X162567963Y-81378286D01*
X163174995Y-81127466D01*
X163639834Y-80663437D01*
X163891713Y-80056845D01*
X163892286Y-79400037D01*
X163641466Y-78793005D01*
X163177437Y-78328166D01*
X162570845Y-78076287D01*
X162197556Y-78075961D01*
X162201217Y-76633694D01*
X162669632Y-76621436D01*
X163277480Y-76369657D01*
X163409172Y-76074777D01*
X162241000Y-74906605D01*
X162226858Y-74920748D01*
X162205618Y-74899508D01*
X162206055Y-74727000D01*
X162420605Y-74727000D01*
X163588777Y-75895172D01*
X163883657Y-75763480D01*
X164155261Y-75055964D01*
X164135436Y-74298368D01*
X163883657Y-73690520D01*
X163588777Y-73558828D01*
X162420605Y-74727000D01*
X162206055Y-74727000D01*
X162206496Y-74553614D01*
X162226858Y-74533253D01*
X162241000Y-74547395D01*
X163409172Y-73379223D01*
X163277480Y-73084343D01*
X162569964Y-72812739D01*
X162210891Y-72822135D01*
X162212743Y-72092359D01*
X162223376Y-72096774D01*
X162511361Y-72097025D01*
X162777521Y-71987050D01*
X162981335Y-71783592D01*
X163091774Y-71517624D01*
X163092025Y-71229639D01*
X162982050Y-70963479D01*
X162876000Y-70857243D01*
X162876000Y-70364743D01*
X162981335Y-70259592D01*
X163091774Y-69993624D01*
X163092025Y-69705639D01*
X162982050Y-69439479D01*
X162778592Y-69235665D01*
X162543080Y-69137872D01*
X163149595Y-68887266D01*
X163614434Y-68423237D01*
X163866313Y-67816645D01*
X163866886Y-67159837D01*
X163616066Y-66552805D01*
X163152037Y-66087966D01*
X162545445Y-65836087D01*
X162228623Y-65835811D01*
X162232287Y-64392016D01*
X162644232Y-64381236D01*
X163252080Y-64129457D01*
X163383772Y-63834577D01*
X162236614Y-62687419D01*
X162237594Y-62300904D01*
X162409348Y-62472658D01*
X162395205Y-62486800D01*
X163563377Y-63654972D01*
X163858257Y-63523280D01*
X164129861Y-62815764D01*
X164110036Y-62058168D01*
X163858257Y-61450320D01*
X163578270Y-61325279D01*
X163808707Y-61325480D01*
X164002129Y-61245560D01*
X165511227Y-62730658D01*
G36*
X122483527Y-73203215D02*
X121909037Y-73202714D01*
X121302005Y-73453534D01*
X120837166Y-73917563D01*
X120585287Y-74524155D01*
X120584714Y-75180963D01*
X120835534Y-75787995D01*
X121299563Y-76252834D01*
X121906155Y-76504713D01*
X122473272Y-76505208D01*
X122468809Y-77942255D01*
X121807368Y-77959564D01*
X121199520Y-78211343D01*
X121067828Y-78506223D01*
X122236000Y-79674395D01*
X122250143Y-79660253D01*
X122429748Y-79839858D01*
X122415605Y-79854000D01*
X122429748Y-79868143D01*
X122250143Y-80047748D01*
X122236000Y-80033605D01*
X121067828Y-81201777D01*
X121199520Y-81496657D01*
X121907036Y-81768261D01*
X122456972Y-81753870D01*
X122452471Y-83203188D01*
X121909037Y-83202714D01*
X121302005Y-83453534D01*
X120837166Y-83917563D01*
X120585287Y-84524155D01*
X120584714Y-85180963D01*
X120835534Y-85787995D01*
X121299563Y-86252834D01*
X121906155Y-86504713D01*
X122442216Y-86505181D01*
X122437751Y-87943068D01*
X121807368Y-87959564D01*
X121199520Y-88211343D01*
X121067828Y-88506223D01*
X122236000Y-89674395D01*
X122250143Y-89660253D01*
X122429748Y-89839858D01*
X122415605Y-89854000D01*
X122429748Y-89868143D01*
X122250143Y-90047748D01*
X122236000Y-90033605D01*
X121067828Y-91201777D01*
X121199520Y-91496657D01*
X121907036Y-91768261D01*
X122425914Y-91754683D01*
X122421415Y-93203161D01*
X121909037Y-93202714D01*
X121302005Y-93453534D01*
X120837166Y-93917563D01*
X120585287Y-94524155D01*
X120584714Y-95180963D01*
X120835534Y-95787995D01*
X121299563Y-96252834D01*
X121906155Y-96504713D01*
X122411161Y-96505154D01*
X122406693Y-97943881D01*
X121807368Y-97959564D01*
X121199520Y-98211343D01*
X121067828Y-98506223D01*
X122236000Y-99674395D01*
X122250143Y-99660253D01*
X122400894Y-99811004D01*
X122400626Y-99897264D01*
X122250143Y-100047748D01*
X122236000Y-100033605D01*
X121067828Y-101201777D01*
X121199520Y-101496657D01*
X121907036Y-101768261D01*
X122394855Y-101755496D01*
X122390360Y-103203134D01*
X121909037Y-103202714D01*
X121302005Y-103453534D01*
X120837166Y-103917563D01*
X120585287Y-104524155D01*
X120584714Y-105180963D01*
X120835534Y-105787995D01*
X121299563Y-106252834D01*
X121906155Y-106504713D01*
X122380105Y-106505126D01*
X122375634Y-107944693D01*
X121807368Y-107959564D01*
X121199520Y-108211343D01*
X121067828Y-108506223D01*
X122236000Y-109674395D01*
X122250143Y-109660253D01*
X122369935Y-109780045D01*
X122369474Y-109928416D01*
X122250143Y-110047748D01*
X122236000Y-110033605D01*
X121067828Y-111201777D01*
X121199520Y-111496657D01*
X121552082Y-111632000D01*
X118426000Y-111632000D01*
X118426000Y-109525036D01*
X120321739Y-109525036D01*
X120341564Y-110282632D01*
X120593343Y-110890480D01*
X120888223Y-111022172D01*
X122056395Y-109854000D01*
X120888223Y-108685828D01*
X120593343Y-108817520D01*
X120321739Y-109525036D01*
X118426000Y-109525036D01*
X118426000Y-106468407D01*
X118452282Y-106457548D01*
X118656096Y-106254090D01*
X118766535Y-105988122D01*
X118766786Y-105700137D01*
X118656811Y-105433977D01*
X118453353Y-105230163D01*
X118426000Y-105218805D01*
X118426000Y-102434629D01*
X118596335Y-102264592D01*
X118706774Y-101998624D01*
X118707025Y-101710639D01*
X118597050Y-101444479D01*
X118491000Y-101338243D01*
X118491000Y-99525036D01*
X120321739Y-99525036D01*
X120341564Y-100282632D01*
X120593343Y-100890480D01*
X120888223Y-101022172D01*
X122056395Y-99854000D01*
X120888223Y-98685828D01*
X120593343Y-98817520D01*
X120321739Y-99525036D01*
X118491000Y-99525036D01*
X118491000Y-92209743D01*
X118596335Y-92104592D01*
X118706774Y-91838624D01*
X118707025Y-91550639D01*
X118597050Y-91284479D01*
X118426000Y-91113130D01*
X118426000Y-89525036D01*
X120321739Y-89525036D01*
X120341564Y-90282632D01*
X120593343Y-90890480D01*
X120888223Y-91022172D01*
X122056395Y-89854000D01*
X120888223Y-88685828D01*
X120593343Y-88817520D01*
X120321739Y-89525036D01*
X118426000Y-89525036D01*
X118426000Y-82186692D01*
X118519521Y-82148050D01*
X118723335Y-81944592D01*
X118833774Y-81678624D01*
X118834025Y-81390639D01*
X118724050Y-81124479D01*
X118618000Y-81018243D01*
X118618000Y-79525036D01*
X120321739Y-79525036D01*
X120341564Y-80282632D01*
X120593343Y-80890480D01*
X120888223Y-81022172D01*
X122056395Y-79854000D01*
X120888223Y-78685828D01*
X120593343Y-78817520D01*
X120321739Y-79525036D01*
X118618000Y-79525036D01*
X118618000Y-73625165D01*
X118664701Y-73512696D01*
X118664952Y-73224711D01*
X118554977Y-72958551D01*
X118426000Y-72829348D01*
X118426000Y-71246000D01*
X122489605Y-71246000D01*
X122483527Y-73203215D01*
X122483527Y-73203215D01*
G37*
X122483527Y-73203215D02*
X121909037Y-73202714D01*
X121302005Y-73453534D01*
X120837166Y-73917563D01*
X120585287Y-74524155D01*
X120584714Y-75180963D01*
X120835534Y-75787995D01*
X121299563Y-76252834D01*
X121906155Y-76504713D01*
X122473272Y-76505208D01*
X122468809Y-77942255D01*
X121807368Y-77959564D01*
X121199520Y-78211343D01*
X121067828Y-78506223D01*
X122236000Y-79674395D01*
X122250143Y-79660253D01*
X122429748Y-79839858D01*
X122415605Y-79854000D01*
X122429748Y-79868143D01*
X122250143Y-80047748D01*
X122236000Y-80033605D01*
X121067828Y-81201777D01*
X121199520Y-81496657D01*
X121907036Y-81768261D01*
X122456972Y-81753870D01*
X122452471Y-83203188D01*
X121909037Y-83202714D01*
X121302005Y-83453534D01*
X120837166Y-83917563D01*
X120585287Y-84524155D01*
X120584714Y-85180963D01*
X120835534Y-85787995D01*
X121299563Y-86252834D01*
X121906155Y-86504713D01*
X122442216Y-86505181D01*
X122437751Y-87943068D01*
X121807368Y-87959564D01*
X121199520Y-88211343D01*
X121067828Y-88506223D01*
X122236000Y-89674395D01*
X122250143Y-89660253D01*
X122429748Y-89839858D01*
X122415605Y-89854000D01*
X122429748Y-89868143D01*
X122250143Y-90047748D01*
X122236000Y-90033605D01*
X121067828Y-91201777D01*
X121199520Y-91496657D01*
X121907036Y-91768261D01*
X122425914Y-91754683D01*
X122421415Y-93203161D01*
X121909037Y-93202714D01*
X121302005Y-93453534D01*
X120837166Y-93917563D01*
X120585287Y-94524155D01*
X120584714Y-95180963D01*
X120835534Y-95787995D01*
X121299563Y-96252834D01*
X121906155Y-96504713D01*
X122411161Y-96505154D01*
X122406693Y-97943881D01*
X121807368Y-97959564D01*
X121199520Y-98211343D01*
X121067828Y-98506223D01*
X122236000Y-99674395D01*
X122250143Y-99660253D01*
X122400894Y-99811004D01*
X122400626Y-99897264D01*
X122250143Y-100047748D01*
X122236000Y-100033605D01*
X121067828Y-101201777D01*
X121199520Y-101496657D01*
X121907036Y-101768261D01*
X122394855Y-101755496D01*
X122390360Y-103203134D01*
X121909037Y-103202714D01*
X121302005Y-103453534D01*
X120837166Y-103917563D01*
X120585287Y-104524155D01*
X120584714Y-105180963D01*
X120835534Y-105787995D01*
X121299563Y-106252834D01*
X121906155Y-106504713D01*
X122380105Y-106505126D01*
X122375634Y-107944693D01*
X121807368Y-107959564D01*
X121199520Y-108211343D01*
X121067828Y-108506223D01*
X122236000Y-109674395D01*
X122250143Y-109660253D01*
X122369935Y-109780045D01*
X122369474Y-109928416D01*
X122250143Y-110047748D01*
X122236000Y-110033605D01*
X121067828Y-111201777D01*
X121199520Y-111496657D01*
X121552082Y-111632000D01*
X118426000Y-111632000D01*
X118426000Y-109525036D01*
X120321739Y-109525036D01*
X120341564Y-110282632D01*
X120593343Y-110890480D01*
X120888223Y-111022172D01*
X122056395Y-109854000D01*
X120888223Y-108685828D01*
X120593343Y-108817520D01*
X120321739Y-109525036D01*
X118426000Y-109525036D01*
X118426000Y-106468407D01*
X118452282Y-106457548D01*
X118656096Y-106254090D01*
X118766535Y-105988122D01*
X118766786Y-105700137D01*
X118656811Y-105433977D01*
X118453353Y-105230163D01*
X118426000Y-105218805D01*
X118426000Y-102434629D01*
X118596335Y-102264592D01*
X118706774Y-101998624D01*
X118707025Y-101710639D01*
X118597050Y-101444479D01*
X118491000Y-101338243D01*
X118491000Y-99525036D01*
X120321739Y-99525036D01*
X120341564Y-100282632D01*
X120593343Y-100890480D01*
X120888223Y-101022172D01*
X122056395Y-99854000D01*
X120888223Y-98685828D01*
X120593343Y-98817520D01*
X120321739Y-99525036D01*
X118491000Y-99525036D01*
X118491000Y-92209743D01*
X118596335Y-92104592D01*
X118706774Y-91838624D01*
X118707025Y-91550639D01*
X118597050Y-91284479D01*
X118426000Y-91113130D01*
X118426000Y-89525036D01*
X120321739Y-89525036D01*
X120341564Y-90282632D01*
X120593343Y-90890480D01*
X120888223Y-91022172D01*
X122056395Y-89854000D01*
X120888223Y-88685828D01*
X120593343Y-88817520D01*
X120321739Y-89525036D01*
X118426000Y-89525036D01*
X118426000Y-82186692D01*
X118519521Y-82148050D01*
X118723335Y-81944592D01*
X118833774Y-81678624D01*
X118834025Y-81390639D01*
X118724050Y-81124479D01*
X118618000Y-81018243D01*
X118618000Y-79525036D01*
X120321739Y-79525036D01*
X120341564Y-80282632D01*
X120593343Y-80890480D01*
X120888223Y-81022172D01*
X122056395Y-79854000D01*
X120888223Y-78685828D01*
X120593343Y-78817520D01*
X120321739Y-79525036D01*
X118618000Y-79525036D01*
X118618000Y-73625165D01*
X118664701Y-73512696D01*
X118664952Y-73224711D01*
X118554977Y-72958551D01*
X118426000Y-72829348D01*
X118426000Y-71246000D01*
X122489605Y-71246000D01*
X122483527Y-73203215D01*
M02*
