G04 #@! TF.FileFunction,Legend,Top*
%FSLAX46Y46*%
G04 Gerber Fmt 4.6, Leading zero omitted, Abs format (unit mm)*
G04 Created by KiCad (PCBNEW 4.0.7-e2-6376~58~ubuntu16.04.1) date Fri Nov 24 15:55:31 2017*
%MOMM*%
%LPD*%
G01*
G04 APERTURE LIST*
%ADD10C,0.100000*%
%ADD11C,0.300000*%
%ADD12C,0.200000*%
%ADD13C,0.150000*%
%ADD14C,0.120000*%
G04 APERTURE END LIST*
D10*
D11*
X171248652Y-49220511D02*
X170391509Y-49220511D01*
X170820081Y-49220511D02*
X170820081Y-47720511D01*
X170677224Y-47934797D01*
X170534366Y-48077654D01*
X170391509Y-48149083D01*
X143734411Y-45781351D02*
X144020126Y-45781351D01*
X144162983Y-45709923D01*
X144234411Y-45638494D01*
X144377269Y-45424209D01*
X144448697Y-45138494D01*
X144448697Y-44567066D01*
X144377269Y-44424209D01*
X144305840Y-44352780D01*
X144162983Y-44281351D01*
X143877269Y-44281351D01*
X143734411Y-44352780D01*
X143662983Y-44424209D01*
X143591554Y-44567066D01*
X143591554Y-44924209D01*
X143662983Y-45067066D01*
X143734411Y-45138494D01*
X143877269Y-45209923D01*
X144162983Y-45209923D01*
X144305840Y-45138494D01*
X144377269Y-45067066D01*
X144448697Y-44924209D01*
X145091554Y-44995637D02*
X146234411Y-44995637D01*
X146234411Y-45424209D02*
X145091554Y-45424209D01*
X147734411Y-44352780D02*
X147591554Y-44281351D01*
X147377268Y-44281351D01*
X147162983Y-44352780D01*
X147020125Y-44495637D01*
X146948697Y-44638494D01*
X146877268Y-44924209D01*
X146877268Y-45138494D01*
X146948697Y-45424209D01*
X147020125Y-45567066D01*
X147162983Y-45709923D01*
X147377268Y-45781351D01*
X147520125Y-45781351D01*
X147734411Y-45709923D01*
X147805840Y-45638494D01*
X147805840Y-45138494D01*
X147520125Y-45138494D01*
X148448697Y-44781351D02*
X148448697Y-45781351D01*
X148448697Y-44924209D02*
X148520125Y-44852780D01*
X148662983Y-44781351D01*
X148877268Y-44781351D01*
X149020125Y-44852780D01*
X149091554Y-44995637D01*
X149091554Y-45781351D01*
X150448697Y-45781351D02*
X150448697Y-44281351D01*
X150448697Y-45709923D02*
X150305840Y-45781351D01*
X150020126Y-45781351D01*
X149877268Y-45709923D01*
X149805840Y-45638494D01*
X149734411Y-45495637D01*
X149734411Y-45067066D01*
X149805840Y-44924209D01*
X149877268Y-44852780D01*
X150020126Y-44781351D01*
X150305840Y-44781351D01*
X150448697Y-44852780D01*
X135263358Y-45758491D02*
X134406215Y-45758491D01*
X134834787Y-45758491D02*
X134834787Y-44258491D01*
X134691930Y-44472777D01*
X134549072Y-44615634D01*
X134406215Y-44687063D01*
X136191929Y-44258491D02*
X136334786Y-44258491D01*
X136477643Y-44329920D01*
X136549072Y-44401349D01*
X136620501Y-44544206D01*
X136691929Y-44829920D01*
X136691929Y-45187063D01*
X136620501Y-45472777D01*
X136549072Y-45615634D01*
X136477643Y-45687063D01*
X136334786Y-45758491D01*
X136191929Y-45758491D01*
X136049072Y-45687063D01*
X135977643Y-45615634D01*
X135906215Y-45472777D01*
X135834786Y-45187063D01*
X135834786Y-44829920D01*
X135906215Y-44544206D01*
X135977643Y-44401349D01*
X136049072Y-44329920D01*
X136191929Y-44258491D01*
X137334786Y-44972777D02*
X138477643Y-44972777D01*
X138477643Y-45401349D02*
X137334786Y-45401349D01*
X138977643Y-44258491D02*
X139477643Y-45758491D01*
X139977643Y-44258491D01*
X140477643Y-45758491D02*
X140477643Y-44258491D01*
X140834786Y-44258491D01*
X141049071Y-44329920D01*
X141191929Y-44472777D01*
X141263357Y-44615634D01*
X141334786Y-44901349D01*
X141334786Y-45115634D01*
X141263357Y-45401349D01*
X141191929Y-45544206D01*
X141049071Y-45687063D01*
X140834786Y-45758491D01*
X140477643Y-45758491D01*
X141977643Y-45758491D02*
X141977643Y-44258491D01*
X142334786Y-44258491D01*
X142549071Y-44329920D01*
X142691929Y-44472777D01*
X142763357Y-44615634D01*
X142834786Y-44901349D01*
X142834786Y-45115634D01*
X142763357Y-45401349D01*
X142691929Y-45544206D01*
X142549071Y-45687063D01*
X142334786Y-45758491D01*
X141977643Y-45758491D01*
X140634104Y-47121309D02*
X140491246Y-47049880D01*
X140419818Y-46978451D01*
X140348389Y-46835594D01*
X140348389Y-46764166D01*
X140419818Y-46621309D01*
X140491246Y-46549880D01*
X140634104Y-46478451D01*
X140919818Y-46478451D01*
X141062675Y-46549880D01*
X141134104Y-46621309D01*
X141205532Y-46764166D01*
X141205532Y-46835594D01*
X141134104Y-46978451D01*
X141062675Y-47049880D01*
X140919818Y-47121309D01*
X140634104Y-47121309D01*
X140491246Y-47192737D01*
X140419818Y-47264166D01*
X140348389Y-47407023D01*
X140348389Y-47692737D01*
X140419818Y-47835594D01*
X140491246Y-47907023D01*
X140634104Y-47978451D01*
X140919818Y-47978451D01*
X141062675Y-47907023D01*
X141134104Y-47835594D01*
X141205532Y-47692737D01*
X141205532Y-47407023D01*
X141134104Y-47264166D01*
X141062675Y-47192737D01*
X140919818Y-47121309D01*
X148054441Y-46392091D02*
X149054441Y-46392091D01*
X148411584Y-47892091D01*
X139700689Y-61193289D02*
X139772118Y-61121860D01*
X139914975Y-61050431D01*
X140272118Y-61050431D01*
X140414975Y-61121860D01*
X140486404Y-61193289D01*
X140557832Y-61336146D01*
X140557832Y-61479003D01*
X140486404Y-61693289D01*
X139629261Y-62550431D01*
X140557832Y-62550431D01*
X148883952Y-62502171D02*
X148026809Y-62502171D01*
X148455381Y-62502171D02*
X148455381Y-61002171D01*
X148312524Y-61216457D01*
X148169666Y-61359314D01*
X148026809Y-61430743D01*
X124480392Y-81534463D02*
X125623249Y-81534463D01*
X125051820Y-82105891D02*
X125051820Y-80963034D01*
X124571832Y-91257583D02*
X125714689Y-91257583D01*
X125143260Y-91829011D02*
X125143260Y-90686154D01*
X124495632Y-101392183D02*
X125638489Y-101392183D01*
X125067060Y-101963611D02*
X125067060Y-100820754D01*
X124416892Y-111775703D02*
X125559749Y-111775703D01*
X124988320Y-112347131D02*
X124988320Y-111204274D01*
X158447812Y-103246383D02*
X159590669Y-103246383D01*
X159019240Y-103817811D02*
X159019240Y-102674954D01*
X158488452Y-94577363D02*
X159631309Y-94577363D01*
X159059880Y-95148791D02*
X159059880Y-94005934D01*
X158572272Y-84610403D02*
X159715129Y-84610403D01*
X159143700Y-85181831D02*
X159143700Y-84038974D01*
X158643392Y-72647003D02*
X159786249Y-72647003D01*
X159214820Y-73218431D02*
X159214820Y-72075574D01*
X156952594Y-66999420D02*
X156809737Y-66927991D01*
X156595451Y-66927991D01*
X156381166Y-66999420D01*
X156238308Y-67142277D01*
X156166880Y-67285134D01*
X156095451Y-67570849D01*
X156095451Y-67785134D01*
X156166880Y-68070849D01*
X156238308Y-68213706D01*
X156381166Y-68356563D01*
X156595451Y-68427991D01*
X156738308Y-68427991D01*
X156952594Y-68356563D01*
X157024023Y-68285134D01*
X157024023Y-67785134D01*
X156738308Y-67785134D01*
X157666880Y-67427991D02*
X157666880Y-68427991D01*
X157666880Y-67570849D02*
X157738308Y-67499420D01*
X157881166Y-67427991D01*
X158095451Y-67427991D01*
X158238308Y-67499420D01*
X158309737Y-67642277D01*
X158309737Y-68427991D01*
X159666880Y-68427991D02*
X159666880Y-66927991D01*
X159666880Y-68356563D02*
X159524023Y-68427991D01*
X159238309Y-68427991D01*
X159095451Y-68356563D01*
X159024023Y-68285134D01*
X158952594Y-68142277D01*
X158952594Y-67713706D01*
X159024023Y-67570849D01*
X159095451Y-67499420D01*
X159238309Y-67427991D01*
X159524023Y-67427991D01*
X159666880Y-67499420D01*
X156381166Y-61291731D02*
X156881166Y-62791731D01*
X157381166Y-61291731D01*
X157881166Y-62791731D02*
X157881166Y-61791731D01*
X157881166Y-61291731D02*
X157809737Y-61363160D01*
X157881166Y-61434589D01*
X157952594Y-61363160D01*
X157881166Y-61291731D01*
X157881166Y-61434589D01*
X158595452Y-61791731D02*
X158595452Y-62791731D01*
X158595452Y-61934589D02*
X158666880Y-61863160D01*
X158809738Y-61791731D01*
X159024023Y-61791731D01*
X159166880Y-61863160D01*
X159238309Y-62006017D01*
X159238309Y-62791731D01*
D12*
X126268480Y-101917500D02*
X124762260Y-97370900D01*
D11*
X125134240Y-110701211D02*
X125134240Y-109201211D01*
X126134240Y-109201211D02*
X126419954Y-109201211D01*
X126562812Y-109272640D01*
X126705669Y-109415497D01*
X126777097Y-109701211D01*
X126777097Y-110201211D01*
X126705669Y-110486926D01*
X126562812Y-110629783D01*
X126419954Y-110701211D01*
X126134240Y-110701211D01*
X125991383Y-110629783D01*
X125848526Y-110486926D01*
X125777097Y-110201211D01*
X125777097Y-109701211D01*
X125848526Y-109415497D01*
X125991383Y-109272640D01*
X126134240Y-109201211D01*
X127705669Y-109201211D02*
X127848526Y-109201211D01*
X127991383Y-109272640D01*
X128062812Y-109344069D01*
X128134241Y-109486926D01*
X128205669Y-109772640D01*
X128205669Y-110129783D01*
X128134241Y-110415497D01*
X128062812Y-110558354D01*
X127991383Y-110629783D01*
X127848526Y-110701211D01*
X127705669Y-110701211D01*
X127562812Y-110629783D01*
X127491383Y-110558354D01*
X127419955Y-110415497D01*
X127348526Y-110129783D01*
X127348526Y-109772640D01*
X127419955Y-109486926D01*
X127491383Y-109344069D01*
X127562812Y-109272640D01*
X127705669Y-109201211D01*
X125825120Y-104018471D02*
X125825120Y-102518471D01*
X126825120Y-102518471D02*
X127110834Y-102518471D01*
X127253692Y-102589900D01*
X127396549Y-102732757D01*
X127467977Y-103018471D01*
X127467977Y-103518471D01*
X127396549Y-103804186D01*
X127253692Y-103947043D01*
X127110834Y-104018471D01*
X126825120Y-104018471D01*
X126682263Y-103947043D01*
X126539406Y-103804186D01*
X126467977Y-103518471D01*
X126467977Y-103018471D01*
X126539406Y-102732757D01*
X126682263Y-102589900D01*
X126825120Y-102518471D01*
X128896549Y-104018471D02*
X128039406Y-104018471D01*
X128467978Y-104018471D02*
X128467978Y-102518471D01*
X128325121Y-102732757D01*
X128182263Y-102875614D01*
X128039406Y-102947043D01*
X125230760Y-90178011D02*
X125230760Y-88678011D01*
X126230760Y-88678011D02*
X126516474Y-88678011D01*
X126659332Y-88749440D01*
X126802189Y-88892297D01*
X126873617Y-89178011D01*
X126873617Y-89678011D01*
X126802189Y-89963726D01*
X126659332Y-90106583D01*
X126516474Y-90178011D01*
X126230760Y-90178011D01*
X126087903Y-90106583D01*
X125945046Y-89963726D01*
X125873617Y-89678011D01*
X125873617Y-89178011D01*
X125945046Y-88892297D01*
X126087903Y-88749440D01*
X126230760Y-88678011D01*
X127445046Y-88820869D02*
X127516475Y-88749440D01*
X127659332Y-88678011D01*
X128016475Y-88678011D01*
X128159332Y-88749440D01*
X128230761Y-88820869D01*
X128302189Y-88963726D01*
X128302189Y-89106583D01*
X128230761Y-89320869D01*
X127373618Y-90178011D01*
X128302189Y-90178011D01*
X125162180Y-78313671D02*
X125162180Y-76813671D01*
X126162180Y-76813671D02*
X126447894Y-76813671D01*
X126590752Y-76885100D01*
X126733609Y-77027957D01*
X126805037Y-77313671D01*
X126805037Y-77813671D01*
X126733609Y-78099386D01*
X126590752Y-78242243D01*
X126447894Y-78313671D01*
X126162180Y-78313671D01*
X126019323Y-78242243D01*
X125876466Y-78099386D01*
X125805037Y-77813671D01*
X125805037Y-77313671D01*
X125876466Y-77027957D01*
X126019323Y-76885100D01*
X126162180Y-76813671D01*
X127305038Y-76813671D02*
X128233609Y-76813671D01*
X127733609Y-77385100D01*
X127947895Y-77385100D01*
X128090752Y-77456529D01*
X128162181Y-77527957D01*
X128233609Y-77670814D01*
X128233609Y-78027957D01*
X128162181Y-78170814D01*
X128090752Y-78242243D01*
X127947895Y-78313671D01*
X127519323Y-78313671D01*
X127376466Y-78242243D01*
X127305038Y-78170814D01*
X156333060Y-111625771D02*
X156333060Y-110125771D01*
X157333060Y-110125771D02*
X157618774Y-110125771D01*
X157761632Y-110197200D01*
X157904489Y-110340057D01*
X157975917Y-110625771D01*
X157975917Y-111125771D01*
X157904489Y-111411486D01*
X157761632Y-111554343D01*
X157618774Y-111625771D01*
X157333060Y-111625771D01*
X157190203Y-111554343D01*
X157047346Y-111411486D01*
X156975917Y-111125771D01*
X156975917Y-110625771D01*
X157047346Y-110340057D01*
X157190203Y-110197200D01*
X157333060Y-110125771D01*
X158475918Y-110125771D02*
X159475918Y-110125771D01*
X158833061Y-111625771D01*
X156333060Y-97472891D02*
X156333060Y-95972891D01*
X157333060Y-95972891D02*
X157618774Y-95972891D01*
X157761632Y-96044320D01*
X157904489Y-96187177D01*
X157975917Y-96472891D01*
X157975917Y-96972891D01*
X157904489Y-97258606D01*
X157761632Y-97401463D01*
X157618774Y-97472891D01*
X157333060Y-97472891D01*
X157190203Y-97401463D01*
X157047346Y-97258606D01*
X156975917Y-96972891D01*
X156975917Y-96472891D01*
X157047346Y-96187177D01*
X157190203Y-96044320D01*
X157333060Y-95972891D01*
X159261632Y-95972891D02*
X158975918Y-95972891D01*
X158833061Y-96044320D01*
X158761632Y-96115749D01*
X158618775Y-96330034D01*
X158547346Y-96615749D01*
X158547346Y-97187177D01*
X158618775Y-97330034D01*
X158690203Y-97401463D01*
X158833061Y-97472891D01*
X159118775Y-97472891D01*
X159261632Y-97401463D01*
X159333061Y-97330034D01*
X159404489Y-97187177D01*
X159404489Y-96830034D01*
X159333061Y-96687177D01*
X159261632Y-96615749D01*
X159118775Y-96544320D01*
X158833061Y-96544320D01*
X158690203Y-96615749D01*
X158618775Y-96687177D01*
X158547346Y-96830034D01*
X156333060Y-88087591D02*
X156333060Y-86587591D01*
X157333060Y-86587591D02*
X157618774Y-86587591D01*
X157761632Y-86659020D01*
X157904489Y-86801877D01*
X157975917Y-87087591D01*
X157975917Y-87587591D01*
X157904489Y-87873306D01*
X157761632Y-88016163D01*
X157618774Y-88087591D01*
X157333060Y-88087591D01*
X157190203Y-88016163D01*
X157047346Y-87873306D01*
X156975917Y-87587591D01*
X156975917Y-87087591D01*
X157047346Y-86801877D01*
X157190203Y-86659020D01*
X157333060Y-86587591D01*
X159333061Y-86587591D02*
X158618775Y-86587591D01*
X158547346Y-87301877D01*
X158618775Y-87230449D01*
X158761632Y-87159020D01*
X159118775Y-87159020D01*
X159261632Y-87230449D01*
X159333061Y-87301877D01*
X159404489Y-87444734D01*
X159404489Y-87801877D01*
X159333061Y-87944734D01*
X159261632Y-88016163D01*
X159118775Y-88087591D01*
X158761632Y-88087591D01*
X158618775Y-88016163D01*
X158547346Y-87944734D01*
X156333060Y-76360411D02*
X156333060Y-74860411D01*
X157333060Y-74860411D02*
X157618774Y-74860411D01*
X157761632Y-74931840D01*
X157904489Y-75074697D01*
X157975917Y-75360411D01*
X157975917Y-75860411D01*
X157904489Y-76146126D01*
X157761632Y-76288983D01*
X157618774Y-76360411D01*
X157333060Y-76360411D01*
X157190203Y-76288983D01*
X157047346Y-76146126D01*
X156975917Y-75860411D01*
X156975917Y-75360411D01*
X157047346Y-75074697D01*
X157190203Y-74931840D01*
X157333060Y-74860411D01*
X159261632Y-75360411D02*
X159261632Y-76360411D01*
X158904489Y-74788983D02*
X158547346Y-75860411D01*
X159475918Y-75860411D01*
D12*
X112448340Y-81900000D02*
X126037340Y-81900000D01*
X112448340Y-92200000D02*
X125996700Y-92200000D01*
X112448340Y-102300000D02*
X125996700Y-102300000D01*
X158097220Y-102300000D02*
X171645580Y-102300000D01*
X158097220Y-92200000D02*
X171645580Y-92200000D01*
X158097220Y-81900000D02*
X171686220Y-81900000D01*
D11*
X114482192Y-65540005D02*
X113625049Y-65540005D01*
X114053621Y-65540005D02*
X114053621Y-64040005D01*
X113910764Y-64254291D01*
X113767906Y-64397148D01*
X113625049Y-64468577D01*
X113495201Y-48830491D02*
X114495201Y-48830491D01*
X113852344Y-50330491D01*
X114250435Y-51365410D02*
X113964721Y-51365410D01*
X113821864Y-51436839D01*
X113750435Y-51508268D01*
X113607578Y-51722553D01*
X113536149Y-52008268D01*
X113536149Y-52579696D01*
X113607578Y-52722553D01*
X113679006Y-52793982D01*
X113821864Y-52865410D01*
X114107578Y-52865410D01*
X114250435Y-52793982D01*
X114321864Y-52722553D01*
X114393292Y-52579696D01*
X114393292Y-52222553D01*
X114321864Y-52079696D01*
X114250435Y-52008268D01*
X114107578Y-51936839D01*
X113821864Y-51936839D01*
X113679006Y-52008268D01*
X113607578Y-52079696D01*
X113536149Y-52222553D01*
X114321864Y-53900329D02*
X113607578Y-53900329D01*
X113536149Y-54614615D01*
X113607578Y-54543187D01*
X113750435Y-54471758D01*
X114107578Y-54471758D01*
X114250435Y-54543187D01*
X114321864Y-54614615D01*
X114393292Y-54757472D01*
X114393292Y-55114615D01*
X114321864Y-55257472D01*
X114250435Y-55328901D01*
X114107578Y-55400329D01*
X113750435Y-55400329D01*
X113607578Y-55328901D01*
X113536149Y-55257472D01*
X114250435Y-56935248D02*
X114250435Y-57935248D01*
X113893292Y-56363820D02*
X113536149Y-57435248D01*
X114464721Y-57435248D01*
X113464721Y-58970167D02*
X114393292Y-58970167D01*
X113893292Y-59541596D01*
X114107578Y-59541596D01*
X114250435Y-59613025D01*
X114321864Y-59684453D01*
X114393292Y-59827310D01*
X114393292Y-60184453D01*
X114321864Y-60327310D01*
X114250435Y-60398739D01*
X114107578Y-60470167D01*
X113679006Y-60470167D01*
X113536149Y-60398739D01*
X113464721Y-60327310D01*
X113536149Y-61647944D02*
X113607578Y-61576515D01*
X113750435Y-61505086D01*
X114107578Y-61505086D01*
X114250435Y-61576515D01*
X114321864Y-61647944D01*
X114393292Y-61790801D01*
X114393292Y-61933658D01*
X114321864Y-62147944D01*
X113464721Y-63005086D01*
X114393292Y-63005086D01*
X113893292Y-66574924D02*
X114036149Y-66574924D01*
X114179006Y-66646353D01*
X114250435Y-66717782D01*
X114321864Y-66860639D01*
X114393292Y-67146353D01*
X114393292Y-67503496D01*
X114321864Y-67789210D01*
X114250435Y-67932067D01*
X114179006Y-68003496D01*
X114036149Y-68074924D01*
X113893292Y-68074924D01*
X113750435Y-68003496D01*
X113679006Y-67932067D01*
X113607578Y-67789210D01*
X113536149Y-67503496D01*
X113536149Y-67146353D01*
X113607578Y-66860639D01*
X113679006Y-66717782D01*
X113750435Y-66646353D01*
X113893292Y-66574924D01*
X117884606Y-44479780D02*
X117741749Y-44408351D01*
X117527463Y-44408351D01*
X117313178Y-44479780D01*
X117170320Y-44622637D01*
X117098892Y-44765494D01*
X117027463Y-45051209D01*
X117027463Y-45265494D01*
X117098892Y-45551209D01*
X117170320Y-45694066D01*
X117313178Y-45836923D01*
X117527463Y-45908351D01*
X117670320Y-45908351D01*
X117884606Y-45836923D01*
X117956035Y-45765494D01*
X117956035Y-45265494D01*
X117670320Y-45265494D01*
X118598892Y-45908351D02*
X118598892Y-44408351D01*
X119170320Y-44408351D01*
X119313178Y-44479780D01*
X119384606Y-44551209D01*
X119456035Y-44694066D01*
X119456035Y-44908351D01*
X119384606Y-45051209D01*
X119313178Y-45122637D01*
X119170320Y-45194066D01*
X118598892Y-45194066D01*
X120098892Y-45908351D02*
X120098892Y-44408351D01*
X121098892Y-44408351D02*
X121384606Y-44408351D01*
X121527464Y-44479780D01*
X121670321Y-44622637D01*
X121741749Y-44908351D01*
X121741749Y-45408351D01*
X121670321Y-45694066D01*
X121527464Y-45836923D01*
X121384606Y-45908351D01*
X121098892Y-45908351D01*
X120956035Y-45836923D01*
X120813178Y-45694066D01*
X120741749Y-45408351D01*
X120741749Y-44908351D01*
X120813178Y-44622637D01*
X120956035Y-44479780D01*
X121098892Y-44408351D01*
X123384607Y-44408351D02*
X124384607Y-44408351D01*
X123741750Y-45908351D01*
X114412426Y-69554660D02*
X114269569Y-69483231D01*
X114055283Y-69483231D01*
X113840998Y-69554660D01*
X113698140Y-69697517D01*
X113626712Y-69840374D01*
X113555283Y-70126089D01*
X113555283Y-70340374D01*
X113626712Y-70626089D01*
X113698140Y-70768946D01*
X113840998Y-70911803D01*
X114055283Y-70983231D01*
X114198140Y-70983231D01*
X114412426Y-70911803D01*
X114483855Y-70840374D01*
X114483855Y-70340374D01*
X114198140Y-70340374D01*
X115126712Y-70983231D02*
X115126712Y-69483231D01*
X115698140Y-69483231D01*
X115840998Y-69554660D01*
X115912426Y-69626089D01*
X115983855Y-69768946D01*
X115983855Y-69983231D01*
X115912426Y-70126089D01*
X115840998Y-70197517D01*
X115698140Y-70268946D01*
X115126712Y-70268946D01*
X116626712Y-70983231D02*
X116626712Y-69483231D01*
X117626712Y-69483231D02*
X117912426Y-69483231D01*
X118055284Y-69554660D01*
X118198141Y-69697517D01*
X118269569Y-69983231D01*
X118269569Y-70483231D01*
X118198141Y-70768946D01*
X118055284Y-70911803D01*
X117912426Y-70983231D01*
X117626712Y-70983231D01*
X117483855Y-70911803D01*
X117340998Y-70768946D01*
X117269569Y-70483231D01*
X117269569Y-69983231D01*
X117340998Y-69697517D01*
X117483855Y-69554660D01*
X117626712Y-69483231D01*
X120340998Y-69483231D02*
X120483855Y-69483231D01*
X120626712Y-69554660D01*
X120698141Y-69626089D01*
X120769570Y-69768946D01*
X120840998Y-70054660D01*
X120840998Y-70411803D01*
X120769570Y-70697517D01*
X120698141Y-70840374D01*
X120626712Y-70911803D01*
X120483855Y-70983231D01*
X120340998Y-70983231D01*
X120198141Y-70911803D01*
X120126712Y-70840374D01*
X120055284Y-70697517D01*
X119983855Y-70411803D01*
X119983855Y-70054660D01*
X120055284Y-69768946D01*
X120126712Y-69626089D01*
X120198141Y-69554660D01*
X120340998Y-69483231D01*
D12*
X156591000Y-51943000D02*
X156083000Y-52324000D01*
X156718000Y-53594000D02*
X157099000Y-53213000D01*
X138557000Y-93345000D02*
X138303000Y-92964000D01*
X133985000Y-90932000D02*
X132595620Y-90426540D01*
X134366000Y-93345000D02*
X133985000Y-90932000D01*
X134239000Y-101727000D02*
X133604000Y-101727000D01*
X134239000Y-97536000D02*
X134620000Y-97028000D01*
X134239000Y-101727000D02*
X134239000Y-97536000D01*
X144145000Y-91440000D02*
X143256000Y-92202000D01*
X136550400Y-98524060D02*
X136144000Y-98298000D01*
X155702000Y-112852200D02*
X148971000Y-112852200D01*
X155702000Y-112839500D02*
X155702000Y-102997000D01*
X147574000Y-100457000D02*
X146939000Y-100457000D01*
X147574000Y-92075000D02*
X147574000Y-100457000D01*
X147066000Y-100457000D02*
X143637000Y-100457000D01*
X149860000Y-102362000D02*
X147574000Y-100457000D01*
D13*
X133290000Y-87385000D02*
X133315000Y-87385000D01*
X133290000Y-83235000D02*
X133395000Y-83235000D01*
X133290000Y-87385000D02*
X133290000Y-83235000D01*
X133315000Y-87385000D02*
X133315000Y-88760000D01*
X149625000Y-90936000D02*
X149625000Y-90961000D01*
X153775000Y-90936000D02*
X153775000Y-91041000D01*
X149625000Y-90936000D02*
X153775000Y-90936000D01*
X149625000Y-90961000D02*
X148250000Y-90961000D01*
X132218000Y-100959000D02*
X132218000Y-100934000D01*
X128068000Y-100959000D02*
X128068000Y-100854000D01*
X132218000Y-100959000D02*
X128068000Y-100959000D01*
X132218000Y-100934000D02*
X133593000Y-100934000D01*
D14*
X147049800Y-59981000D02*
X147049800Y-60511000D01*
X147049800Y-60511000D02*
X141849800Y-60511000D01*
X141849800Y-60511000D02*
X141849800Y-59981000D01*
X147049800Y-48221000D02*
X147049800Y-47691000D01*
X147049800Y-47691000D02*
X141849800Y-47691000D01*
X141849800Y-47691000D02*
X141849800Y-48221000D01*
X148719800Y-59981000D02*
X147049800Y-59981000D01*
D13*
X124236000Y-71314000D02*
X124236000Y-113394000D01*
X124236000Y-113394000D02*
X112236000Y-113394000D01*
X112236000Y-71314000D02*
X112236000Y-113394000D01*
X124236000Y-71314000D02*
X112236000Y-71314000D01*
X160241000Y-113267000D02*
X160241000Y-71187000D01*
X160241000Y-71187000D02*
X172241000Y-71187000D01*
X172241000Y-113267000D02*
X172241000Y-71187000D01*
X160241000Y-113267000D02*
X172241000Y-113267000D01*
D14*
X152270000Y-63897000D02*
X154170000Y-63897000D01*
X153670000Y-61577000D02*
X152270000Y-61577000D01*
X153567000Y-57111000D02*
X154067000Y-57111000D01*
X154067000Y-56171000D02*
X153567000Y-56171000D01*
X127151000Y-47239000D02*
X127151000Y-46739000D01*
X126211000Y-46739000D02*
X126211000Y-47239000D01*
X155125000Y-52107000D02*
X154625000Y-52107000D01*
X154625000Y-53047000D02*
X155125000Y-53047000D01*
X153305000Y-64553000D02*
X152805000Y-64553000D01*
X152805000Y-65493000D02*
X153305000Y-65493000D01*
X157842000Y-53174000D02*
X158342000Y-53174000D01*
X158342000Y-52234000D02*
X157842000Y-52234000D01*
X153694000Y-61175000D02*
X154194000Y-61175000D01*
X154194000Y-60235000D02*
X153694000Y-60235000D01*
X129562000Y-82418000D02*
X127562000Y-82418000D01*
X127562000Y-84458000D02*
X129562000Y-84458000D01*
X159451000Y-107274000D02*
X159451000Y-105274000D01*
X157411000Y-105274000D02*
X157411000Y-107274000D01*
X137918000Y-73190000D02*
X137418000Y-73190000D01*
X137418000Y-74130000D02*
X137918000Y-74130000D01*
X156310000Y-47035000D02*
X156310000Y-47535000D01*
X157250000Y-47535000D02*
X157250000Y-47035000D01*
X129610000Y-86101000D02*
X127610000Y-86101000D01*
X127610000Y-88141000D02*
X129610000Y-88141000D01*
X159951000Y-56933000D02*
X159451000Y-56933000D01*
X159451000Y-57873000D02*
X159951000Y-57873000D01*
X128421000Y-75907000D02*
X128921000Y-75907000D01*
X128921000Y-74967000D02*
X128421000Y-74967000D01*
X148656000Y-86192000D02*
X148656000Y-84192000D01*
X146616000Y-84192000D02*
X146616000Y-86192000D01*
X155887000Y-82208000D02*
X155887000Y-84208000D01*
X157927000Y-84208000D02*
X157927000Y-82208000D01*
X128165000Y-78862000D02*
X126165000Y-78862000D01*
X126165000Y-80902000D02*
X128165000Y-80902000D01*
X125026000Y-105576000D02*
X125026000Y-107576000D01*
X127066000Y-107576000D02*
X127066000Y-105576000D01*
X155760000Y-71032000D02*
X155760000Y-73032000D01*
X157800000Y-73032000D02*
X157800000Y-71032000D01*
X127572000Y-71063000D02*
X127572000Y-71993000D01*
X127572000Y-74223000D02*
X127572000Y-73293000D01*
X127572000Y-74223000D02*
X129732000Y-74223000D01*
X127572000Y-71063000D02*
X129032000Y-71063000D01*
X122258000Y-68008996D02*
X122258000Y-66608996D01*
X122258000Y-66608996D02*
X119458000Y-66608996D01*
X122258000Y-68008996D02*
X119458000Y-68008996D01*
X122258000Y-65471718D02*
X122258000Y-64071718D01*
X122258000Y-64071718D02*
X119458000Y-64071718D01*
X122258000Y-65471718D02*
X119458000Y-65471718D01*
X122258000Y-62870940D02*
X122258000Y-61470940D01*
X122258000Y-61470940D02*
X119458000Y-61470940D01*
X122258000Y-62870940D02*
X119458000Y-62870940D01*
X122249340Y-60423062D02*
X122249340Y-59023062D01*
X122249340Y-59023062D02*
X119449340Y-59023062D01*
X122249340Y-60423062D02*
X119449340Y-60423062D01*
X122241720Y-55292626D02*
X122241720Y-53892626D01*
X122241720Y-53892626D02*
X119441720Y-53892626D01*
X122241720Y-55292626D02*
X119441720Y-55292626D01*
X122272200Y-57859884D02*
X122272200Y-56459884D01*
X122272200Y-56459884D02*
X119472200Y-56459884D01*
X122272200Y-57859884D02*
X119472200Y-57859884D01*
X122258000Y-52756118D02*
X122258000Y-51356118D01*
X122258000Y-51356118D02*
X119458000Y-51356118D01*
X122258000Y-52756118D02*
X119458000Y-52756118D01*
X122258000Y-50229000D02*
X122258000Y-48829000D01*
X122258000Y-48829000D02*
X119458000Y-48829000D01*
X122258000Y-50229000D02*
X119458000Y-50229000D01*
X133412000Y-72202000D02*
X130812000Y-72202000D01*
X130812000Y-72202000D02*
X130812000Y-74862000D01*
X130812000Y-74862000D02*
X133412000Y-74862000D01*
X133412000Y-74862000D02*
X133412000Y-72202000D01*
X134682000Y-72202000D02*
X136012000Y-72202000D01*
X136012000Y-72202000D02*
X136012000Y-73532000D01*
D13*
X160215600Y-71026800D02*
X160215600Y-58946800D01*
X160215600Y-58866800D02*
X172215600Y-58866800D01*
X172215600Y-58866800D02*
X172215600Y-71026800D01*
X172215600Y-71026800D02*
X160215600Y-71026800D01*
D14*
X162418800Y-47337200D02*
X164318800Y-47337200D01*
X163818800Y-45017200D02*
X162418800Y-45017200D01*
X152270000Y-55769000D02*
X154170000Y-55769000D01*
X153670000Y-53449000D02*
X152270000Y-53449000D01*
X158874000Y-56404000D02*
X160774000Y-56404000D01*
X160274000Y-54084000D02*
X158874000Y-54084000D01*
X152210000Y-47656000D02*
X154110000Y-47656000D01*
X153610000Y-45336000D02*
X152210000Y-45336000D01*
X152270000Y-51451000D02*
X154170000Y-51451000D01*
X153670000Y-49131000D02*
X152270000Y-49131000D01*
X158934000Y-51832000D02*
X160834000Y-51832000D01*
X160334000Y-49512000D02*
X158934000Y-49512000D01*
X152270000Y-59833000D02*
X154170000Y-59833000D01*
X153670000Y-57513000D02*
X152270000Y-57513000D01*
X129558000Y-103261000D02*
X129558000Y-104191000D01*
X129558000Y-106421000D02*
X129558000Y-105491000D01*
X129558000Y-106421000D02*
X131718000Y-106421000D01*
X129558000Y-103261000D02*
X131018000Y-103261000D01*
X129542000Y-107005000D02*
X129542000Y-107935000D01*
X129542000Y-110165000D02*
X129542000Y-109235000D01*
X129542000Y-110165000D02*
X131702000Y-110165000D01*
X129542000Y-107005000D02*
X131002000Y-107005000D01*
X134860000Y-103195000D02*
X134860000Y-104125000D01*
X134860000Y-106355000D02*
X134860000Y-105425000D01*
X134860000Y-106355000D02*
X137020000Y-106355000D01*
X134860000Y-103195000D02*
X136320000Y-103195000D01*
X134860000Y-107005000D02*
X134860000Y-107935000D01*
X134860000Y-110165000D02*
X134860000Y-109235000D01*
X134860000Y-110165000D02*
X137020000Y-110165000D01*
X134860000Y-107005000D02*
X136320000Y-107005000D01*
X139940000Y-107005000D02*
X139940000Y-107935000D01*
X139940000Y-110165000D02*
X139940000Y-109235000D01*
X139940000Y-110165000D02*
X142100000Y-110165000D01*
X139940000Y-107005000D02*
X141400000Y-107005000D01*
X139956000Y-103195000D02*
X139956000Y-104125000D01*
X139956000Y-106355000D02*
X139956000Y-105425000D01*
X139956000Y-106355000D02*
X142116000Y-106355000D01*
X139956000Y-103195000D02*
X141416000Y-103195000D01*
X144782000Y-103195000D02*
X144782000Y-104125000D01*
X144782000Y-106355000D02*
X144782000Y-105425000D01*
X144782000Y-106355000D02*
X146942000Y-106355000D01*
X144782000Y-103195000D02*
X146242000Y-103195000D01*
X144766000Y-107005000D02*
X144766000Y-107935000D01*
X144766000Y-110165000D02*
X144766000Y-109235000D01*
X144766000Y-110165000D02*
X146926000Y-110165000D01*
X144766000Y-107005000D02*
X146226000Y-107005000D01*
X170358200Y-52059800D02*
X170378200Y-52059800D01*
X170378200Y-52059800D02*
X170378200Y-54719800D01*
X170378200Y-54719800D02*
X170358200Y-54719800D01*
X163928200Y-52059800D02*
X163908200Y-52059800D01*
X163908200Y-52059800D02*
X163908200Y-54719800D01*
X163908200Y-54719800D02*
X163928200Y-54719800D01*
X170358200Y-49754800D02*
X170358200Y-52059800D01*
X135498000Y-92239000D02*
X134998000Y-92239000D01*
X134998000Y-93179000D02*
X135498000Y-93179000D01*
X135498000Y-97319000D02*
X134998000Y-97319000D01*
X134998000Y-98259000D02*
X135498000Y-98259000D01*
X135498000Y-96049000D02*
X134998000Y-96049000D01*
X134998000Y-96989000D02*
X135498000Y-96989000D01*
X139470000Y-90800000D02*
X139470000Y-90300000D01*
X138530000Y-90300000D02*
X138530000Y-90800000D01*
X142010000Y-90869000D02*
X142010000Y-90369000D01*
X141070000Y-90369000D02*
X141070000Y-90869000D01*
X146301000Y-94576000D02*
X146801000Y-94576000D01*
X146801000Y-93636000D02*
X146301000Y-93636000D01*
X146312000Y-97116000D02*
X146812000Y-97116000D01*
X146812000Y-96176000D02*
X146312000Y-96176000D01*
X146312000Y-99656000D02*
X146812000Y-99656000D01*
X146812000Y-98716000D02*
X146312000Y-98716000D01*
X137325000Y-90295500D02*
X137325000Y-90795500D01*
X138265000Y-90795500D02*
X138265000Y-90295500D01*
X134998000Y-94348400D02*
X135498000Y-94348400D01*
X135498000Y-93408400D02*
X134998000Y-93408400D01*
X134998000Y-95796200D02*
X135498000Y-95796200D01*
X135498000Y-94856200D02*
X134998000Y-94856200D01*
X134998000Y-99479200D02*
X135498000Y-99479200D01*
X135498000Y-98539200D02*
X134998000Y-98539200D01*
X146812000Y-97523200D02*
X146312000Y-97523200D01*
X146312000Y-98463200D02*
X146812000Y-98463200D01*
X146812000Y-94907000D02*
X146312000Y-94907000D01*
X146312000Y-95847000D02*
X146812000Y-95847000D01*
X146812000Y-92468600D02*
X146312000Y-92468600D01*
X146312000Y-93408600D02*
X146812000Y-93408600D01*
X143167200Y-93398000D02*
X143167200Y-92898000D01*
X142227200Y-92898000D02*
X142227200Y-93398000D01*
X137157000Y-98259000D02*
X137657000Y-98259000D01*
X137657000Y-97319000D02*
X137157000Y-97319000D01*
X137168000Y-96989000D02*
X137668000Y-96989000D01*
X137668000Y-96049000D02*
X137168000Y-96049000D01*
X117094000Y-66839000D02*
X116594000Y-66839000D01*
X116594000Y-67779000D02*
X117094000Y-67779000D01*
X117152000Y-64299000D02*
X116652000Y-64299000D01*
X116652000Y-65239000D02*
X117152000Y-65239000D01*
X137168000Y-93179000D02*
X137668000Y-93179000D01*
X137668000Y-92239000D02*
X137168000Y-92239000D01*
X139165000Y-92840000D02*
X139165000Y-93340000D01*
X140105000Y-93340000D02*
X140105000Y-92840000D01*
X117083000Y-61632000D02*
X116583000Y-61632000D01*
X116583000Y-62572000D02*
X117083000Y-62572000D01*
X117152000Y-59092000D02*
X116652000Y-59092000D01*
X116652000Y-60032000D02*
X117152000Y-60032000D01*
X144457000Y-93636000D02*
X143957000Y-93636000D01*
X143957000Y-94576000D02*
X144457000Y-94576000D01*
X141070000Y-92898000D02*
X141070000Y-93398000D01*
X142010000Y-93398000D02*
X142010000Y-92898000D01*
X117084920Y-54058720D02*
X116584920Y-54058720D01*
X116584920Y-54998720D02*
X117084920Y-54998720D01*
X117059520Y-56613960D02*
X116559520Y-56613960D01*
X116559520Y-57553960D02*
X117059520Y-57553960D01*
X144457000Y-96176000D02*
X143957000Y-96176000D01*
X143957000Y-97116000D02*
X144457000Y-97116000D01*
X144526000Y-98716000D02*
X144026000Y-98716000D01*
X144026000Y-99656000D02*
X144526000Y-99656000D01*
X117073920Y-51599000D02*
X116573920Y-51599000D01*
X116573920Y-52539000D02*
X117073920Y-52539000D01*
X119785000Y-47181000D02*
X119785000Y-46681000D01*
X118845000Y-46681000D02*
X118845000Y-47181000D01*
X141684000Y-70310200D02*
X141684000Y-69310200D01*
X145044000Y-70310200D02*
X145044000Y-69310200D01*
X147043400Y-70361000D02*
X147043400Y-69361000D01*
X150403400Y-70361000D02*
X150403400Y-69361000D01*
X154173597Y-76137536D02*
G75*
G03X144375803Y-76140800I-4898437J-1383264D01*
G01*
X154173597Y-78904064D02*
G75*
G02X144375803Y-78900800I-4898437J1383264D01*
G01*
X154173597Y-78904064D02*
G75*
G03X154174517Y-76140800I-4898437J1383264D01*
G01*
X149275160Y-72470800D02*
X149275160Y-82570800D01*
X149315160Y-72470800D02*
X149315160Y-82570800D01*
X149355160Y-72470800D02*
X149355160Y-82570800D01*
X149395160Y-72471800D02*
X149395160Y-82569800D01*
X149435160Y-72472800D02*
X149435160Y-82568800D01*
X149475160Y-72473800D02*
X149475160Y-82567800D01*
X149515160Y-72475800D02*
X149515160Y-82565800D01*
X149555160Y-72477800D02*
X149555160Y-82563800D01*
X149595160Y-72480800D02*
X149595160Y-82560800D01*
X149635160Y-72482800D02*
X149635160Y-82558800D01*
X149675160Y-72485800D02*
X149675160Y-82555800D01*
X149715160Y-72489800D02*
X149715160Y-82551800D01*
X149755160Y-72492800D02*
X149755160Y-82548800D01*
X149795160Y-72496800D02*
X149795160Y-82544800D01*
X149835160Y-72500800D02*
X149835160Y-82540800D01*
X149875160Y-72505800D02*
X149875160Y-82535800D01*
X149915160Y-72510800D02*
X149915160Y-82530800D01*
X149955160Y-72515800D02*
X149955160Y-82525800D01*
X149996160Y-72521800D02*
X149996160Y-82519800D01*
X150036160Y-72527800D02*
X150036160Y-82513800D01*
X150076160Y-72533800D02*
X150076160Y-82507800D01*
X150116160Y-72539800D02*
X150116160Y-82501800D01*
X150156160Y-72546800D02*
X150156160Y-82494800D01*
X150196160Y-72553800D02*
X150196160Y-82487800D01*
X150236160Y-72561800D02*
X150236160Y-82479800D01*
X150276160Y-72569800D02*
X150276160Y-82471800D01*
X150316160Y-72577800D02*
X150316160Y-82463800D01*
X150356160Y-72585800D02*
X150356160Y-82455800D01*
X150396160Y-72594800D02*
X150396160Y-82446800D01*
X150436160Y-72603800D02*
X150436160Y-82437800D01*
X150476160Y-72613800D02*
X150476160Y-82427800D01*
X150516160Y-72623800D02*
X150516160Y-82417800D01*
X150556160Y-72633800D02*
X150556160Y-82407800D01*
X150596160Y-72644800D02*
X150596160Y-76339800D01*
X150596160Y-78701800D02*
X150596160Y-82396800D01*
X150636160Y-72655800D02*
X150636160Y-76339800D01*
X150636160Y-78701800D02*
X150636160Y-82385800D01*
X150676160Y-72666800D02*
X150676160Y-76339800D01*
X150676160Y-78701800D02*
X150676160Y-82374800D01*
X150716160Y-72677800D02*
X150716160Y-76339800D01*
X150716160Y-78701800D02*
X150716160Y-82363800D01*
X150756160Y-72689800D02*
X150756160Y-76339800D01*
X150756160Y-78701800D02*
X150756160Y-82351800D01*
X150796160Y-72702800D02*
X150796160Y-76339800D01*
X150796160Y-78701800D02*
X150796160Y-82338800D01*
X150836160Y-72714800D02*
X150836160Y-76339800D01*
X150836160Y-78701800D02*
X150836160Y-82326800D01*
X150876160Y-72728800D02*
X150876160Y-76339800D01*
X150876160Y-78701800D02*
X150876160Y-82312800D01*
X150916160Y-72741800D02*
X150916160Y-76339800D01*
X150916160Y-78701800D02*
X150916160Y-82299800D01*
X150956160Y-72755800D02*
X150956160Y-76339800D01*
X150956160Y-78701800D02*
X150956160Y-82285800D01*
X150996160Y-72769800D02*
X150996160Y-76339800D01*
X150996160Y-78701800D02*
X150996160Y-82271800D01*
X151036160Y-72783800D02*
X151036160Y-76339800D01*
X151036160Y-78701800D02*
X151036160Y-82257800D01*
X151076160Y-72798800D02*
X151076160Y-76339800D01*
X151076160Y-78701800D02*
X151076160Y-82242800D01*
X151116160Y-72814800D02*
X151116160Y-76339800D01*
X151116160Y-78701800D02*
X151116160Y-82226800D01*
X151156160Y-72829800D02*
X151156160Y-76339800D01*
X151156160Y-78701800D02*
X151156160Y-82211800D01*
X151196160Y-72846800D02*
X151196160Y-76339800D01*
X151196160Y-78701800D02*
X151196160Y-82194800D01*
X151236160Y-72862800D02*
X151236160Y-76339800D01*
X151236160Y-78701800D02*
X151236160Y-82178800D01*
X151276160Y-72879800D02*
X151276160Y-76339800D01*
X151276160Y-78701800D02*
X151276160Y-82161800D01*
X151316160Y-72896800D02*
X151316160Y-76339800D01*
X151316160Y-78701800D02*
X151316160Y-82144800D01*
X151356160Y-72914800D02*
X151356160Y-76339800D01*
X151356160Y-78701800D02*
X151356160Y-82126800D01*
X151396160Y-72932800D02*
X151396160Y-76339800D01*
X151396160Y-78701800D02*
X151396160Y-82108800D01*
X151436160Y-72951800D02*
X151436160Y-76339800D01*
X151436160Y-78701800D02*
X151436160Y-82089800D01*
X151476160Y-72970800D02*
X151476160Y-76339800D01*
X151476160Y-78701800D02*
X151476160Y-82070800D01*
X151516160Y-72989800D02*
X151516160Y-76339800D01*
X151516160Y-78701800D02*
X151516160Y-82051800D01*
X151556160Y-73009800D02*
X151556160Y-76339800D01*
X151556160Y-78701800D02*
X151556160Y-82031800D01*
X151596160Y-73029800D02*
X151596160Y-76339800D01*
X151596160Y-78701800D02*
X151596160Y-82011800D01*
X151636160Y-73050800D02*
X151636160Y-76339800D01*
X151636160Y-78701800D02*
X151636160Y-81990800D01*
X151676160Y-73071800D02*
X151676160Y-76339800D01*
X151676160Y-78701800D02*
X151676160Y-81969800D01*
X151716160Y-73092800D02*
X151716160Y-76339800D01*
X151716160Y-78701800D02*
X151716160Y-81948800D01*
X151756160Y-73115800D02*
X151756160Y-76339800D01*
X151756160Y-78701800D02*
X151756160Y-81925800D01*
X151796160Y-73137800D02*
X151796160Y-76339800D01*
X151796160Y-78701800D02*
X151796160Y-81903800D01*
X151836160Y-73160800D02*
X151836160Y-76339800D01*
X151836160Y-78701800D02*
X151836160Y-81880800D01*
X151876160Y-73184800D02*
X151876160Y-76339800D01*
X151876160Y-78701800D02*
X151876160Y-81856800D01*
X151916160Y-73208800D02*
X151916160Y-76339800D01*
X151916160Y-78701800D02*
X151916160Y-81832800D01*
X151956160Y-73232800D02*
X151956160Y-76339800D01*
X151956160Y-78701800D02*
X151956160Y-81808800D01*
X151996160Y-73257800D02*
X151996160Y-76339800D01*
X151996160Y-78701800D02*
X151996160Y-81783800D01*
X152036160Y-73283800D02*
X152036160Y-76339800D01*
X152036160Y-78701800D02*
X152036160Y-81757800D01*
X152076160Y-73309800D02*
X152076160Y-76339800D01*
X152076160Y-78701800D02*
X152076160Y-81731800D01*
X152116160Y-73335800D02*
X152116160Y-76339800D01*
X152116160Y-78701800D02*
X152116160Y-81705800D01*
X152156160Y-73363800D02*
X152156160Y-76339800D01*
X152156160Y-78701800D02*
X152156160Y-81677800D01*
X152196160Y-73390800D02*
X152196160Y-76339800D01*
X152196160Y-78701800D02*
X152196160Y-81650800D01*
X152236160Y-73419800D02*
X152236160Y-76339800D01*
X152236160Y-78701800D02*
X152236160Y-81621800D01*
X152276160Y-73448800D02*
X152276160Y-76339800D01*
X152276160Y-78701800D02*
X152276160Y-81592800D01*
X152316160Y-73477800D02*
X152316160Y-76339800D01*
X152316160Y-78701800D02*
X152316160Y-81563800D01*
X152356160Y-73507800D02*
X152356160Y-76339800D01*
X152356160Y-78701800D02*
X152356160Y-81533800D01*
X152396160Y-73538800D02*
X152396160Y-76339800D01*
X152396160Y-78701800D02*
X152396160Y-81502800D01*
X152436160Y-73569800D02*
X152436160Y-76339800D01*
X152436160Y-78701800D02*
X152436160Y-81471800D01*
X152476160Y-73601800D02*
X152476160Y-76339800D01*
X152476160Y-78701800D02*
X152476160Y-81439800D01*
X152516160Y-73634800D02*
X152516160Y-76339800D01*
X152516160Y-78701800D02*
X152516160Y-81406800D01*
X152556160Y-73667800D02*
X152556160Y-76339800D01*
X152556160Y-78701800D02*
X152556160Y-81373800D01*
X152596160Y-73701800D02*
X152596160Y-76339800D01*
X152596160Y-78701800D02*
X152596160Y-81339800D01*
X152636160Y-73736800D02*
X152636160Y-76339800D01*
X152636160Y-78701800D02*
X152636160Y-81304800D01*
X152676160Y-73772800D02*
X152676160Y-76339800D01*
X152676160Y-78701800D02*
X152676160Y-81268800D01*
X152716160Y-73808800D02*
X152716160Y-76339800D01*
X152716160Y-78701800D02*
X152716160Y-81232800D01*
X152756160Y-73845800D02*
X152756160Y-76339800D01*
X152756160Y-78701800D02*
X152756160Y-81195800D01*
X152796160Y-73883800D02*
X152796160Y-76339800D01*
X152796160Y-78701800D02*
X152796160Y-81157800D01*
X152836160Y-73922800D02*
X152836160Y-76339800D01*
X152836160Y-78701800D02*
X152836160Y-81118800D01*
X152876160Y-73961800D02*
X152876160Y-76339800D01*
X152876160Y-78701800D02*
X152876160Y-81079800D01*
X152916160Y-74002800D02*
X152916160Y-76339800D01*
X152916160Y-78701800D02*
X152916160Y-81038800D01*
X152956160Y-74043800D02*
X152956160Y-80997800D01*
X152996160Y-74085800D02*
X152996160Y-80955800D01*
X153036160Y-74129800D02*
X153036160Y-80911800D01*
X153076160Y-74173800D02*
X153076160Y-80867800D01*
X153116160Y-74218800D02*
X153116160Y-80822800D01*
X153156160Y-74265800D02*
X153156160Y-80775800D01*
X153196160Y-74313800D02*
X153196160Y-80727800D01*
X153236160Y-74362800D02*
X153236160Y-80678800D01*
X153276160Y-74412800D02*
X153276160Y-80628800D01*
X153316160Y-74463800D02*
X153316160Y-80577800D01*
X153356160Y-74516800D02*
X153356160Y-80524800D01*
X153396160Y-74571800D02*
X153396160Y-80469800D01*
X153436160Y-74626800D02*
X153436160Y-80414800D01*
X153476160Y-74684800D02*
X153476160Y-80356800D01*
X153516160Y-74743800D02*
X153516160Y-80297800D01*
X153556160Y-74805800D02*
X153556160Y-80235800D01*
X153596160Y-74868800D02*
X153596160Y-80172800D01*
X153636160Y-74933800D02*
X153636160Y-80107800D01*
X153676160Y-75001800D02*
X153676160Y-80039800D01*
X153716160Y-75071800D02*
X153716160Y-79969800D01*
X153756160Y-75143800D02*
X153756160Y-79897800D01*
X153796160Y-75219800D02*
X153796160Y-79821800D01*
X153836160Y-75298800D02*
X153836160Y-79742800D01*
X153876160Y-75380800D02*
X153876160Y-79660800D01*
X153916160Y-75467800D02*
X153916160Y-79573800D01*
X153956160Y-75558800D02*
X153956160Y-79482800D01*
X153996160Y-75654800D02*
X153996160Y-79386800D01*
X154036160Y-75757800D02*
X154036160Y-79283800D01*
X154076160Y-75866800D02*
X154076160Y-79174800D01*
X154116160Y-75984800D02*
X154116160Y-79056800D01*
X154156160Y-76113800D02*
X154156160Y-78927800D01*
X154196160Y-76255800D02*
X154196160Y-78785800D01*
X154236160Y-76416800D02*
X154236160Y-78624800D01*
X154276160Y-76607800D02*
X154276160Y-78433800D01*
X154316160Y-76848800D02*
X154316160Y-78192800D01*
X154356160Y-77241800D02*
X154356160Y-77799800D01*
X144075160Y-77520800D02*
X145575160Y-77520800D01*
X144825160Y-76770800D02*
X144825160Y-78270800D01*
D13*
X131817381Y-86071905D02*
X132626905Y-86071905D01*
X132722143Y-86024286D01*
X132769762Y-85976667D01*
X132817381Y-85881429D01*
X132817381Y-85690952D01*
X132769762Y-85595714D01*
X132722143Y-85548095D01*
X132626905Y-85500476D01*
X131817381Y-85500476D01*
X131912619Y-85071905D02*
X131865000Y-85024286D01*
X131817381Y-84929048D01*
X131817381Y-84690952D01*
X131865000Y-84595714D01*
X131912619Y-84548095D01*
X132007857Y-84500476D01*
X132103095Y-84500476D01*
X132245952Y-84548095D01*
X132817381Y-85119524D01*
X132817381Y-84500476D01*
X150938095Y-89463381D02*
X150938095Y-90272905D01*
X150985714Y-90368143D01*
X151033333Y-90415762D01*
X151128571Y-90463381D01*
X151319048Y-90463381D01*
X151414286Y-90415762D01*
X151461905Y-90368143D01*
X151509524Y-90272905D01*
X151509524Y-89463381D01*
X151890476Y-89463381D02*
X152509524Y-89463381D01*
X152176190Y-89844333D01*
X152319048Y-89844333D01*
X152414286Y-89891952D01*
X152461905Y-89939571D01*
X152509524Y-90034810D01*
X152509524Y-90272905D01*
X152461905Y-90368143D01*
X152414286Y-90415762D01*
X152319048Y-90463381D01*
X152033333Y-90463381D01*
X151938095Y-90415762D01*
X151890476Y-90368143D01*
X129381095Y-101336381D02*
X129381095Y-102145905D01*
X129428714Y-102241143D01*
X129476333Y-102288762D01*
X129571571Y-102336381D01*
X129762048Y-102336381D01*
X129857286Y-102288762D01*
X129904905Y-102241143D01*
X129952524Y-102145905D01*
X129952524Y-101336381D01*
X130952524Y-102336381D02*
X130381095Y-102336381D01*
X130666809Y-102336381D02*
X130666809Y-101336381D01*
X130571571Y-101479238D01*
X130476333Y-101574476D01*
X130381095Y-101622095D01*
X144116467Y-60963381D02*
X144116467Y-61677667D01*
X144068847Y-61820524D01*
X143973609Y-61915762D01*
X143830752Y-61963381D01*
X143735514Y-61963381D01*
X144545038Y-61058619D02*
X144592657Y-61011000D01*
X144687895Y-60963381D01*
X144925991Y-60963381D01*
X145021229Y-61011000D01*
X145068848Y-61058619D01*
X145116467Y-61153857D01*
X145116467Y-61249095D01*
X145068848Y-61391952D01*
X144497419Y-61963381D01*
X145116467Y-61963381D01*
X124736381Y-85347333D02*
X125450667Y-85347333D01*
X125593524Y-85394953D01*
X125688762Y-85490191D01*
X125736381Y-85633048D01*
X125736381Y-85728286D01*
X125069714Y-84442571D02*
X125736381Y-84442571D01*
X124688762Y-84680667D02*
X125403048Y-84918762D01*
X125403048Y-84299714D01*
X122479132Y-72104238D02*
X122431513Y-72199476D01*
X122383894Y-72247095D01*
X122288656Y-72294714D01*
X122241037Y-72294714D01*
X122145799Y-72247095D01*
X122098180Y-72199476D01*
X122050561Y-72104238D01*
X122050561Y-71913761D01*
X122098180Y-71818523D01*
X122145799Y-71770904D01*
X122241037Y-71723285D01*
X122288656Y-71723285D01*
X122383894Y-71770904D01*
X122431513Y-71818523D01*
X122479132Y-71913761D01*
X122479132Y-72104238D01*
X122526751Y-72199476D01*
X122574370Y-72247095D01*
X122669609Y-72294714D01*
X122860085Y-72294714D01*
X122955323Y-72247095D01*
X123002942Y-72199476D01*
X123050561Y-72104238D01*
X123050561Y-71913761D01*
X123002942Y-71818523D01*
X122955323Y-71770904D01*
X122860085Y-71723285D01*
X122669609Y-71723285D01*
X122574370Y-71770904D01*
X122526751Y-71818523D01*
X122479132Y-71913761D01*
X122872761Y-111944185D02*
X122872761Y-112515614D01*
X122872761Y-112229900D02*
X121872761Y-112229900D01*
X122015618Y-112325138D01*
X122110856Y-112420376D01*
X122158475Y-112515614D01*
X158645381Y-99900333D02*
X159359667Y-99900333D01*
X159502524Y-99947953D01*
X159597762Y-100043191D01*
X159645381Y-100186048D01*
X159645381Y-100281286D01*
X158645381Y-98947952D02*
X158645381Y-99424143D01*
X159121571Y-99471762D01*
X159073952Y-99424143D01*
X159026333Y-99328905D01*
X159026333Y-99090809D01*
X159073952Y-98995571D01*
X159121571Y-98947952D01*
X159216810Y-98900333D01*
X159454905Y-98900333D01*
X159550143Y-98947952D01*
X159597762Y-98995571D01*
X159645381Y-99090809D01*
X159645381Y-99328905D01*
X159597762Y-99424143D01*
X159550143Y-99471762D01*
X162103132Y-112749318D02*
X162055513Y-112844556D01*
X162007894Y-112892175D01*
X161912656Y-112939794D01*
X161865037Y-112939794D01*
X161769799Y-112892175D01*
X161722180Y-112844556D01*
X161674561Y-112749318D01*
X161674561Y-112558841D01*
X161722180Y-112463603D01*
X161769799Y-112415984D01*
X161865037Y-112368365D01*
X161912656Y-112368365D01*
X162007894Y-112415984D01*
X162055513Y-112463603D01*
X162103132Y-112558841D01*
X162103132Y-112749318D01*
X162150751Y-112844556D01*
X162198370Y-112892175D01*
X162293609Y-112939794D01*
X162484085Y-112939794D01*
X162579323Y-112892175D01*
X162626942Y-112844556D01*
X162674561Y-112749318D01*
X162674561Y-112558841D01*
X162626942Y-112463603D01*
X162579323Y-112415984D01*
X162484085Y-112368365D01*
X162293609Y-112368365D01*
X162198370Y-112415984D01*
X162150751Y-112463603D01*
X162103132Y-112558841D01*
X162694881Y-72071265D02*
X162694881Y-72642694D01*
X162694881Y-72356980D02*
X161694881Y-72356980D01*
X161837738Y-72452218D01*
X161932976Y-72547456D01*
X161980595Y-72642694D01*
X149987095Y-64189381D02*
X149987095Y-64998905D01*
X150034714Y-65094143D01*
X150082333Y-65141762D01*
X150177571Y-65189381D01*
X150368048Y-65189381D01*
X150463286Y-65141762D01*
X150510905Y-65094143D01*
X150558524Y-64998905D01*
X150558524Y-64189381D01*
X150939476Y-64189381D02*
X151606143Y-64189381D01*
X151177571Y-65189381D01*
X155662334Y-56999143D02*
X155614715Y-57046762D01*
X155471858Y-57094381D01*
X155376620Y-57094381D01*
X155233762Y-57046762D01*
X155138524Y-56951524D01*
X155090905Y-56856286D01*
X155043286Y-56665810D01*
X155043286Y-56522952D01*
X155090905Y-56332476D01*
X155138524Y-56237238D01*
X155233762Y-56142000D01*
X155376620Y-56094381D01*
X155471858Y-56094381D01*
X155614715Y-56142000D01*
X155662334Y-56189619D01*
X156614715Y-57094381D02*
X156043286Y-57094381D01*
X156329000Y-57094381D02*
X156329000Y-56094381D01*
X156233762Y-56237238D01*
X156138524Y-56332476D01*
X156043286Y-56380095D01*
X128308143Y-47155666D02*
X128355762Y-47203285D01*
X128403381Y-47346142D01*
X128403381Y-47441380D01*
X128355762Y-47584238D01*
X128260524Y-47679476D01*
X128165286Y-47727095D01*
X127974810Y-47774714D01*
X127831952Y-47774714D01*
X127641476Y-47727095D01*
X127546238Y-47679476D01*
X127451000Y-47584238D01*
X127403381Y-47441380D01*
X127403381Y-47346142D01*
X127451000Y-47203285D01*
X127498619Y-47155666D01*
X127403381Y-46822333D02*
X127403381Y-46203285D01*
X127784333Y-46536619D01*
X127784333Y-46393761D01*
X127831952Y-46298523D01*
X127879571Y-46250904D01*
X127974810Y-46203285D01*
X128212905Y-46203285D01*
X128308143Y-46250904D01*
X128355762Y-46298523D01*
X128403381Y-46393761D01*
X128403381Y-46679476D01*
X128355762Y-46774714D01*
X128308143Y-46822333D01*
X156043334Y-51538143D02*
X155995715Y-51585762D01*
X155852858Y-51633381D01*
X155757620Y-51633381D01*
X155614762Y-51585762D01*
X155519524Y-51490524D01*
X155471905Y-51395286D01*
X155424286Y-51204810D01*
X155424286Y-51061952D01*
X155471905Y-50871476D01*
X155519524Y-50776238D01*
X155614762Y-50681000D01*
X155757620Y-50633381D01*
X155852858Y-50633381D01*
X155995715Y-50681000D01*
X156043334Y-50728619D01*
X156900477Y-50966714D02*
X156900477Y-51633381D01*
X156662381Y-50585762D02*
X156424286Y-51300048D01*
X157043334Y-51300048D01*
X152868334Y-66651143D02*
X152820715Y-66698762D01*
X152677858Y-66746381D01*
X152582620Y-66746381D01*
X152439762Y-66698762D01*
X152344524Y-66603524D01*
X152296905Y-66508286D01*
X152249286Y-66317810D01*
X152249286Y-66174952D01*
X152296905Y-65984476D01*
X152344524Y-65889238D01*
X152439762Y-65794000D01*
X152582620Y-65746381D01*
X152677858Y-65746381D01*
X152820715Y-65794000D01*
X152868334Y-65841619D01*
X153725477Y-65746381D02*
X153535000Y-65746381D01*
X153439762Y-65794000D01*
X153392143Y-65841619D01*
X153296905Y-65984476D01*
X153249286Y-66174952D01*
X153249286Y-66555905D01*
X153296905Y-66651143D01*
X153344524Y-66698762D01*
X153439762Y-66746381D01*
X153630239Y-66746381D01*
X153725477Y-66698762D01*
X153773096Y-66651143D01*
X153820715Y-66555905D01*
X153820715Y-66317810D01*
X153773096Y-66222571D01*
X153725477Y-66174952D01*
X153630239Y-66127333D01*
X153439762Y-66127333D01*
X153344524Y-66174952D01*
X153296905Y-66222571D01*
X153249286Y-66317810D01*
X156170334Y-54840143D02*
X156122715Y-54887762D01*
X155979858Y-54935381D01*
X155884620Y-54935381D01*
X155741762Y-54887762D01*
X155646524Y-54792524D01*
X155598905Y-54697286D01*
X155551286Y-54506810D01*
X155551286Y-54363952D01*
X155598905Y-54173476D01*
X155646524Y-54078238D01*
X155741762Y-53983000D01*
X155884620Y-53935381D01*
X155979858Y-53935381D01*
X156122715Y-53983000D01*
X156170334Y-54030619D01*
X156503667Y-53935381D02*
X157170334Y-53935381D01*
X156741762Y-54935381D01*
X155789334Y-61063143D02*
X155741715Y-61110762D01*
X155598858Y-61158381D01*
X155503620Y-61158381D01*
X155360762Y-61110762D01*
X155265524Y-61015524D01*
X155217905Y-60920286D01*
X155170286Y-60729810D01*
X155170286Y-60586952D01*
X155217905Y-60396476D01*
X155265524Y-60301238D01*
X155360762Y-60206000D01*
X155503620Y-60158381D01*
X155598858Y-60158381D01*
X155741715Y-60206000D01*
X155789334Y-60253619D01*
X156360762Y-60586952D02*
X156265524Y-60539333D01*
X156217905Y-60491714D01*
X156170286Y-60396476D01*
X156170286Y-60348857D01*
X156217905Y-60253619D01*
X156265524Y-60206000D01*
X156360762Y-60158381D01*
X156551239Y-60158381D01*
X156646477Y-60206000D01*
X156694096Y-60253619D01*
X156741715Y-60348857D01*
X156741715Y-60396476D01*
X156694096Y-60491714D01*
X156646477Y-60539333D01*
X156551239Y-60586952D01*
X156360762Y-60586952D01*
X156265524Y-60634571D01*
X156217905Y-60682190D01*
X156170286Y-60777429D01*
X156170286Y-60967905D01*
X156217905Y-61063143D01*
X156265524Y-61110762D01*
X156360762Y-61158381D01*
X156551239Y-61158381D01*
X156646477Y-61110762D01*
X156694096Y-61063143D01*
X156741715Y-60967905D01*
X156741715Y-60777429D01*
X156694096Y-60682190D01*
X156646477Y-60634571D01*
X156551239Y-60586952D01*
X128395334Y-82045143D02*
X128347715Y-82092762D01*
X128204858Y-82140381D01*
X128109620Y-82140381D01*
X127966762Y-82092762D01*
X127871524Y-81997524D01*
X127823905Y-81902286D01*
X127776286Y-81711810D01*
X127776286Y-81568952D01*
X127823905Y-81378476D01*
X127871524Y-81283238D01*
X127966762Y-81188000D01*
X128109620Y-81140381D01*
X128204858Y-81140381D01*
X128347715Y-81188000D01*
X128395334Y-81235619D01*
X128871524Y-82140381D02*
X129062000Y-82140381D01*
X129157239Y-82092762D01*
X129204858Y-82045143D01*
X129300096Y-81902286D01*
X129347715Y-81711810D01*
X129347715Y-81330857D01*
X129300096Y-81235619D01*
X129252477Y-81188000D01*
X129157239Y-81140381D01*
X128966762Y-81140381D01*
X128871524Y-81188000D01*
X128823905Y-81235619D01*
X128776286Y-81330857D01*
X128776286Y-81568952D01*
X128823905Y-81664190D01*
X128871524Y-81711810D01*
X128966762Y-81759429D01*
X129157239Y-81759429D01*
X129252477Y-81711810D01*
X129300096Y-81664190D01*
X129347715Y-81568952D01*
X157075143Y-106941857D02*
X157122762Y-106989476D01*
X157170381Y-107132333D01*
X157170381Y-107227571D01*
X157122762Y-107370429D01*
X157027524Y-107465667D01*
X156932286Y-107513286D01*
X156741810Y-107560905D01*
X156598952Y-107560905D01*
X156408476Y-107513286D01*
X156313238Y-107465667D01*
X156218000Y-107370429D01*
X156170381Y-107227571D01*
X156170381Y-107132333D01*
X156218000Y-106989476D01*
X156265619Y-106941857D01*
X157170381Y-105989476D02*
X157170381Y-106560905D01*
X157170381Y-106275191D02*
X156170381Y-106275191D01*
X156313238Y-106370429D01*
X156408476Y-106465667D01*
X156456095Y-106560905D01*
X156170381Y-105370429D02*
X156170381Y-105275190D01*
X156218000Y-105179952D01*
X156265619Y-105132333D01*
X156360857Y-105084714D01*
X156551333Y-105037095D01*
X156789429Y-105037095D01*
X156979905Y-105084714D01*
X157075143Y-105132333D01*
X157122762Y-105179952D01*
X157170381Y-105275190D01*
X157170381Y-105370429D01*
X157122762Y-105465667D01*
X157075143Y-105513286D01*
X156979905Y-105560905D01*
X156789429Y-105608524D01*
X156551333Y-105608524D01*
X156360857Y-105560905D01*
X156265619Y-105513286D01*
X156218000Y-105465667D01*
X156170381Y-105370429D01*
X137025143Y-75414143D02*
X136977524Y-75461762D01*
X136834667Y-75509381D01*
X136739429Y-75509381D01*
X136596571Y-75461762D01*
X136501333Y-75366524D01*
X136453714Y-75271286D01*
X136406095Y-75080810D01*
X136406095Y-74937952D01*
X136453714Y-74747476D01*
X136501333Y-74652238D01*
X136596571Y-74557000D01*
X136739429Y-74509381D01*
X136834667Y-74509381D01*
X136977524Y-74557000D01*
X137025143Y-74604619D01*
X137977524Y-75509381D02*
X137406095Y-75509381D01*
X137691809Y-75509381D02*
X137691809Y-74509381D01*
X137596571Y-74652238D01*
X137501333Y-74747476D01*
X137406095Y-74795095D01*
X138929905Y-75509381D02*
X138358476Y-75509381D01*
X138644190Y-75509381D02*
X138644190Y-74509381D01*
X138548952Y-74652238D01*
X138453714Y-74747476D01*
X138358476Y-74795095D01*
X158345143Y-47886857D02*
X158392762Y-47934476D01*
X158440381Y-48077333D01*
X158440381Y-48172571D01*
X158392762Y-48315429D01*
X158297524Y-48410667D01*
X158202286Y-48458286D01*
X158011810Y-48505905D01*
X157868952Y-48505905D01*
X157678476Y-48458286D01*
X157583238Y-48410667D01*
X157488000Y-48315429D01*
X157440381Y-48172571D01*
X157440381Y-48077333D01*
X157488000Y-47934476D01*
X157535619Y-47886857D01*
X158440381Y-46934476D02*
X158440381Y-47505905D01*
X158440381Y-47220191D02*
X157440381Y-47220191D01*
X157583238Y-47315429D01*
X157678476Y-47410667D01*
X157726095Y-47505905D01*
X157535619Y-46553524D02*
X157488000Y-46505905D01*
X157440381Y-46410667D01*
X157440381Y-46172571D01*
X157488000Y-46077333D01*
X157535619Y-46029714D01*
X157630857Y-45982095D01*
X157726095Y-45982095D01*
X157868952Y-46029714D01*
X158440381Y-46601143D01*
X158440381Y-45982095D01*
X127967143Y-85728143D02*
X127919524Y-85775762D01*
X127776667Y-85823381D01*
X127681429Y-85823381D01*
X127538571Y-85775762D01*
X127443333Y-85680524D01*
X127395714Y-85585286D01*
X127348095Y-85394810D01*
X127348095Y-85251952D01*
X127395714Y-85061476D01*
X127443333Y-84966238D01*
X127538571Y-84871000D01*
X127681429Y-84823381D01*
X127776667Y-84823381D01*
X127919524Y-84871000D01*
X127967143Y-84918619D01*
X128919524Y-85823381D02*
X128348095Y-85823381D01*
X128633809Y-85823381D02*
X128633809Y-84823381D01*
X128538571Y-84966238D01*
X128443333Y-85061476D01*
X128348095Y-85109095D01*
X129252857Y-84823381D02*
X129871905Y-84823381D01*
X129538571Y-85204333D01*
X129681429Y-85204333D01*
X129776667Y-85251952D01*
X129824286Y-85299571D01*
X129871905Y-85394810D01*
X129871905Y-85632905D01*
X129824286Y-85728143D01*
X129776667Y-85775762D01*
X129681429Y-85823381D01*
X129395714Y-85823381D01*
X129300476Y-85775762D01*
X129252857Y-85728143D01*
X161536143Y-57634143D02*
X161488524Y-57681762D01*
X161345667Y-57729381D01*
X161250429Y-57729381D01*
X161107571Y-57681762D01*
X161012333Y-57586524D01*
X160964714Y-57491286D01*
X160917095Y-57300810D01*
X160917095Y-57157952D01*
X160964714Y-56967476D01*
X161012333Y-56872238D01*
X161107571Y-56777000D01*
X161250429Y-56729381D01*
X161345667Y-56729381D01*
X161488524Y-56777000D01*
X161536143Y-56824619D01*
X162488524Y-57729381D02*
X161917095Y-57729381D01*
X162202809Y-57729381D02*
X162202809Y-56729381D01*
X162107571Y-56872238D01*
X162012333Y-56967476D01*
X161917095Y-57015095D01*
X163393286Y-56729381D02*
X162917095Y-56729381D01*
X162869476Y-57205571D01*
X162917095Y-57157952D01*
X163012333Y-57110333D01*
X163250429Y-57110333D01*
X163345667Y-57157952D01*
X163393286Y-57205571D01*
X163440905Y-57300810D01*
X163440905Y-57538905D01*
X163393286Y-57634143D01*
X163345667Y-57681762D01*
X163250429Y-57729381D01*
X163012333Y-57729381D01*
X162917095Y-57681762D01*
X162869476Y-57634143D01*
X129603263Y-76864483D02*
X129555644Y-76912102D01*
X129412787Y-76959721D01*
X129317549Y-76959721D01*
X129174691Y-76912102D01*
X129079453Y-76816864D01*
X129031834Y-76721626D01*
X128984215Y-76531150D01*
X128984215Y-76388292D01*
X129031834Y-76197816D01*
X129079453Y-76102578D01*
X129174691Y-76007340D01*
X129317549Y-75959721D01*
X129412787Y-75959721D01*
X129555644Y-76007340D01*
X129603263Y-76054959D01*
X130555644Y-76959721D02*
X129984215Y-76959721D01*
X130269929Y-76959721D02*
X130269929Y-75959721D01*
X130174691Y-76102578D01*
X130079453Y-76197816D01*
X129984215Y-76245435D01*
X131412787Y-75959721D02*
X131222310Y-75959721D01*
X131127072Y-76007340D01*
X131079453Y-76054959D01*
X130984215Y-76197816D01*
X130936596Y-76388292D01*
X130936596Y-76769245D01*
X130984215Y-76864483D01*
X131031834Y-76912102D01*
X131127072Y-76959721D01*
X131317549Y-76959721D01*
X131412787Y-76912102D01*
X131460406Y-76864483D01*
X131508025Y-76769245D01*
X131508025Y-76531150D01*
X131460406Y-76435911D01*
X131412787Y-76388292D01*
X131317549Y-76340673D01*
X131127072Y-76340673D01*
X131031834Y-76388292D01*
X130984215Y-76435911D01*
X130936596Y-76531150D01*
X149743143Y-85834857D02*
X149790762Y-85882476D01*
X149838381Y-86025333D01*
X149838381Y-86120571D01*
X149790762Y-86263429D01*
X149695524Y-86358667D01*
X149600286Y-86406286D01*
X149409810Y-86453905D01*
X149266952Y-86453905D01*
X149076476Y-86406286D01*
X148981238Y-86358667D01*
X148886000Y-86263429D01*
X148838381Y-86120571D01*
X148838381Y-86025333D01*
X148886000Y-85882476D01*
X148933619Y-85834857D01*
X149838381Y-84882476D02*
X149838381Y-85453905D01*
X149838381Y-85168191D02*
X148838381Y-85168191D01*
X148981238Y-85263429D01*
X149076476Y-85358667D01*
X149124095Y-85453905D01*
X148838381Y-84549143D02*
X148838381Y-83882476D01*
X149838381Y-84311048D01*
X155514143Y-83850857D02*
X155561762Y-83898476D01*
X155609381Y-84041333D01*
X155609381Y-84136571D01*
X155561762Y-84279429D01*
X155466524Y-84374667D01*
X155371286Y-84422286D01*
X155180810Y-84469905D01*
X155037952Y-84469905D01*
X154847476Y-84422286D01*
X154752238Y-84374667D01*
X154657000Y-84279429D01*
X154609381Y-84136571D01*
X154609381Y-84041333D01*
X154657000Y-83898476D01*
X154704619Y-83850857D01*
X155609381Y-82898476D02*
X155609381Y-83469905D01*
X155609381Y-83184191D02*
X154609381Y-83184191D01*
X154752238Y-83279429D01*
X154847476Y-83374667D01*
X154895095Y-83469905D01*
X155037952Y-82327048D02*
X154990333Y-82422286D01*
X154942714Y-82469905D01*
X154847476Y-82517524D01*
X154799857Y-82517524D01*
X154704619Y-82469905D01*
X154657000Y-82422286D01*
X154609381Y-82327048D01*
X154609381Y-82136571D01*
X154657000Y-82041333D01*
X154704619Y-81993714D01*
X154799857Y-81946095D01*
X154847476Y-81946095D01*
X154942714Y-81993714D01*
X154990333Y-82041333D01*
X155037952Y-82136571D01*
X155037952Y-82327048D01*
X155085571Y-82422286D01*
X155133190Y-82469905D01*
X155228429Y-82517524D01*
X155418905Y-82517524D01*
X155514143Y-82469905D01*
X155561762Y-82422286D01*
X155609381Y-82327048D01*
X155609381Y-82136571D01*
X155561762Y-82041333D01*
X155514143Y-81993714D01*
X155418905Y-81946095D01*
X155228429Y-81946095D01*
X155133190Y-81993714D01*
X155085571Y-82041333D01*
X155037952Y-82136571D01*
X130921523Y-80379843D02*
X130873904Y-80427462D01*
X130731047Y-80475081D01*
X130635809Y-80475081D01*
X130492951Y-80427462D01*
X130397713Y-80332224D01*
X130350094Y-80236986D01*
X130302475Y-80046510D01*
X130302475Y-79903652D01*
X130350094Y-79713176D01*
X130397713Y-79617938D01*
X130492951Y-79522700D01*
X130635809Y-79475081D01*
X130731047Y-79475081D01*
X130873904Y-79522700D01*
X130921523Y-79570319D01*
X131873904Y-80475081D02*
X131302475Y-80475081D01*
X131588189Y-80475081D02*
X131588189Y-79475081D01*
X131492951Y-79617938D01*
X131397713Y-79713176D01*
X131302475Y-79760795D01*
X132350094Y-80475081D02*
X132540570Y-80475081D01*
X132635809Y-80427462D01*
X132683428Y-80379843D01*
X132778666Y-80236986D01*
X132826285Y-80046510D01*
X132826285Y-79665557D01*
X132778666Y-79570319D01*
X132731047Y-79522700D01*
X132635809Y-79475081D01*
X132445332Y-79475081D01*
X132350094Y-79522700D01*
X132302475Y-79570319D01*
X132254856Y-79665557D01*
X132254856Y-79903652D01*
X132302475Y-79998890D01*
X132350094Y-80046510D01*
X132445332Y-80094129D01*
X132635809Y-80094129D01*
X132731047Y-80046510D01*
X132778666Y-79998890D01*
X132826285Y-79903652D01*
X128246143Y-107449857D02*
X128293762Y-107497476D01*
X128341381Y-107640333D01*
X128341381Y-107735571D01*
X128293762Y-107878429D01*
X128198524Y-107973667D01*
X128103286Y-108021286D01*
X127912810Y-108068905D01*
X127769952Y-108068905D01*
X127579476Y-108021286D01*
X127484238Y-107973667D01*
X127389000Y-107878429D01*
X127341381Y-107735571D01*
X127341381Y-107640333D01*
X127389000Y-107497476D01*
X127436619Y-107449857D01*
X127436619Y-107068905D02*
X127389000Y-107021286D01*
X127341381Y-106926048D01*
X127341381Y-106687952D01*
X127389000Y-106592714D01*
X127436619Y-106545095D01*
X127531857Y-106497476D01*
X127627095Y-106497476D01*
X127769952Y-106545095D01*
X128341381Y-107116524D01*
X128341381Y-106497476D01*
X127341381Y-105878429D02*
X127341381Y-105783190D01*
X127389000Y-105687952D01*
X127436619Y-105640333D01*
X127531857Y-105592714D01*
X127722333Y-105545095D01*
X127960429Y-105545095D01*
X128150905Y-105592714D01*
X128246143Y-105640333D01*
X128293762Y-105687952D01*
X128341381Y-105783190D01*
X128341381Y-105878429D01*
X128293762Y-105973667D01*
X128246143Y-106021286D01*
X128150905Y-106068905D01*
X127960429Y-106116524D01*
X127722333Y-106116524D01*
X127531857Y-106068905D01*
X127436619Y-106021286D01*
X127389000Y-105973667D01*
X127341381Y-105878429D01*
X155387143Y-72674857D02*
X155434762Y-72722476D01*
X155482381Y-72865333D01*
X155482381Y-72960571D01*
X155434762Y-73103429D01*
X155339524Y-73198667D01*
X155244286Y-73246286D01*
X155053810Y-73293905D01*
X154910952Y-73293905D01*
X154720476Y-73246286D01*
X154625238Y-73198667D01*
X154530000Y-73103429D01*
X154482381Y-72960571D01*
X154482381Y-72865333D01*
X154530000Y-72722476D01*
X154577619Y-72674857D01*
X154577619Y-72293905D02*
X154530000Y-72246286D01*
X154482381Y-72151048D01*
X154482381Y-71912952D01*
X154530000Y-71817714D01*
X154577619Y-71770095D01*
X154672857Y-71722476D01*
X154768095Y-71722476D01*
X154910952Y-71770095D01*
X155482381Y-72341524D01*
X155482381Y-71722476D01*
X155482381Y-70770095D02*
X155482381Y-71341524D01*
X155482381Y-71055810D02*
X154482381Y-71055810D01*
X154625238Y-71151048D01*
X154720476Y-71246286D01*
X154768095Y-71341524D01*
X125753905Y-71699381D02*
X125753905Y-70699381D01*
X125992000Y-70699381D01*
X126134858Y-70747000D01*
X126230096Y-70842238D01*
X126277715Y-70937476D01*
X126325334Y-71127952D01*
X126325334Y-71270810D01*
X126277715Y-71461286D01*
X126230096Y-71556524D01*
X126134858Y-71651762D01*
X125992000Y-71699381D01*
X125753905Y-71699381D01*
X127277715Y-71699381D02*
X126706286Y-71699381D01*
X126992000Y-71699381D02*
X126992000Y-70699381D01*
X126896762Y-70842238D01*
X126801524Y-70937476D01*
X126706286Y-70985095D01*
X118215185Y-69061285D02*
X118215185Y-68261285D01*
X118453280Y-68261285D01*
X118596138Y-68299380D01*
X118691376Y-68375570D01*
X118738995Y-68451761D01*
X118786614Y-68604142D01*
X118786614Y-68718428D01*
X118738995Y-68870809D01*
X118691376Y-68946999D01*
X118596138Y-69023190D01*
X118453280Y-69061285D01*
X118215185Y-69061285D01*
X119167566Y-68337475D02*
X119215185Y-68299380D01*
X119310423Y-68261285D01*
X119548519Y-68261285D01*
X119643757Y-68299380D01*
X119691376Y-68337475D01*
X119738995Y-68413666D01*
X119738995Y-68489856D01*
X119691376Y-68604142D01*
X119119947Y-69061285D01*
X119738995Y-69061285D01*
X118215185Y-66447625D02*
X118215185Y-65647625D01*
X118453280Y-65647625D01*
X118596138Y-65685720D01*
X118691376Y-65761910D01*
X118738995Y-65838101D01*
X118786614Y-65990482D01*
X118786614Y-66104768D01*
X118738995Y-66257149D01*
X118691376Y-66333339D01*
X118596138Y-66409530D01*
X118453280Y-66447625D01*
X118215185Y-66447625D01*
X119119947Y-65647625D02*
X119738995Y-65647625D01*
X119405661Y-65952387D01*
X119548519Y-65952387D01*
X119643757Y-65990482D01*
X119691376Y-66028577D01*
X119738995Y-66104768D01*
X119738995Y-66295244D01*
X119691376Y-66371434D01*
X119643757Y-66409530D01*
X119548519Y-66447625D01*
X119262804Y-66447625D01*
X119167566Y-66409530D01*
X119119947Y-66371434D01*
X118215185Y-63892385D02*
X118215185Y-63092385D01*
X118453280Y-63092385D01*
X118596138Y-63130480D01*
X118691376Y-63206670D01*
X118738995Y-63282861D01*
X118786614Y-63435242D01*
X118786614Y-63549528D01*
X118738995Y-63701909D01*
X118691376Y-63778099D01*
X118596138Y-63854290D01*
X118453280Y-63892385D01*
X118215185Y-63892385D01*
X119643757Y-63359051D02*
X119643757Y-63892385D01*
X119405661Y-63054290D02*
X119167566Y-63625718D01*
X119786614Y-63625718D01*
X118215185Y-61334605D02*
X118215185Y-60534605D01*
X118453280Y-60534605D01*
X118596138Y-60572700D01*
X118691376Y-60648890D01*
X118738995Y-60725081D01*
X118786614Y-60877462D01*
X118786614Y-60991748D01*
X118738995Y-61144129D01*
X118691376Y-61220319D01*
X118596138Y-61296510D01*
X118453280Y-61334605D01*
X118215185Y-61334605D01*
X119691376Y-60534605D02*
X119215185Y-60534605D01*
X119167566Y-60915557D01*
X119215185Y-60877462D01*
X119310423Y-60839367D01*
X119548519Y-60839367D01*
X119643757Y-60877462D01*
X119691376Y-60915557D01*
X119738995Y-60991748D01*
X119738995Y-61182224D01*
X119691376Y-61258414D01*
X119643757Y-61296510D01*
X119548519Y-61334605D01*
X119310423Y-61334605D01*
X119215185Y-61296510D01*
X119167566Y-61258414D01*
X118215185Y-56285491D02*
X118215185Y-55485491D01*
X118453280Y-55485491D01*
X118596138Y-55523586D01*
X118691376Y-55599776D01*
X118738995Y-55675967D01*
X118786614Y-55828348D01*
X118786614Y-55942634D01*
X118738995Y-56095015D01*
X118691376Y-56171205D01*
X118596138Y-56247396D01*
X118453280Y-56285491D01*
X118215185Y-56285491D01*
X119643757Y-55485491D02*
X119453280Y-55485491D01*
X119358042Y-55523586D01*
X119310423Y-55561681D01*
X119215185Y-55675967D01*
X119167566Y-55828348D01*
X119167566Y-56133110D01*
X119215185Y-56209300D01*
X119262804Y-56247396D01*
X119358042Y-56285491D01*
X119548519Y-56285491D01*
X119643757Y-56247396D01*
X119691376Y-56209300D01*
X119738995Y-56133110D01*
X119738995Y-55942634D01*
X119691376Y-55866443D01*
X119643757Y-55828348D01*
X119548519Y-55790253D01*
X119358042Y-55790253D01*
X119262804Y-55828348D01*
X119215185Y-55866443D01*
X119167566Y-55942634D01*
X118215185Y-58865725D02*
X118215185Y-58065725D01*
X118453280Y-58065725D01*
X118596138Y-58103820D01*
X118691376Y-58180010D01*
X118738995Y-58256201D01*
X118786614Y-58408582D01*
X118786614Y-58522868D01*
X118738995Y-58675249D01*
X118691376Y-58751439D01*
X118596138Y-58827630D01*
X118453280Y-58865725D01*
X118215185Y-58865725D01*
X119119947Y-58065725D02*
X119786614Y-58065725D01*
X119358042Y-58865725D01*
X118215185Y-53747443D02*
X118215185Y-52947443D01*
X118453280Y-52947443D01*
X118596138Y-52985538D01*
X118691376Y-53061728D01*
X118738995Y-53137919D01*
X118786614Y-53290300D01*
X118786614Y-53404586D01*
X118738995Y-53556967D01*
X118691376Y-53633157D01*
X118596138Y-53709348D01*
X118453280Y-53747443D01*
X118215185Y-53747443D01*
X119358042Y-53290300D02*
X119262804Y-53252205D01*
X119215185Y-53214109D01*
X119167566Y-53137919D01*
X119167566Y-53099824D01*
X119215185Y-53023633D01*
X119262804Y-52985538D01*
X119358042Y-52947443D01*
X119548519Y-52947443D01*
X119643757Y-52985538D01*
X119691376Y-53023633D01*
X119738995Y-53099824D01*
X119738995Y-53137919D01*
X119691376Y-53214109D01*
X119643757Y-53252205D01*
X119548519Y-53290300D01*
X119358042Y-53290300D01*
X119262804Y-53328395D01*
X119215185Y-53366490D01*
X119167566Y-53442681D01*
X119167566Y-53595062D01*
X119215185Y-53671252D01*
X119262804Y-53709348D01*
X119358042Y-53747443D01*
X119548519Y-53747443D01*
X119643757Y-53709348D01*
X119691376Y-53671252D01*
X119738995Y-53595062D01*
X119738995Y-53442681D01*
X119691376Y-53366490D01*
X119643757Y-53328395D01*
X119548519Y-53290300D01*
X118215185Y-51200005D02*
X118215185Y-50400005D01*
X118453280Y-50400005D01*
X118596138Y-50438100D01*
X118691376Y-50514290D01*
X118738995Y-50590481D01*
X118786614Y-50742862D01*
X118786614Y-50857148D01*
X118738995Y-51009529D01*
X118691376Y-51085719D01*
X118596138Y-51161910D01*
X118453280Y-51200005D01*
X118215185Y-51200005D01*
X119262804Y-51200005D02*
X119453280Y-51200005D01*
X119548519Y-51161910D01*
X119596138Y-51123814D01*
X119691376Y-51009529D01*
X119738995Y-50857148D01*
X119738995Y-50552386D01*
X119691376Y-50476195D01*
X119643757Y-50438100D01*
X119548519Y-50400005D01*
X119358042Y-50400005D01*
X119262804Y-50438100D01*
X119215185Y-50476195D01*
X119167566Y-50552386D01*
X119167566Y-50742862D01*
X119215185Y-50819052D01*
X119262804Y-50857148D01*
X119358042Y-50895243D01*
X119548519Y-50895243D01*
X119643757Y-50857148D01*
X119691376Y-50819052D01*
X119738995Y-50742862D01*
X133270667Y-75398381D02*
X133270667Y-76112667D01*
X133223047Y-76255524D01*
X133127809Y-76350762D01*
X132984952Y-76398381D01*
X132889714Y-76398381D01*
X133651619Y-75398381D02*
X134270667Y-75398381D01*
X133937333Y-75779333D01*
X134080191Y-75779333D01*
X134175429Y-75826952D01*
X134223048Y-75874571D01*
X134270667Y-75969810D01*
X134270667Y-76207905D01*
X134223048Y-76303143D01*
X134175429Y-76350762D01*
X134080191Y-76398381D01*
X133794476Y-76398381D01*
X133699238Y-76350762D01*
X133651619Y-76303143D01*
X158583381Y-65230333D02*
X159297667Y-65230333D01*
X159440524Y-65277953D01*
X159535762Y-65373191D01*
X159583381Y-65516048D01*
X159583381Y-65611286D01*
X158583381Y-64325571D02*
X158583381Y-64516048D01*
X158631000Y-64611286D01*
X158678619Y-64658905D01*
X158821476Y-64754143D01*
X159011952Y-64801762D01*
X159392905Y-64801762D01*
X159488143Y-64754143D01*
X159535762Y-64706524D01*
X159583381Y-64611286D01*
X159583381Y-64420809D01*
X159535762Y-64325571D01*
X159488143Y-64277952D01*
X159392905Y-64230333D01*
X159154810Y-64230333D01*
X159059571Y-64277952D01*
X159011952Y-64325571D01*
X158964333Y-64420809D01*
X158964333Y-64611286D01*
X159011952Y-64706524D01*
X159059571Y-64754143D01*
X159154810Y-64801762D01*
X160127981Y-57803085D02*
X160127981Y-58374514D01*
X160127981Y-58088800D02*
X159127981Y-58088800D01*
X159270838Y-58184038D01*
X159366076Y-58279276D01*
X159413695Y-58374514D01*
X129081467Y-69746762D02*
X129224324Y-69794381D01*
X129462420Y-69794381D01*
X129557658Y-69746762D01*
X129605277Y-69699143D01*
X129652896Y-69603905D01*
X129652896Y-69508667D01*
X129605277Y-69413429D01*
X129557658Y-69365810D01*
X129462420Y-69318190D01*
X129271943Y-69270571D01*
X129176705Y-69222952D01*
X129129086Y-69175333D01*
X129081467Y-69080095D01*
X129081467Y-68984857D01*
X129129086Y-68889619D01*
X129176705Y-68842000D01*
X129271943Y-68794381D01*
X129510039Y-68794381D01*
X129652896Y-68842000D01*
X129986229Y-68794381D02*
X130224324Y-69794381D01*
X130414801Y-69080095D01*
X130605277Y-69794381D01*
X130843372Y-68794381D01*
X131748134Y-69794381D02*
X131176705Y-69794381D01*
X131462419Y-69794381D02*
X131462419Y-68794381D01*
X131367181Y-68937238D01*
X131271943Y-69032476D01*
X131176705Y-69080095D01*
X162356895Y-47629581D02*
X162356895Y-48439105D01*
X162404514Y-48534343D01*
X162452133Y-48581962D01*
X162547371Y-48629581D01*
X162737848Y-48629581D01*
X162833086Y-48581962D01*
X162880705Y-48534343D01*
X162928324Y-48439105D01*
X162928324Y-47629581D01*
X163833086Y-47962914D02*
X163833086Y-48629581D01*
X163594990Y-47581962D02*
X163356895Y-48296248D01*
X163975943Y-48296248D01*
X150495095Y-56094381D02*
X150495095Y-56903905D01*
X150542714Y-56999143D01*
X150590333Y-57046762D01*
X150685571Y-57094381D01*
X150876048Y-57094381D01*
X150971286Y-57046762D01*
X151018905Y-56999143D01*
X151066524Y-56903905D01*
X151066524Y-56094381D01*
X152018905Y-56094381D02*
X151542714Y-56094381D01*
X151495095Y-56570571D01*
X151542714Y-56522952D01*
X151637952Y-56475333D01*
X151876048Y-56475333D01*
X151971286Y-56522952D01*
X152018905Y-56570571D01*
X152066524Y-56665810D01*
X152066524Y-56903905D01*
X152018905Y-56999143D01*
X151971286Y-57046762D01*
X151876048Y-57094381D01*
X151637952Y-57094381D01*
X151542714Y-57046762D01*
X151495095Y-56999143D01*
X157099095Y-56856381D02*
X157099095Y-57665905D01*
X157146714Y-57761143D01*
X157194333Y-57808762D01*
X157289571Y-57856381D01*
X157480048Y-57856381D01*
X157575286Y-57808762D01*
X157622905Y-57761143D01*
X157670524Y-57665905D01*
X157670524Y-56856381D01*
X158575286Y-56856381D02*
X158384809Y-56856381D01*
X158289571Y-56904000D01*
X158241952Y-56951619D01*
X158146714Y-57094476D01*
X158099095Y-57284952D01*
X158099095Y-57665905D01*
X158146714Y-57761143D01*
X158194333Y-57808762D01*
X158289571Y-57856381D01*
X158480048Y-57856381D01*
X158575286Y-57808762D01*
X158622905Y-57761143D01*
X158670524Y-57665905D01*
X158670524Y-57427810D01*
X158622905Y-57332571D01*
X158575286Y-57284952D01*
X158480048Y-57237333D01*
X158289571Y-57237333D01*
X158194333Y-57284952D01*
X158146714Y-57332571D01*
X158099095Y-57427810D01*
X152148095Y-47948381D02*
X152148095Y-48757905D01*
X152195714Y-48853143D01*
X152243333Y-48900762D01*
X152338571Y-48948381D01*
X152529048Y-48948381D01*
X152624286Y-48900762D01*
X152671905Y-48853143D01*
X152719524Y-48757905D01*
X152719524Y-47948381D01*
X153338571Y-48376952D02*
X153243333Y-48329333D01*
X153195714Y-48281714D01*
X153148095Y-48186476D01*
X153148095Y-48138857D01*
X153195714Y-48043619D01*
X153243333Y-47996000D01*
X153338571Y-47948381D01*
X153529048Y-47948381D01*
X153624286Y-47996000D01*
X153671905Y-48043619D01*
X153719524Y-48138857D01*
X153719524Y-48186476D01*
X153671905Y-48281714D01*
X153624286Y-48329333D01*
X153529048Y-48376952D01*
X153338571Y-48376952D01*
X153243333Y-48424571D01*
X153195714Y-48472190D01*
X153148095Y-48567429D01*
X153148095Y-48757905D01*
X153195714Y-48853143D01*
X153243333Y-48900762D01*
X153338571Y-48948381D01*
X153529048Y-48948381D01*
X153624286Y-48900762D01*
X153671905Y-48853143D01*
X153719524Y-48757905D01*
X153719524Y-48567429D01*
X153671905Y-48472190D01*
X153624286Y-48424571D01*
X153529048Y-48376952D01*
X150241095Y-51649381D02*
X150241095Y-52458905D01*
X150288714Y-52554143D01*
X150336333Y-52601762D01*
X150431571Y-52649381D01*
X150622048Y-52649381D01*
X150717286Y-52601762D01*
X150764905Y-52554143D01*
X150812524Y-52458905D01*
X150812524Y-51649381D01*
X151336333Y-52649381D02*
X151526809Y-52649381D01*
X151622048Y-52601762D01*
X151669667Y-52554143D01*
X151764905Y-52411286D01*
X151812524Y-52220810D01*
X151812524Y-51839857D01*
X151764905Y-51744619D01*
X151717286Y-51697000D01*
X151622048Y-51649381D01*
X151431571Y-51649381D01*
X151336333Y-51697000D01*
X151288714Y-51744619D01*
X151241095Y-51839857D01*
X151241095Y-52077952D01*
X151288714Y-52173190D01*
X151336333Y-52220810D01*
X151431571Y-52268429D01*
X151622048Y-52268429D01*
X151717286Y-52220810D01*
X151764905Y-52173190D01*
X151812524Y-52077952D01*
X160051905Y-52284381D02*
X160051905Y-53093905D01*
X160099524Y-53189143D01*
X160147143Y-53236762D01*
X160242381Y-53284381D01*
X160432858Y-53284381D01*
X160528096Y-53236762D01*
X160575715Y-53189143D01*
X160623334Y-53093905D01*
X160623334Y-52284381D01*
X161623334Y-53284381D02*
X161051905Y-53284381D01*
X161337619Y-53284381D02*
X161337619Y-52284381D01*
X161242381Y-52427238D01*
X161147143Y-52522476D01*
X161051905Y-52570095D01*
X162242381Y-52284381D02*
X162337620Y-52284381D01*
X162432858Y-52332000D01*
X162480477Y-52379619D01*
X162528096Y-52474857D01*
X162575715Y-52665333D01*
X162575715Y-52903429D01*
X162528096Y-53093905D01*
X162480477Y-53189143D01*
X162432858Y-53236762D01*
X162337620Y-53284381D01*
X162242381Y-53284381D01*
X162147143Y-53236762D01*
X162099524Y-53189143D01*
X162051905Y-53093905D01*
X162004286Y-52903429D01*
X162004286Y-52665333D01*
X162051905Y-52474857D01*
X162099524Y-52379619D01*
X162147143Y-52332000D01*
X162242381Y-52284381D01*
X150018905Y-60158381D02*
X150018905Y-60967905D01*
X150066524Y-61063143D01*
X150114143Y-61110762D01*
X150209381Y-61158381D01*
X150399858Y-61158381D01*
X150495096Y-61110762D01*
X150542715Y-61063143D01*
X150590334Y-60967905D01*
X150590334Y-60158381D01*
X151590334Y-61158381D02*
X151018905Y-61158381D01*
X151304619Y-61158381D02*
X151304619Y-60158381D01*
X151209381Y-60301238D01*
X151114143Y-60396476D01*
X151018905Y-60444095D01*
X152542715Y-61158381D02*
X151971286Y-61158381D01*
X152257000Y-61158381D02*
X152257000Y-60158381D01*
X152161762Y-60301238D01*
X152066524Y-60396476D01*
X151971286Y-60444095D01*
X132876302Y-106605319D02*
X132781064Y-106557700D01*
X132685826Y-106462462D01*
X132542969Y-106319605D01*
X132447730Y-106271986D01*
X132352492Y-106271986D01*
X132400111Y-106510081D02*
X132304873Y-106462462D01*
X132209635Y-106367224D01*
X132162016Y-106176748D01*
X132162016Y-105843414D01*
X132209635Y-105652938D01*
X132304873Y-105557700D01*
X132400111Y-105510081D01*
X132590588Y-105510081D01*
X132685826Y-105557700D01*
X132781064Y-105652938D01*
X132828683Y-105843414D01*
X132828683Y-106176748D01*
X132781064Y-106367224D01*
X132685826Y-106462462D01*
X132590588Y-106510081D01*
X132400111Y-106510081D01*
X133781064Y-106510081D02*
X133209635Y-106510081D01*
X133495349Y-106510081D02*
X133495349Y-105510081D01*
X133400111Y-105652938D01*
X133304873Y-105748176D01*
X133209635Y-105795795D01*
X130206762Y-111632619D02*
X130111524Y-111585000D01*
X130016286Y-111489762D01*
X129873429Y-111346905D01*
X129778190Y-111299286D01*
X129682952Y-111299286D01*
X129730571Y-111537381D02*
X129635333Y-111489762D01*
X129540095Y-111394524D01*
X129492476Y-111204048D01*
X129492476Y-110870714D01*
X129540095Y-110680238D01*
X129635333Y-110585000D01*
X129730571Y-110537381D01*
X129921048Y-110537381D01*
X130016286Y-110585000D01*
X130111524Y-110680238D01*
X130159143Y-110870714D01*
X130159143Y-111204048D01*
X130111524Y-111394524D01*
X130016286Y-111489762D01*
X129921048Y-111537381D01*
X129730571Y-111537381D01*
X130540095Y-110632619D02*
X130587714Y-110585000D01*
X130682952Y-110537381D01*
X130921048Y-110537381D01*
X131016286Y-110585000D01*
X131063905Y-110632619D01*
X131111524Y-110727857D01*
X131111524Y-110823095D01*
X131063905Y-110965952D01*
X130492476Y-111537381D01*
X131111524Y-111537381D01*
X135540762Y-102909619D02*
X135445524Y-102862000D01*
X135350286Y-102766762D01*
X135207429Y-102623905D01*
X135112190Y-102576286D01*
X135016952Y-102576286D01*
X135064571Y-102814381D02*
X134969333Y-102766762D01*
X134874095Y-102671524D01*
X134826476Y-102481048D01*
X134826476Y-102147714D01*
X134874095Y-101957238D01*
X134969333Y-101862000D01*
X135064571Y-101814381D01*
X135255048Y-101814381D01*
X135350286Y-101862000D01*
X135445524Y-101957238D01*
X135493143Y-102147714D01*
X135493143Y-102481048D01*
X135445524Y-102671524D01*
X135350286Y-102766762D01*
X135255048Y-102814381D01*
X135064571Y-102814381D01*
X135826476Y-101814381D02*
X136445524Y-101814381D01*
X136112190Y-102195333D01*
X136255048Y-102195333D01*
X136350286Y-102242952D01*
X136397905Y-102290571D01*
X136445524Y-102385810D01*
X136445524Y-102623905D01*
X136397905Y-102719143D01*
X136350286Y-102766762D01*
X136255048Y-102814381D01*
X135969333Y-102814381D01*
X135874095Y-102766762D01*
X135826476Y-102719143D01*
X135524762Y-111632619D02*
X135429524Y-111585000D01*
X135334286Y-111489762D01*
X135191429Y-111346905D01*
X135096190Y-111299286D01*
X135000952Y-111299286D01*
X135048571Y-111537381D02*
X134953333Y-111489762D01*
X134858095Y-111394524D01*
X134810476Y-111204048D01*
X134810476Y-110870714D01*
X134858095Y-110680238D01*
X134953333Y-110585000D01*
X135048571Y-110537381D01*
X135239048Y-110537381D01*
X135334286Y-110585000D01*
X135429524Y-110680238D01*
X135477143Y-110870714D01*
X135477143Y-111204048D01*
X135429524Y-111394524D01*
X135334286Y-111489762D01*
X135239048Y-111537381D01*
X135048571Y-111537381D01*
X136334286Y-110870714D02*
X136334286Y-111537381D01*
X136096190Y-110489762D02*
X135858095Y-111204048D01*
X136477143Y-111204048D01*
X140604762Y-111632619D02*
X140509524Y-111585000D01*
X140414286Y-111489762D01*
X140271429Y-111346905D01*
X140176190Y-111299286D01*
X140080952Y-111299286D01*
X140128571Y-111537381D02*
X140033333Y-111489762D01*
X139938095Y-111394524D01*
X139890476Y-111204048D01*
X139890476Y-110870714D01*
X139938095Y-110680238D01*
X140033333Y-110585000D01*
X140128571Y-110537381D01*
X140319048Y-110537381D01*
X140414286Y-110585000D01*
X140509524Y-110680238D01*
X140557143Y-110870714D01*
X140557143Y-111204048D01*
X140509524Y-111394524D01*
X140414286Y-111489762D01*
X140319048Y-111537381D01*
X140128571Y-111537381D01*
X141461905Y-110537381D02*
X140985714Y-110537381D01*
X140938095Y-111013571D01*
X140985714Y-110965952D01*
X141080952Y-110918333D01*
X141319048Y-110918333D01*
X141414286Y-110965952D01*
X141461905Y-111013571D01*
X141509524Y-111108810D01*
X141509524Y-111346905D01*
X141461905Y-111442143D01*
X141414286Y-111489762D01*
X141319048Y-111537381D01*
X141080952Y-111537381D01*
X140985714Y-111489762D01*
X140938095Y-111442143D01*
X140747762Y-102909619D02*
X140652524Y-102862000D01*
X140557286Y-102766762D01*
X140414429Y-102623905D01*
X140319190Y-102576286D01*
X140223952Y-102576286D01*
X140271571Y-102814381D02*
X140176333Y-102766762D01*
X140081095Y-102671524D01*
X140033476Y-102481048D01*
X140033476Y-102147714D01*
X140081095Y-101957238D01*
X140176333Y-101862000D01*
X140271571Y-101814381D01*
X140462048Y-101814381D01*
X140557286Y-101862000D01*
X140652524Y-101957238D01*
X140700143Y-102147714D01*
X140700143Y-102481048D01*
X140652524Y-102671524D01*
X140557286Y-102766762D01*
X140462048Y-102814381D01*
X140271571Y-102814381D01*
X141557286Y-101814381D02*
X141366809Y-101814381D01*
X141271571Y-101862000D01*
X141223952Y-101909619D01*
X141128714Y-102052476D01*
X141081095Y-102242952D01*
X141081095Y-102623905D01*
X141128714Y-102719143D01*
X141176333Y-102766762D01*
X141271571Y-102814381D01*
X141462048Y-102814381D01*
X141557286Y-102766762D01*
X141604905Y-102719143D01*
X141652524Y-102623905D01*
X141652524Y-102385810D01*
X141604905Y-102290571D01*
X141557286Y-102242952D01*
X141462048Y-102195333D01*
X141271571Y-102195333D01*
X141176333Y-102242952D01*
X141128714Y-102290571D01*
X141081095Y-102385810D01*
X145192762Y-102909619D02*
X145097524Y-102862000D01*
X145002286Y-102766762D01*
X144859429Y-102623905D01*
X144764190Y-102576286D01*
X144668952Y-102576286D01*
X144716571Y-102814381D02*
X144621333Y-102766762D01*
X144526095Y-102671524D01*
X144478476Y-102481048D01*
X144478476Y-102147714D01*
X144526095Y-101957238D01*
X144621333Y-101862000D01*
X144716571Y-101814381D01*
X144907048Y-101814381D01*
X145002286Y-101862000D01*
X145097524Y-101957238D01*
X145145143Y-102147714D01*
X145145143Y-102481048D01*
X145097524Y-102671524D01*
X145002286Y-102766762D01*
X144907048Y-102814381D01*
X144716571Y-102814381D01*
X145478476Y-101814381D02*
X146145143Y-101814381D01*
X145716571Y-102814381D01*
X145430762Y-111632619D02*
X145335524Y-111585000D01*
X145240286Y-111489762D01*
X145097429Y-111346905D01*
X145002190Y-111299286D01*
X144906952Y-111299286D01*
X144954571Y-111537381D02*
X144859333Y-111489762D01*
X144764095Y-111394524D01*
X144716476Y-111204048D01*
X144716476Y-110870714D01*
X144764095Y-110680238D01*
X144859333Y-110585000D01*
X144954571Y-110537381D01*
X145145048Y-110537381D01*
X145240286Y-110585000D01*
X145335524Y-110680238D01*
X145383143Y-110870714D01*
X145383143Y-111204048D01*
X145335524Y-111394524D01*
X145240286Y-111489762D01*
X145145048Y-111537381D01*
X144954571Y-111537381D01*
X145954571Y-110965952D02*
X145859333Y-110918333D01*
X145811714Y-110870714D01*
X145764095Y-110775476D01*
X145764095Y-110727857D01*
X145811714Y-110632619D01*
X145859333Y-110585000D01*
X145954571Y-110537381D01*
X146145048Y-110537381D01*
X146240286Y-110585000D01*
X146287905Y-110632619D01*
X146335524Y-110727857D01*
X146335524Y-110775476D01*
X146287905Y-110870714D01*
X146240286Y-110918333D01*
X146145048Y-110965952D01*
X145954571Y-110965952D01*
X145859333Y-111013571D01*
X145811714Y-111061190D01*
X145764095Y-111156429D01*
X145764095Y-111346905D01*
X145811714Y-111442143D01*
X145859333Y-111489762D01*
X145954571Y-111537381D01*
X146145048Y-111537381D01*
X146240286Y-111489762D01*
X146287905Y-111442143D01*
X146335524Y-111346905D01*
X146335524Y-111156429D01*
X146287905Y-111061190D01*
X146240286Y-111013571D01*
X146145048Y-110965952D01*
X170830581Y-54199323D02*
X171544867Y-54199323D01*
X171687724Y-54246943D01*
X171782962Y-54342181D01*
X171830581Y-54485038D01*
X171830581Y-54580276D01*
X170925819Y-53770752D02*
X170878200Y-53723133D01*
X170830581Y-53627895D01*
X170830581Y-53389799D01*
X170878200Y-53294561D01*
X170925819Y-53246942D01*
X171021057Y-53199323D01*
X171116295Y-53199323D01*
X171259152Y-53246942D01*
X171830581Y-53818371D01*
X171830581Y-53199323D01*
X170830581Y-52865990D02*
X170830581Y-52246942D01*
X171211533Y-52580276D01*
X171211533Y-52437418D01*
X171259152Y-52342180D01*
X171306771Y-52294561D01*
X171402010Y-52246942D01*
X171640105Y-52246942D01*
X171735343Y-52294561D01*
X171782962Y-52342180D01*
X171830581Y-52437418D01*
X171830581Y-52723133D01*
X171782962Y-52818371D01*
X171735343Y-52865990D01*
X129378414Y-89441281D02*
X129045080Y-88965090D01*
X128806985Y-89441281D02*
X128806985Y-88441281D01*
X129187938Y-88441281D01*
X129283176Y-88488900D01*
X129330795Y-88536519D01*
X129378414Y-88631757D01*
X129378414Y-88774614D01*
X129330795Y-88869852D01*
X129283176Y-88917471D01*
X129187938Y-88965090D01*
X128806985Y-88965090D01*
X130330795Y-89441281D02*
X129759366Y-89441281D01*
X130045080Y-89441281D02*
X130045080Y-88441281D01*
X129949842Y-88584138D01*
X129854604Y-88679376D01*
X129759366Y-88726995D01*
X138065214Y-101364041D02*
X137731880Y-100887850D01*
X137493785Y-101364041D02*
X137493785Y-100364041D01*
X137874738Y-100364041D01*
X137969976Y-100411660D01*
X138017595Y-100459279D01*
X138065214Y-100554517D01*
X138065214Y-100697374D01*
X138017595Y-100792612D01*
X137969976Y-100840231D01*
X137874738Y-100887850D01*
X137493785Y-100887850D01*
X138446166Y-100459279D02*
X138493785Y-100411660D01*
X138589023Y-100364041D01*
X138827119Y-100364041D01*
X138922357Y-100411660D01*
X138969976Y-100459279D01*
X139017595Y-100554517D01*
X139017595Y-100649755D01*
X138969976Y-100792612D01*
X138398547Y-101364041D01*
X139017595Y-101364041D01*
X137453074Y-99626681D02*
X137119740Y-99150490D01*
X136881645Y-99626681D02*
X136881645Y-98626681D01*
X137262598Y-98626681D01*
X137357836Y-98674300D01*
X137405455Y-98721919D01*
X137453074Y-98817157D01*
X137453074Y-98960014D01*
X137405455Y-99055252D01*
X137357836Y-99102871D01*
X137262598Y-99150490D01*
X136881645Y-99150490D01*
X137786407Y-98626681D02*
X138405455Y-98626681D01*
X138072121Y-99007633D01*
X138214979Y-99007633D01*
X138310217Y-99055252D01*
X138357836Y-99102871D01*
X138405455Y-99198110D01*
X138405455Y-99436205D01*
X138357836Y-99531443D01*
X138310217Y-99579062D01*
X138214979Y-99626681D01*
X137929264Y-99626681D01*
X137834026Y-99579062D01*
X137786407Y-99531443D01*
X140722381Y-90716666D02*
X140246190Y-91050000D01*
X140722381Y-91288095D02*
X139722381Y-91288095D01*
X139722381Y-90907142D01*
X139770000Y-90811904D01*
X139817619Y-90764285D01*
X139912857Y-90716666D01*
X140055714Y-90716666D01*
X140150952Y-90764285D01*
X140198571Y-90811904D01*
X140246190Y-90907142D01*
X140246190Y-91288095D01*
X140055714Y-89859523D02*
X140722381Y-89859523D01*
X139674762Y-90097619D02*
X140389048Y-90335714D01*
X140389048Y-89716666D01*
X143262381Y-90785666D02*
X142786190Y-91119000D01*
X143262381Y-91357095D02*
X142262381Y-91357095D01*
X142262381Y-90976142D01*
X142310000Y-90880904D01*
X142357619Y-90833285D01*
X142452857Y-90785666D01*
X142595714Y-90785666D01*
X142690952Y-90833285D01*
X142738571Y-90880904D01*
X142786190Y-90976142D01*
X142786190Y-91357095D01*
X142262381Y-89880904D02*
X142262381Y-90357095D01*
X142738571Y-90404714D01*
X142690952Y-90357095D01*
X142643333Y-90261857D01*
X142643333Y-90023761D01*
X142690952Y-89928523D01*
X142738571Y-89880904D01*
X142833810Y-89833285D01*
X143071905Y-89833285D01*
X143167143Y-89880904D01*
X143214762Y-89928523D01*
X143262381Y-90023761D01*
X143262381Y-90261857D01*
X143214762Y-90357095D01*
X143167143Y-90404714D01*
X153223934Y-103627181D02*
X152890600Y-103150990D01*
X152652505Y-103627181D02*
X152652505Y-102627181D01*
X153033458Y-102627181D01*
X153128696Y-102674800D01*
X153176315Y-102722419D01*
X153223934Y-102817657D01*
X153223934Y-102960514D01*
X153176315Y-103055752D01*
X153128696Y-103103371D01*
X153033458Y-103150990D01*
X152652505Y-103150990D01*
X154081077Y-102627181D02*
X153890600Y-102627181D01*
X153795362Y-102674800D01*
X153747743Y-102722419D01*
X153652505Y-102865276D01*
X153604886Y-103055752D01*
X153604886Y-103436705D01*
X153652505Y-103531943D01*
X153700124Y-103579562D01*
X153795362Y-103627181D01*
X153985839Y-103627181D01*
X154081077Y-103579562D01*
X154128696Y-103531943D01*
X154176315Y-103436705D01*
X154176315Y-103198610D01*
X154128696Y-103103371D01*
X154081077Y-103055752D01*
X153985839Y-103008133D01*
X153795362Y-103008133D01*
X153700124Y-103055752D01*
X153652505Y-103103371D01*
X153604886Y-103198610D01*
X153223934Y-106184961D02*
X152890600Y-105708770D01*
X152652505Y-106184961D02*
X152652505Y-105184961D01*
X153033458Y-105184961D01*
X153128696Y-105232580D01*
X153176315Y-105280199D01*
X153223934Y-105375437D01*
X153223934Y-105518294D01*
X153176315Y-105613532D01*
X153128696Y-105661151D01*
X153033458Y-105708770D01*
X152652505Y-105708770D01*
X153557267Y-105184961D02*
X154223934Y-105184961D01*
X153795362Y-106184961D01*
X154161194Y-112235241D02*
X153827860Y-111759050D01*
X153589765Y-112235241D02*
X153589765Y-111235241D01*
X153970718Y-111235241D01*
X154065956Y-111282860D01*
X154113575Y-111330479D01*
X154161194Y-111425717D01*
X154161194Y-111568574D01*
X154113575Y-111663812D01*
X154065956Y-111711431D01*
X153970718Y-111759050D01*
X153589765Y-111759050D01*
X154732622Y-111663812D02*
X154637384Y-111616193D01*
X154589765Y-111568574D01*
X154542146Y-111473336D01*
X154542146Y-111425717D01*
X154589765Y-111330479D01*
X154637384Y-111282860D01*
X154732622Y-111235241D01*
X154923099Y-111235241D01*
X155018337Y-111282860D01*
X155065956Y-111330479D01*
X155113575Y-111425717D01*
X155113575Y-111473336D01*
X155065956Y-111568574D01*
X155018337Y-111616193D01*
X154923099Y-111663812D01*
X154732622Y-111663812D01*
X154637384Y-111711431D01*
X154589765Y-111759050D01*
X154542146Y-111854289D01*
X154542146Y-112044765D01*
X154589765Y-112140003D01*
X154637384Y-112187622D01*
X154732622Y-112235241D01*
X154923099Y-112235241D01*
X155018337Y-112187622D01*
X155065956Y-112140003D01*
X155113575Y-112044765D01*
X155113575Y-111854289D01*
X155065956Y-111759050D01*
X155018337Y-111711431D01*
X154923099Y-111663812D01*
X136977381Y-91188357D02*
X136501190Y-91521691D01*
X136977381Y-91759786D02*
X135977381Y-91759786D01*
X135977381Y-91378833D01*
X136025000Y-91283595D01*
X136072619Y-91235976D01*
X136167857Y-91188357D01*
X136310714Y-91188357D01*
X136405952Y-91235976D01*
X136453571Y-91283595D01*
X136501190Y-91378833D01*
X136501190Y-91759786D01*
X136072619Y-90807405D02*
X136025000Y-90759786D01*
X135977381Y-90664548D01*
X135977381Y-90426452D01*
X136025000Y-90331214D01*
X136072619Y-90283595D01*
X136167857Y-90235976D01*
X136263095Y-90235976D01*
X136405952Y-90283595D01*
X136977381Y-90855024D01*
X136977381Y-90235976D01*
X135977381Y-89331214D02*
X135977381Y-89807405D01*
X136453571Y-89855024D01*
X136405952Y-89807405D01*
X136358333Y-89712167D01*
X136358333Y-89474071D01*
X136405952Y-89378833D01*
X136453571Y-89331214D01*
X136548810Y-89283595D01*
X136786905Y-89283595D01*
X136882143Y-89331214D01*
X136929762Y-89378833D01*
X136977381Y-89474071D01*
X136977381Y-89712167D01*
X136929762Y-89807405D01*
X136882143Y-89855024D01*
X129354343Y-90779861D02*
X129021009Y-90303670D01*
X128782914Y-90779861D02*
X128782914Y-89779861D01*
X129163867Y-89779861D01*
X129259105Y-89827480D01*
X129306724Y-89875099D01*
X129354343Y-89970337D01*
X129354343Y-90113194D01*
X129306724Y-90208432D01*
X129259105Y-90256051D01*
X129163867Y-90303670D01*
X128782914Y-90303670D01*
X129735295Y-89875099D02*
X129782914Y-89827480D01*
X129878152Y-89779861D01*
X130116248Y-89779861D01*
X130211486Y-89827480D01*
X130259105Y-89875099D01*
X130306724Y-89970337D01*
X130306724Y-90065575D01*
X130259105Y-90208432D01*
X129687676Y-90779861D01*
X130306724Y-90779861D01*
X131163867Y-89779861D02*
X130973390Y-89779861D01*
X130878152Y-89827480D01*
X130830533Y-89875099D01*
X130735295Y-90017956D01*
X130687676Y-90208432D01*
X130687676Y-90589385D01*
X130735295Y-90684623D01*
X130782914Y-90732242D01*
X130878152Y-90779861D01*
X131068629Y-90779861D01*
X131163867Y-90732242D01*
X131211486Y-90684623D01*
X131259105Y-90589385D01*
X131259105Y-90351290D01*
X131211486Y-90256051D01*
X131163867Y-90208432D01*
X131068629Y-90160813D01*
X130878152Y-90160813D01*
X130782914Y-90208432D01*
X130735295Y-90256051D01*
X130687676Y-90351290D01*
X137053083Y-95654121D02*
X136719749Y-95177930D01*
X136481654Y-95654121D02*
X136481654Y-94654121D01*
X136862607Y-94654121D01*
X136957845Y-94701740D01*
X137005464Y-94749359D01*
X137053083Y-94844597D01*
X137053083Y-94987454D01*
X137005464Y-95082692D01*
X136957845Y-95130311D01*
X136862607Y-95177930D01*
X136481654Y-95177930D01*
X137434035Y-94749359D02*
X137481654Y-94701740D01*
X137576892Y-94654121D01*
X137814988Y-94654121D01*
X137910226Y-94701740D01*
X137957845Y-94749359D01*
X138005464Y-94844597D01*
X138005464Y-94939835D01*
X137957845Y-95082692D01*
X137386416Y-95654121D01*
X138005464Y-95654121D01*
X138338797Y-94654121D02*
X139005464Y-94654121D01*
X138576892Y-95654121D01*
X135244603Y-101341181D02*
X134911269Y-100864990D01*
X134673174Y-101341181D02*
X134673174Y-100341181D01*
X135054127Y-100341181D01*
X135149365Y-100388800D01*
X135196984Y-100436419D01*
X135244603Y-100531657D01*
X135244603Y-100674514D01*
X135196984Y-100769752D01*
X135149365Y-100817371D01*
X135054127Y-100864990D01*
X134673174Y-100864990D01*
X135625555Y-100436419D02*
X135673174Y-100388800D01*
X135768412Y-100341181D01*
X136006508Y-100341181D01*
X136101746Y-100388800D01*
X136149365Y-100436419D01*
X136196984Y-100531657D01*
X136196984Y-100626895D01*
X136149365Y-100769752D01*
X135577936Y-101341181D01*
X136196984Y-101341181D01*
X136768412Y-100769752D02*
X136673174Y-100722133D01*
X136625555Y-100674514D01*
X136577936Y-100579276D01*
X136577936Y-100531657D01*
X136625555Y-100436419D01*
X136673174Y-100388800D01*
X136768412Y-100341181D01*
X136958889Y-100341181D01*
X137054127Y-100388800D01*
X137101746Y-100436419D01*
X137149365Y-100531657D01*
X137149365Y-100579276D01*
X137101746Y-100674514D01*
X137054127Y-100722133D01*
X136958889Y-100769752D01*
X136768412Y-100769752D01*
X136673174Y-100817371D01*
X136625555Y-100864990D01*
X136577936Y-100960229D01*
X136577936Y-101150705D01*
X136625555Y-101245943D01*
X136673174Y-101293562D01*
X136768412Y-101341181D01*
X136958889Y-101341181D01*
X137054127Y-101293562D01*
X137101746Y-101245943D01*
X137149365Y-101150705D01*
X137149365Y-100960229D01*
X137101746Y-100864990D01*
X137054127Y-100817371D01*
X136958889Y-100769752D01*
X153196243Y-107515921D02*
X152862909Y-107039730D01*
X152624814Y-107515921D02*
X152624814Y-106515921D01*
X153005767Y-106515921D01*
X153101005Y-106563540D01*
X153148624Y-106611159D01*
X153196243Y-106706397D01*
X153196243Y-106849254D01*
X153148624Y-106944492D01*
X153101005Y-106992111D01*
X153005767Y-107039730D01*
X152624814Y-107039730D01*
X153577195Y-106611159D02*
X153624814Y-106563540D01*
X153720052Y-106515921D01*
X153958148Y-106515921D01*
X154053386Y-106563540D01*
X154101005Y-106611159D01*
X154148624Y-106706397D01*
X154148624Y-106801635D01*
X154101005Y-106944492D01*
X153529576Y-107515921D01*
X154148624Y-107515921D01*
X154624814Y-107515921D02*
X154815290Y-107515921D01*
X154910529Y-107468302D01*
X154958148Y-107420683D01*
X155053386Y-107277826D01*
X155101005Y-107087350D01*
X155101005Y-106706397D01*
X155053386Y-106611159D01*
X155005767Y-106563540D01*
X154910529Y-106515921D01*
X154720052Y-106515921D01*
X154624814Y-106563540D01*
X154577195Y-106611159D01*
X154529576Y-106706397D01*
X154529576Y-106944492D01*
X154577195Y-107039730D01*
X154624814Y-107087350D01*
X154720052Y-107134969D01*
X154910529Y-107134969D01*
X155005767Y-107087350D01*
X155053386Y-107039730D01*
X155101005Y-106944492D01*
X153196243Y-104899721D02*
X152862909Y-104423530D01*
X152624814Y-104899721D02*
X152624814Y-103899721D01*
X153005767Y-103899721D01*
X153101005Y-103947340D01*
X153148624Y-103994959D01*
X153196243Y-104090197D01*
X153196243Y-104233054D01*
X153148624Y-104328292D01*
X153101005Y-104375911D01*
X153005767Y-104423530D01*
X152624814Y-104423530D01*
X153529576Y-103899721D02*
X154148624Y-103899721D01*
X153815290Y-104280673D01*
X153958148Y-104280673D01*
X154053386Y-104328292D01*
X154101005Y-104375911D01*
X154148624Y-104471150D01*
X154148624Y-104709245D01*
X154101005Y-104804483D01*
X154053386Y-104852102D01*
X153958148Y-104899721D01*
X153672433Y-104899721D01*
X153577195Y-104852102D01*
X153529576Y-104804483D01*
X154767671Y-103899721D02*
X154862910Y-103899721D01*
X154958148Y-103947340D01*
X155005767Y-103994959D01*
X155053386Y-104090197D01*
X155101005Y-104280673D01*
X155101005Y-104518769D01*
X155053386Y-104709245D01*
X155005767Y-104804483D01*
X154958148Y-104852102D01*
X154862910Y-104899721D01*
X154767671Y-104899721D01*
X154672433Y-104852102D01*
X154624814Y-104804483D01*
X154577195Y-104709245D01*
X154529576Y-104518769D01*
X154529576Y-104280673D01*
X154577195Y-104090197D01*
X154624814Y-103994959D01*
X154672433Y-103947340D01*
X154767671Y-103899721D01*
X153196243Y-102461321D02*
X152862909Y-101985130D01*
X152624814Y-102461321D02*
X152624814Y-101461321D01*
X153005767Y-101461321D01*
X153101005Y-101508940D01*
X153148624Y-101556559D01*
X153196243Y-101651797D01*
X153196243Y-101794654D01*
X153148624Y-101889892D01*
X153101005Y-101937511D01*
X153005767Y-101985130D01*
X152624814Y-101985130D01*
X153529576Y-101461321D02*
X154148624Y-101461321D01*
X153815290Y-101842273D01*
X153958148Y-101842273D01*
X154053386Y-101889892D01*
X154101005Y-101937511D01*
X154148624Y-102032750D01*
X154148624Y-102270845D01*
X154101005Y-102366083D01*
X154053386Y-102413702D01*
X153958148Y-102461321D01*
X153672433Y-102461321D01*
X153577195Y-102413702D01*
X153529576Y-102366083D01*
X155101005Y-102461321D02*
X154529576Y-102461321D01*
X154815290Y-102461321D02*
X154815290Y-101461321D01*
X154720052Y-101604178D01*
X154624814Y-101699416D01*
X154529576Y-101747035D01*
X145737841Y-91170997D02*
X145261650Y-91504331D01*
X145737841Y-91742426D02*
X144737841Y-91742426D01*
X144737841Y-91361473D01*
X144785460Y-91266235D01*
X144833079Y-91218616D01*
X144928317Y-91170997D01*
X145071174Y-91170997D01*
X145166412Y-91218616D01*
X145214031Y-91266235D01*
X145261650Y-91361473D01*
X145261650Y-91742426D01*
X144737841Y-90837664D02*
X144737841Y-90218616D01*
X145118793Y-90551950D01*
X145118793Y-90409092D01*
X145166412Y-90313854D01*
X145214031Y-90266235D01*
X145309270Y-90218616D01*
X145547365Y-90218616D01*
X145642603Y-90266235D01*
X145690222Y-90313854D01*
X145737841Y-90409092D01*
X145737841Y-90694807D01*
X145690222Y-90790045D01*
X145642603Y-90837664D01*
X144833079Y-89837664D02*
X144785460Y-89790045D01*
X144737841Y-89694807D01*
X144737841Y-89456711D01*
X144785460Y-89361473D01*
X144833079Y-89313854D01*
X144928317Y-89266235D01*
X145023555Y-89266235D01*
X145166412Y-89313854D01*
X145737841Y-89885283D01*
X145737841Y-89266235D01*
X140680203Y-100083881D02*
X140346869Y-99607690D01*
X140108774Y-100083881D02*
X140108774Y-99083881D01*
X140489727Y-99083881D01*
X140584965Y-99131500D01*
X140632584Y-99179119D01*
X140680203Y-99274357D01*
X140680203Y-99417214D01*
X140632584Y-99512452D01*
X140584965Y-99560071D01*
X140489727Y-99607690D01*
X140108774Y-99607690D01*
X141013536Y-99083881D02*
X141632584Y-99083881D01*
X141299250Y-99464833D01*
X141442108Y-99464833D01*
X141537346Y-99512452D01*
X141584965Y-99560071D01*
X141632584Y-99655310D01*
X141632584Y-99893405D01*
X141584965Y-99988643D01*
X141537346Y-100036262D01*
X141442108Y-100083881D01*
X141156393Y-100083881D01*
X141061155Y-100036262D01*
X141013536Y-99988643D01*
X141965917Y-99083881D02*
X142584965Y-99083881D01*
X142251631Y-99464833D01*
X142394489Y-99464833D01*
X142489727Y-99512452D01*
X142537346Y-99560071D01*
X142584965Y-99655310D01*
X142584965Y-99893405D01*
X142537346Y-99988643D01*
X142489727Y-100036262D01*
X142394489Y-100083881D01*
X142108774Y-100083881D01*
X142013536Y-100036262D01*
X141965917Y-99988643D01*
X140700523Y-98613221D02*
X140367189Y-98137030D01*
X140129094Y-98613221D02*
X140129094Y-97613221D01*
X140510047Y-97613221D01*
X140605285Y-97660840D01*
X140652904Y-97708459D01*
X140700523Y-97803697D01*
X140700523Y-97946554D01*
X140652904Y-98041792D01*
X140605285Y-98089411D01*
X140510047Y-98137030D01*
X140129094Y-98137030D01*
X141033856Y-97613221D02*
X141652904Y-97613221D01*
X141319570Y-97994173D01*
X141462428Y-97994173D01*
X141557666Y-98041792D01*
X141605285Y-98089411D01*
X141652904Y-98184650D01*
X141652904Y-98422745D01*
X141605285Y-98517983D01*
X141557666Y-98565602D01*
X141462428Y-98613221D01*
X141176713Y-98613221D01*
X141081475Y-98565602D01*
X141033856Y-98517983D01*
X142510047Y-97946554D02*
X142510047Y-98613221D01*
X142271951Y-97565602D02*
X142033856Y-98279888D01*
X142652904Y-98279888D01*
X115940603Y-66477141D02*
X115607269Y-66000950D01*
X115369174Y-66477141D02*
X115369174Y-65477141D01*
X115750127Y-65477141D01*
X115845365Y-65524760D01*
X115892984Y-65572379D01*
X115940603Y-65667617D01*
X115940603Y-65810474D01*
X115892984Y-65905712D01*
X115845365Y-65953331D01*
X115750127Y-66000950D01*
X115369174Y-66000950D01*
X116273936Y-65477141D02*
X116892984Y-65477141D01*
X116559650Y-65858093D01*
X116702508Y-65858093D01*
X116797746Y-65905712D01*
X116845365Y-65953331D01*
X116892984Y-66048570D01*
X116892984Y-66286665D01*
X116845365Y-66381903D01*
X116797746Y-66429522D01*
X116702508Y-66477141D01*
X116416793Y-66477141D01*
X116321555Y-66429522D01*
X116273936Y-66381903D01*
X117226317Y-65477141D02*
X117892984Y-65477141D01*
X117464412Y-66477141D01*
X115940603Y-64048901D02*
X115607269Y-63572710D01*
X115369174Y-64048901D02*
X115369174Y-63048901D01*
X115750127Y-63048901D01*
X115845365Y-63096520D01*
X115892984Y-63144139D01*
X115940603Y-63239377D01*
X115940603Y-63382234D01*
X115892984Y-63477472D01*
X115845365Y-63525091D01*
X115750127Y-63572710D01*
X115369174Y-63572710D01*
X116273936Y-63048901D02*
X116892984Y-63048901D01*
X116559650Y-63429853D01*
X116702508Y-63429853D01*
X116797746Y-63477472D01*
X116845365Y-63525091D01*
X116892984Y-63620330D01*
X116892984Y-63858425D01*
X116845365Y-63953663D01*
X116797746Y-64001282D01*
X116702508Y-64048901D01*
X116416793Y-64048901D01*
X116321555Y-64001282D01*
X116273936Y-63953663D01*
X117464412Y-63477472D02*
X117369174Y-63429853D01*
X117321555Y-63382234D01*
X117273936Y-63286996D01*
X117273936Y-63239377D01*
X117321555Y-63144139D01*
X117369174Y-63096520D01*
X117464412Y-63048901D01*
X117654889Y-63048901D01*
X117750127Y-63096520D01*
X117797746Y-63144139D01*
X117845365Y-63239377D01*
X117845365Y-63286996D01*
X117797746Y-63382234D01*
X117750127Y-63429853D01*
X117654889Y-63477472D01*
X117464412Y-63477472D01*
X117369174Y-63525091D01*
X117321555Y-63572710D01*
X117273936Y-63667949D01*
X117273936Y-63858425D01*
X117321555Y-63953663D01*
X117369174Y-64001282D01*
X117464412Y-64048901D01*
X117654889Y-64048901D01*
X117750127Y-64001282D01*
X117797746Y-63953663D01*
X117845365Y-63858425D01*
X117845365Y-63667949D01*
X117797746Y-63572710D01*
X117750127Y-63525091D01*
X117654889Y-63477472D01*
X131200923Y-89441281D02*
X130867589Y-88965090D01*
X130629494Y-89441281D02*
X130629494Y-88441281D01*
X131010447Y-88441281D01*
X131105685Y-88488900D01*
X131153304Y-88536519D01*
X131200923Y-88631757D01*
X131200923Y-88774614D01*
X131153304Y-88869852D01*
X131105685Y-88917471D01*
X131010447Y-88965090D01*
X130629494Y-88965090D01*
X131534256Y-88441281D02*
X132153304Y-88441281D01*
X131819970Y-88822233D01*
X131962828Y-88822233D01*
X132058066Y-88869852D01*
X132105685Y-88917471D01*
X132153304Y-89012710D01*
X132153304Y-89250805D01*
X132105685Y-89346043D01*
X132058066Y-89393662D01*
X131962828Y-89441281D01*
X131677113Y-89441281D01*
X131581875Y-89393662D01*
X131534256Y-89346043D01*
X132629494Y-89441281D02*
X132819970Y-89441281D01*
X132915209Y-89393662D01*
X132962828Y-89346043D01*
X133058066Y-89203186D01*
X133105685Y-89012710D01*
X133105685Y-88631757D01*
X133058066Y-88536519D01*
X133010447Y-88488900D01*
X132915209Y-88441281D01*
X132724732Y-88441281D01*
X132629494Y-88488900D01*
X132581875Y-88536519D01*
X132534256Y-88631757D01*
X132534256Y-88869852D01*
X132581875Y-88965090D01*
X132629494Y-89012710D01*
X132724732Y-89060329D01*
X132915209Y-89060329D01*
X133010447Y-89012710D01*
X133058066Y-88965090D01*
X133105685Y-88869852D01*
X140228581Y-96322117D02*
X139752390Y-96655451D01*
X140228581Y-96893546D02*
X139228581Y-96893546D01*
X139228581Y-96512593D01*
X139276200Y-96417355D01*
X139323819Y-96369736D01*
X139419057Y-96322117D01*
X139561914Y-96322117D01*
X139657152Y-96369736D01*
X139704771Y-96417355D01*
X139752390Y-96512593D01*
X139752390Y-96893546D01*
X139561914Y-95464974D02*
X140228581Y-95464974D01*
X139180962Y-95703070D02*
X139895248Y-95941165D01*
X139895248Y-95322117D01*
X139228581Y-94750689D02*
X139228581Y-94655450D01*
X139276200Y-94560212D01*
X139323819Y-94512593D01*
X139419057Y-94464974D01*
X139609533Y-94417355D01*
X139847629Y-94417355D01*
X140038105Y-94464974D01*
X140133343Y-94512593D01*
X140180962Y-94560212D01*
X140228581Y-94655450D01*
X140228581Y-94750689D01*
X140180962Y-94845927D01*
X140133343Y-94893546D01*
X140038105Y-94941165D01*
X139847629Y-94988784D01*
X139609533Y-94988784D01*
X139419057Y-94941165D01*
X139323819Y-94893546D01*
X139276200Y-94845927D01*
X139228581Y-94750689D01*
X115940603Y-61284381D02*
X115607269Y-60808190D01*
X115369174Y-61284381D02*
X115369174Y-60284381D01*
X115750127Y-60284381D01*
X115845365Y-60332000D01*
X115892984Y-60379619D01*
X115940603Y-60474857D01*
X115940603Y-60617714D01*
X115892984Y-60712952D01*
X115845365Y-60760571D01*
X115750127Y-60808190D01*
X115369174Y-60808190D01*
X116797746Y-60617714D02*
X116797746Y-61284381D01*
X116559650Y-60236762D02*
X116321555Y-60951048D01*
X116940603Y-60951048D01*
X117226317Y-60284381D02*
X117845365Y-60284381D01*
X117512031Y-60665333D01*
X117654889Y-60665333D01*
X117750127Y-60712952D01*
X117797746Y-60760571D01*
X117845365Y-60855810D01*
X117845365Y-61093905D01*
X117797746Y-61189143D01*
X117750127Y-61236762D01*
X117654889Y-61284381D01*
X117369174Y-61284381D01*
X117273936Y-61236762D01*
X117226317Y-61189143D01*
X115940603Y-58744381D02*
X115607269Y-58268190D01*
X115369174Y-58744381D02*
X115369174Y-57744381D01*
X115750127Y-57744381D01*
X115845365Y-57792000D01*
X115892984Y-57839619D01*
X115940603Y-57934857D01*
X115940603Y-58077714D01*
X115892984Y-58172952D01*
X115845365Y-58220571D01*
X115750127Y-58268190D01*
X115369174Y-58268190D01*
X116797746Y-58077714D02*
X116797746Y-58744381D01*
X116559650Y-57696762D02*
X116321555Y-58411048D01*
X116940603Y-58411048D01*
X117750127Y-58077714D02*
X117750127Y-58744381D01*
X117512031Y-57696762D02*
X117273936Y-58411048D01*
X117892984Y-58411048D01*
X149938503Y-103698301D02*
X149605169Y-103222110D01*
X149367074Y-103698301D02*
X149367074Y-102698301D01*
X149748027Y-102698301D01*
X149843265Y-102745920D01*
X149890884Y-102793539D01*
X149938503Y-102888777D01*
X149938503Y-103031634D01*
X149890884Y-103126872D01*
X149843265Y-103174491D01*
X149748027Y-103222110D01*
X149367074Y-103222110D01*
X150795646Y-103031634D02*
X150795646Y-103698301D01*
X150557550Y-102650682D02*
X150319455Y-103364968D01*
X150938503Y-103364968D01*
X151795646Y-102698301D02*
X151319455Y-102698301D01*
X151271836Y-103174491D01*
X151319455Y-103126872D01*
X151414693Y-103079253D01*
X151652789Y-103079253D01*
X151748027Y-103126872D01*
X151795646Y-103174491D01*
X151843265Y-103269730D01*
X151843265Y-103507825D01*
X151795646Y-103603063D01*
X151748027Y-103650682D01*
X151652789Y-103698301D01*
X151414693Y-103698301D01*
X151319455Y-103650682D01*
X151271836Y-103603063D01*
X141546841Y-96436417D02*
X141070650Y-96769751D01*
X141546841Y-97007846D02*
X140546841Y-97007846D01*
X140546841Y-96626893D01*
X140594460Y-96531655D01*
X140642079Y-96484036D01*
X140737317Y-96436417D01*
X140880174Y-96436417D01*
X140975412Y-96484036D01*
X141023031Y-96531655D01*
X141070650Y-96626893D01*
X141070650Y-97007846D01*
X140880174Y-95579274D02*
X141546841Y-95579274D01*
X140499222Y-95817370D02*
X141213508Y-96055465D01*
X141213508Y-95436417D01*
X140546841Y-94626893D02*
X140546841Y-94817370D01*
X140594460Y-94912608D01*
X140642079Y-94960227D01*
X140784936Y-95055465D01*
X140975412Y-95103084D01*
X141356365Y-95103084D01*
X141451603Y-95055465D01*
X141499222Y-95007846D01*
X141546841Y-94912608D01*
X141546841Y-94722131D01*
X141499222Y-94626893D01*
X141451603Y-94579274D01*
X141356365Y-94531655D01*
X141118270Y-94531655D01*
X141023031Y-94579274D01*
X140975412Y-94626893D01*
X140927793Y-94722131D01*
X140927793Y-94912608D01*
X140975412Y-95007846D01*
X141023031Y-95055465D01*
X141118270Y-95103084D01*
X115940603Y-53711101D02*
X115607269Y-53234910D01*
X115369174Y-53711101D02*
X115369174Y-52711101D01*
X115750127Y-52711101D01*
X115845365Y-52758720D01*
X115892984Y-52806339D01*
X115940603Y-52901577D01*
X115940603Y-53044434D01*
X115892984Y-53139672D01*
X115845365Y-53187291D01*
X115750127Y-53234910D01*
X115369174Y-53234910D01*
X116797746Y-53044434D02*
X116797746Y-53711101D01*
X116559650Y-52663482D02*
X116321555Y-53377768D01*
X116940603Y-53377768D01*
X117369174Y-53711101D02*
X117559650Y-53711101D01*
X117654889Y-53663482D01*
X117702508Y-53615863D01*
X117797746Y-53473006D01*
X117845365Y-53282530D01*
X117845365Y-52901577D01*
X117797746Y-52806339D01*
X117750127Y-52758720D01*
X117654889Y-52711101D01*
X117464412Y-52711101D01*
X117369174Y-52758720D01*
X117321555Y-52806339D01*
X117273936Y-52901577D01*
X117273936Y-53139672D01*
X117321555Y-53234910D01*
X117369174Y-53282530D01*
X117464412Y-53330149D01*
X117654889Y-53330149D01*
X117750127Y-53282530D01*
X117797746Y-53234910D01*
X117845365Y-53139672D01*
X115940603Y-56266341D02*
X115607269Y-55790150D01*
X115369174Y-56266341D02*
X115369174Y-55266341D01*
X115750127Y-55266341D01*
X115845365Y-55313960D01*
X115892984Y-55361579D01*
X115940603Y-55456817D01*
X115940603Y-55599674D01*
X115892984Y-55694912D01*
X115845365Y-55742531D01*
X115750127Y-55790150D01*
X115369174Y-55790150D01*
X116845365Y-55266341D02*
X116369174Y-55266341D01*
X116321555Y-55742531D01*
X116369174Y-55694912D01*
X116464412Y-55647293D01*
X116702508Y-55647293D01*
X116797746Y-55694912D01*
X116845365Y-55742531D01*
X116892984Y-55837770D01*
X116892984Y-56075865D01*
X116845365Y-56171103D01*
X116797746Y-56218722D01*
X116702508Y-56266341D01*
X116464412Y-56266341D01*
X116369174Y-56218722D01*
X116321555Y-56171103D01*
X117512031Y-55266341D02*
X117607270Y-55266341D01*
X117702508Y-55313960D01*
X117750127Y-55361579D01*
X117797746Y-55456817D01*
X117845365Y-55647293D01*
X117845365Y-55885389D01*
X117797746Y-56075865D01*
X117750127Y-56171103D01*
X117702508Y-56218722D01*
X117607270Y-56266341D01*
X117512031Y-56266341D01*
X117416793Y-56218722D01*
X117369174Y-56171103D01*
X117321555Y-56075865D01*
X117273936Y-55885389D01*
X117273936Y-55647293D01*
X117321555Y-55456817D01*
X117369174Y-55361579D01*
X117416793Y-55313960D01*
X117512031Y-55266341D01*
X149974063Y-106111301D02*
X149640729Y-105635110D01*
X149402634Y-106111301D02*
X149402634Y-105111301D01*
X149783587Y-105111301D01*
X149878825Y-105158920D01*
X149926444Y-105206539D01*
X149974063Y-105301777D01*
X149974063Y-105444634D01*
X149926444Y-105539872D01*
X149878825Y-105587491D01*
X149783587Y-105635110D01*
X149402634Y-105635110D01*
X150878825Y-105111301D02*
X150402634Y-105111301D01*
X150355015Y-105587491D01*
X150402634Y-105539872D01*
X150497872Y-105492253D01*
X150735968Y-105492253D01*
X150831206Y-105539872D01*
X150878825Y-105587491D01*
X150926444Y-105682730D01*
X150926444Y-105920825D01*
X150878825Y-106016063D01*
X150831206Y-106063682D01*
X150735968Y-106111301D01*
X150497872Y-106111301D01*
X150402634Y-106063682D01*
X150355015Y-106016063D01*
X151878825Y-106111301D02*
X151307396Y-106111301D01*
X151593110Y-106111301D02*
X151593110Y-105111301D01*
X151497872Y-105254158D01*
X151402634Y-105349396D01*
X151307396Y-105397015D01*
X149542263Y-112344461D02*
X149208929Y-111868270D01*
X148970834Y-112344461D02*
X148970834Y-111344461D01*
X149351787Y-111344461D01*
X149447025Y-111392080D01*
X149494644Y-111439699D01*
X149542263Y-111534937D01*
X149542263Y-111677794D01*
X149494644Y-111773032D01*
X149447025Y-111820651D01*
X149351787Y-111868270D01*
X148970834Y-111868270D01*
X150447025Y-111344461D02*
X149970834Y-111344461D01*
X149923215Y-111820651D01*
X149970834Y-111773032D01*
X150066072Y-111725413D01*
X150304168Y-111725413D01*
X150399406Y-111773032D01*
X150447025Y-111820651D01*
X150494644Y-111915890D01*
X150494644Y-112153985D01*
X150447025Y-112249223D01*
X150399406Y-112296842D01*
X150304168Y-112344461D01*
X150066072Y-112344461D01*
X149970834Y-112296842D01*
X149923215Y-112249223D01*
X150875596Y-111439699D02*
X150923215Y-111392080D01*
X151018453Y-111344461D01*
X151256549Y-111344461D01*
X151351787Y-111392080D01*
X151399406Y-111439699D01*
X151447025Y-111534937D01*
X151447025Y-111630175D01*
X151399406Y-111773032D01*
X150827977Y-112344461D01*
X151447025Y-112344461D01*
X115940603Y-51251381D02*
X115607269Y-50775190D01*
X115369174Y-51251381D02*
X115369174Y-50251381D01*
X115750127Y-50251381D01*
X115845365Y-50299000D01*
X115892984Y-50346619D01*
X115940603Y-50441857D01*
X115940603Y-50584714D01*
X115892984Y-50679952D01*
X115845365Y-50727571D01*
X115750127Y-50775190D01*
X115369174Y-50775190D01*
X116845365Y-50251381D02*
X116369174Y-50251381D01*
X116321555Y-50727571D01*
X116369174Y-50679952D01*
X116464412Y-50632333D01*
X116702508Y-50632333D01*
X116797746Y-50679952D01*
X116845365Y-50727571D01*
X116892984Y-50822810D01*
X116892984Y-51060905D01*
X116845365Y-51156143D01*
X116797746Y-51203762D01*
X116702508Y-51251381D01*
X116464412Y-51251381D01*
X116369174Y-51203762D01*
X116321555Y-51156143D01*
X117797746Y-50251381D02*
X117321555Y-50251381D01*
X117273936Y-50727571D01*
X117321555Y-50679952D01*
X117416793Y-50632333D01*
X117654889Y-50632333D01*
X117750127Y-50679952D01*
X117797746Y-50727571D01*
X117845365Y-50822810D01*
X117845365Y-51060905D01*
X117797746Y-51156143D01*
X117750127Y-51203762D01*
X117654889Y-51251381D01*
X117416793Y-51251381D01*
X117321555Y-51203762D01*
X117273936Y-51156143D01*
X120581183Y-47688761D02*
X120247849Y-47212570D01*
X120009754Y-47688761D02*
X120009754Y-46688761D01*
X120390707Y-46688761D01*
X120485945Y-46736380D01*
X120533564Y-46783999D01*
X120581183Y-46879237D01*
X120581183Y-47022094D01*
X120533564Y-47117332D01*
X120485945Y-47164951D01*
X120390707Y-47212570D01*
X120009754Y-47212570D01*
X121485945Y-46688761D02*
X121009754Y-46688761D01*
X120962135Y-47164951D01*
X121009754Y-47117332D01*
X121104992Y-47069713D01*
X121343088Y-47069713D01*
X121438326Y-47117332D01*
X121485945Y-47164951D01*
X121533564Y-47260190D01*
X121533564Y-47498285D01*
X121485945Y-47593523D01*
X121438326Y-47641142D01*
X121343088Y-47688761D01*
X121104992Y-47688761D01*
X121009754Y-47641142D01*
X120962135Y-47593523D01*
X122390707Y-46688761D02*
X122200230Y-46688761D01*
X122104992Y-46736380D01*
X122057373Y-46783999D01*
X121962135Y-46926856D01*
X121914516Y-47117332D01*
X121914516Y-47498285D01*
X121962135Y-47593523D01*
X122009754Y-47641142D01*
X122104992Y-47688761D01*
X122295469Y-47688761D01*
X122390707Y-47641142D01*
X122438326Y-47593523D01*
X122485945Y-47498285D01*
X122485945Y-47260190D01*
X122438326Y-47164951D01*
X122390707Y-47117332D01*
X122295469Y-47069713D01*
X122104992Y-47069713D01*
X122009754Y-47117332D01*
X121962135Y-47164951D01*
X121914516Y-47260190D01*
X146616381Y-70500676D02*
X146140190Y-70834010D01*
X146616381Y-71072105D02*
X145616381Y-71072105D01*
X145616381Y-70691152D01*
X145664000Y-70595914D01*
X145711619Y-70548295D01*
X145806857Y-70500676D01*
X145949714Y-70500676D01*
X146044952Y-70548295D01*
X146092571Y-70595914D01*
X146140190Y-70691152D01*
X146140190Y-71072105D01*
X146616381Y-70072105D02*
X145616381Y-70072105D01*
X146616381Y-69500676D01*
X145616381Y-69500676D01*
X145711619Y-69072105D02*
X145664000Y-69024486D01*
X145616381Y-68929248D01*
X145616381Y-68691152D01*
X145664000Y-68595914D01*
X145711619Y-68548295D01*
X145806857Y-68500676D01*
X145902095Y-68500676D01*
X146044952Y-68548295D01*
X146616381Y-69119724D01*
X146616381Y-68500676D01*
X151975781Y-70551476D02*
X151499590Y-70884810D01*
X151975781Y-71122905D02*
X150975781Y-71122905D01*
X150975781Y-70741952D01*
X151023400Y-70646714D01*
X151071019Y-70599095D01*
X151166257Y-70551476D01*
X151309114Y-70551476D01*
X151404352Y-70599095D01*
X151451971Y-70646714D01*
X151499590Y-70741952D01*
X151499590Y-71122905D01*
X151975781Y-70122905D02*
X150975781Y-70122905D01*
X151975781Y-69551476D01*
X150975781Y-69551476D01*
X151975781Y-68551476D02*
X151975781Y-69122905D01*
X151975781Y-68837191D02*
X150975781Y-68837191D01*
X151118638Y-68932429D01*
X151213876Y-69027667D01*
X151261495Y-69122905D01*
X142741354Y-79132703D02*
X142693735Y-79180322D01*
X142550878Y-79227941D01*
X142455640Y-79227941D01*
X142312782Y-79180322D01*
X142217544Y-79085084D01*
X142169925Y-78989846D01*
X142122306Y-78799370D01*
X142122306Y-78656512D01*
X142169925Y-78466036D01*
X142217544Y-78370798D01*
X142312782Y-78275560D01*
X142455640Y-78227941D01*
X142550878Y-78227941D01*
X142693735Y-78275560D01*
X142741354Y-78323179D01*
X143122306Y-78323179D02*
X143169925Y-78275560D01*
X143265163Y-78227941D01*
X143503259Y-78227941D01*
X143598497Y-78275560D01*
X143646116Y-78323179D01*
X143693735Y-78418417D01*
X143693735Y-78513655D01*
X143646116Y-78656512D01*
X143074687Y-79227941D01*
X143693735Y-79227941D01*
M02*
