M48
;DRILL file {KiCad 4.0.7-e2-6376~58~ubuntu16.04.1} date Fri Nov 24 15:55:35 2017
;FORMAT={-:-/ absolute / metric / decimal}
FMAT,2
METRIC,TZ
T1C0.330
T2C1.000
T3C1.500
%
G90
G05
M71
T1
X113.026Y-114.55
X113.284Y-44.704
X113.284Y-50.8
X113.284Y-59.944
X113.284Y-73.406
X113.284Y-81.534
X113.284Y-91.694
X113.284Y-99.568
X113.284Y-106.426
X113.284Y-113.03
X113.687Y-125.72
X113.687Y-130.791
X113.687Y-116.831
X113.687Y-120.648
X113.687Y-137.172
X113.687Y-142.243
X113.919Y-114.55
X114.804Y-114.55
X115.697Y-114.55
X116.267Y-51.18
X116.383Y-53.567
X116.472Y-65.977
X116.574Y-56.073
X116.586Y-63.098
X116.971Y-60.482
X117.856Y-113.03
X117.941Y-73.368
X117.945Y-49.59
X117.983Y-91.694
X117.983Y-101.854
X118.043Y-105.843
X118.081Y-69.314
X118.11Y-81.534
X119.38Y-116.84
X119.38Y-142.24
X120.934Y-69.314
X121.474Y-82.422
X121.982Y-82.422
X122.236Y-46.481
X123.546Y-63.373
X123.546Y-65.964
X123.571Y-48.006
X123.571Y-58.318
X123.571Y-60.884
X123.596Y-50.698
X123.622Y-53.264
X123.622Y-55.829
X124.46Y-116.84
X124.46Y-120.65
X124.46Y-130.81
X124.46Y-137.16
X124.46Y-142.24
X124.476Y-125.725
X124.544Y-46.444
X124.968Y-44.704
X126.681Y-68.551
X126.689Y-48.395
X127.285Y-71.56
X127.316Y-73.913
X127.522Y-105.076
X128.078Y-74.421
X128.778Y-102.87
X128.954Y-87.139
X129.286Y-92.329
X129.565Y-58.369
X129.616Y-55.804
X129.616Y-60.884
X129.616Y-63.373
X129.642Y-50.698
X129.642Y-53.238
X129.743Y-66.015
X129.856Y-80.009
X130.11Y-82.041
X130.11Y-84.835
X130.11Y-85.597
X130.364Y-74.929
X130.491Y-57.149
X130.556Y-97.155
X130.556Y-108.585
X130.81Y-116.84
X130.81Y-142.24
X130.849Y-70.16
X131.318Y-102.743
X131.38Y-91.439
X131.634Y-46.73
X132.563Y-50.567
X132.639Y-53.418
X132.639Y-55.728
X132.664Y-60.833
X132.904Y-90.423
X133.096Y-47.625
X133.096Y-65.964
X133.121Y-63.373
X133.271Y-44.63
X133.421Y-110.801
X134.135Y-94.588
X134.461Y-70.775
X134.493Y-107.315
X134.798Y-99.847
X135.733Y-110.813
X135.878Y-125.725
X135.89Y-116.84
X135.89Y-120.65
X135.89Y-130.81
X135.89Y-137.16
X136.134Y-55.796
X136.206Y-91.312
X136.39Y-53.203
X136.578Y-98.744
X136.632Y-60.878
X136.652Y-102.616
X136.836Y-50.757
X136.899Y-89.35
X137.111Y-72.163
X137.16Y-142.24
X137.311Y-53.336
X137.349Y-94.995
X137.451Y-55.993
X137.566Y-47.523
X137.922Y-106.68
X138.024Y-67.005
X138.096Y-64.616
X138.303Y-99.949
X138.33Y-44.647
X138.367Y-52.642
X138.532Y-61.062
X138.606Y-70.262
X138.963Y-50.165
X139.052Y-55.397
X139.154Y-57.848
X139.614Y-46.73
X139.762Y-73.659
X139.762Y-78.231
X139.827Y-67.742
X140.081Y-103.505
X140.238Y-91.188
X140.301Y-99.856
X140.308Y-90.217
X140.53Y-58.148
X140.564Y-92.989
X140.665Y-63.221
X140.729Y-60.945
X140.815Y-95.378
X140.97Y-116.84
X141.732Y-98.044
X141.732Y-102.362
X141.732Y-108.585
X141.757Y-57.806
X141.783Y-65.938
X141.859Y-104.775
X142.231Y-91.799
X142.334Y-95.329
X142.494Y-55.334
X142.519Y-67.056
X142.596Y-62.509
X142.691Y-94.443
X142.748Y-114.554
X142.81Y-86.613
X142.875Y-50.165
X143.256Y-109.22
X143.446Y-44.615
X143.51Y-112.776
X143.51Y-120.65
X143.51Y-125.73
X143.51Y-130.81
X143.51Y-137.16
X143.51Y-142.24
X143.533Y-100.574
X143.639Y-114.557
X143.662Y-93.142
X143.713Y-92.227
X143.84Y-55.485
X143.845Y-98.257
X143.86Y-89.447
X144.336Y-46.637
X144.336Y-47.516
X144.501Y-63.932
X144.78Y-60.579
X145.034Y-107.315
X145.085Y-67.666
X145.355Y-98.157
X145.371Y-95.454
X145.415Y-109.982
X145.646Y-102.921
X145.849Y-87.469
X145.95Y-90.754
X146.05Y-116.84
X146.253Y-50.19
X146.483Y-46.76
X146.665Y-91.668
X147.122Y-61.968
X147.358Y-46.718
X147.382Y-100.456
X147.385Y-67.082
X147.559Y-104.881
X147.573Y-92.023
X147.766Y-97.351
X147.77Y-94.79
X148.144Y-73.405
X148.162Y-88.513
X148.539Y-60.808
X148.539Y-63.932
X148.666Y-47.953
X148.692Y-67.691
X148.844Y-112.776
X148.856Y-50.09
X149.116Y-44.471
X149.627Y-46.998
X149.692Y-50.468
X149.708Y-57.963
X149.86Y-90.043
X149.86Y-120.65
X149.86Y-130.81
X149.86Y-137.16
X149.86Y-142.24
X149.875Y-125.725
X149.922Y-73.659
X149.992Y-66.861
X150.049Y-64.515
X150.112Y-86.803
X150.299Y-55.248
X150.368Y-92.075
X150.495Y-100.457
X150.571Y-67.767
X150.737Y-47.965
X151.13Y-116.84
X151.32Y-57.282
X151.409Y-53.162
X151.446Y-70.103
X151.447Y-66.011
X151.447Y-51.842
X151.573Y-64.134
X151.611Y-60.081
X151.804Y-48.833
X151.833Y-55.992
X152.4Y-101.727
X152.578Y-48.235
X152.654Y-89.789
X152.758Y-52.461
X152.781Y-87.249
X152.815Y-69.409
X152.908Y-91.694
X152.97Y-46.481
X152.97Y-62.737
X153.006Y-61.52
X153.017Y-57.92
X153.161Y-72.986
X153.231Y-55.886
X153.453Y-53.13
X154.109Y-47.988
X154.196Y-75.905
X154.369Y-65.141
X154.619Y-67.217
X154.715Y-64.278
X155.007Y-56.014
X155.122Y-51.726
X155.256Y-70.611
X155.423Y-61.16
X155.464Y-57.392
X155.577Y-64.121
X155.608Y-60.304
X155.648Y-47.394
X155.702Y-112.776
X155.727Y-54.74
X155.734Y-59.361
X155.764Y-101.853
X155.768Y-46.483
X155.788Y-62.021
X155.931Y-50.238
X156.21Y-116.84
X156.21Y-142.24
X156.23Y-77.089
X156.293Y-62.855
X156.306Y-52.899
X156.337Y-57.328
X156.526Y-101.853
X156.772Y-56.076
X156.78Y-82.867
X156.907Y-80.471
X157.034Y-107.949
X157.065Y-51.89
X157.136Y-50.737
X157.194Y-53.921
X157.197Y-64.824
X157.627Y-63.121
X157.778Y-66.549
X157.796Y-47.878
X157.851Y-46.738
X158.133Y-59.676
X158.232Y-80.423
X158.244Y-48.996
X158.267Y-77.278
X158.279Y-70.538
X158.289Y-56.668
X158.325Y-53.492
X158.366Y-67.385
X158.431Y-108.965
X158.517Y-64.701
X158.748Y-83.629
X158.776Y-81.569
X158.786Y-62.243
X158.924Y-44.546
X159.182Y-99.898
X159.234Y-61.068
X159.258Y-46.979
X159.362Y-56.589
X159.41Y-59.796
X159.512Y-94.793
X159.63Y-52.026
X159.645Y-53.593
X159.828Y-107.949
X160.039Y-65.349
X160.272Y-46.481
X160.324Y-58.347
X160.822Y-53.102
X160.858Y-112.751
X160.985Y-69.901
X161.087Y-72.314
X161.092Y-57.857
X161.277Y-125.725
X161.29Y-116.84
X161.29Y-120.65
X161.29Y-130.81
X161.29Y-137.16
X161.29Y-142.24
X161.387Y-52.229
X161.391Y-60.669
X161.506Y-56.619
X161.668Y-49.127
X161.884Y-53.902
X161.966Y-57.924
X162.279Y-57.031
X162.368Y-69.849
X162.368Y-71.373
X162.433Y-55.264
X162.622Y-50.672
X162.865Y-52.197
X163.144Y-57.887
X163.411Y-44.526
X163.651Y-56.446
X163.652Y-54.348
X163.665Y-60.601
X164.151Y-47.588
X164.423Y-57.634
X164.898Y-53.213
X165.162Y-73.913
X165.416Y-77.469
X165.67Y-72.135
X165.767Y-46.225
X165.964Y-112.763
X165.987Y-60.859
X166.108Y-53.215
X166.37Y-116.84
X166.37Y-142.24
X166.94Y-73.151
X166.94Y-78.993
X166.94Y-89.153
X166.94Y-99.313
X166.94Y-109.219
X167.081Y-53.264
X167.194Y-65.277
X167.194Y-67.563
X167.576Y-57.998
X167.792Y-62.051
X167.967Y-53.23
X168.21Y-66.293
X168.214Y-60.261
X168.653Y-114.551
X168.834Y-44.501
X169.012Y-59.893
X169.189Y-57.339
X169.43Y-53.561
X169.547Y-114.551
X170.181Y-49.501
X170.432Y-114.551
X170.61Y-57.683
X170.751Y-44.539
X170.838Y-116.831
X170.838Y-120.648
X170.838Y-125.72
X170.838Y-130.791
X170.838Y-137.172
X170.838Y-142.243
X170.92Y-48.431
X171.031Y-99.352
X171.044Y-84.138
X171.044Y-89.23
X171.044Y-94.285
X171.044Y-104.457
X171.056Y-79.108
X171.069Y-74.003
X171.069Y-109.537
X171.132Y-51.507
X171.148Y-69.007
X171.206Y-63.752
X171.221Y-59.652
X171.326Y-114.551
T2
X132.142Y-73.532
X134.682Y-73.532
X146.775Y-77.521
X151.775Y-77.521
T3
X122.236Y-74.854
X122.236Y-79.854
X122.236Y-84.854
X122.236Y-89.854
X122.236Y-94.854
X122.236Y-99.854
X122.236Y-104.854
X122.236Y-109.854
X162.216Y-62.487
X162.216Y-67.487
X162.241Y-74.727
X162.241Y-79.727
X162.241Y-84.727
X162.241Y-89.727
X162.241Y-94.727
X162.241Y-99.727
X162.241Y-104.727
X162.241Y-109.727
T0
M30
